<?xml version="1.0" encoding="UTF-8"?>
<svg version="1.1" xmlns="http://www.w3.org/2000/svg" width="6441" height="1714">
<path d="M0 0 C22.77 0 45.54 0 69 0 C76.61366045 24.47248002 84.13726519 48.96990057 91.5625 73.5 C91.77399689 74.19868069 91.98549377 74.89736137 92.20339966 75.6172142 C94.38569157 82.82685158 96.56690841 90.03681394 98.74747276 97.24697399 C102.8732819 110.88916738 107.0052858 124.52948224 111.13850021 138.16943359 C111.75189457 140.19375243 112.36522777 142.21808978 112.97854614 144.24243164 C119.97412614 167.3318056 126.98518142 190.4164646 134 213.5 C141.42546388 237.93483839 148.84533502 262.37135006 156.25 286.8125 C156.45341507 287.48391148 156.65683014 288.15532295 156.8664093 288.84708023 C160.11289996 299.56283503 163.35859967 310.27882936 166.60418701 320.99485779 C169.65240316 331.05918947 172.70092519 341.12342842 175.75 351.1875 C176.05463921 352.19304617 176.05463921 352.19304617 176.36543274 353.2189064 C184.07693143 378.67239999 191.80667542 404.12033532 199.53991699 429.56723022 C206.5723057 452.70815348 213.59498017 475.85198832 220.60558701 498.99951935 C225.6532944 515.66585404 230.70597342 532.33066075 235.76953125 548.9921875 C236.13849077 550.20624645 236.13849077 550.20624645 236.51490402 551.44483185 C238.0263614 556.41816232 239.53793907 561.39145622 241.04953003 566.36474609 C249.45565929 594.02182256 257.84363043 621.68431042 266.21161652 649.35295105 C273.85212827 674.61581855 281.51226934 699.87265916 289.1875 725.125 C289.43928009 725.95338379 289.69106018 726.78176758 289.95046997 727.63525391 C290.3276265 728.8761377 290.3276265 728.8761377 290.71240234 730.14208984 C292.21849971 735.09730787 293.72453434 740.05254495 295.23046875 745.0078125 C295.47572674 745.81482857 295.72098473 746.62184464 295.97367477 747.45331573 C300.99175338 763.96606073 305.99742228 780.48255355 311 797 C318.06467982 820.32579864 325.14343366 843.64729314 332.23005676 866.96643448 C339.91236328 892.24573555 347.58941282 917.52660788 355.25 942.8125 C355.45341507 943.48391148 355.65683014 944.15532295 355.8664093 944.84708023 C359.11289996 955.56283503 362.35859967 966.27882936 365.60418701 976.99485779 C368.65240316 987.05918947 371.70092519 997.12342842 374.75 1007.1875 C374.9530928 1007.85786411 375.15618561 1008.52822823 375.36543274 1009.2189064 C382.56506878 1032.98288501 389.78025691 1056.74212327 397 1080.5 C406.26182188 1110.97770812 415.50923095 1141.45974581 424.74268913 1171.94605827 C427.62278053 1181.45531844 430.50469222 1190.96402502 433.38806725 1200.47229004 C434.65154772 1204.63890685 435.91479103 1208.80559556 437.1780405 1212.97228241 C438.21828036 1216.4033339 439.25865792 1219.83434351 440.29934692 1223.26525879 C444.80542227 1238.12130023 449.29949253 1252.98082048 453.76421547 1267.84934807 C454.43821449 1270.09355336 455.11260941 1272.33763927 455.78715515 1274.5816803 C456.00613873 1275.3102143 456.22512232 1276.0387483 456.45074177 1276.78935909 C456.88781535 1278.24344763 457.32490261 1279.69753207 457.7620039 1281.15161228 C459.03334702 1285.38203813 460.30169146 1289.61334886 461.56783676 1293.8453331 C462.15786458 1295.81574703 462.74931065 1297.78572838 463.34140015 1299.75552368 C464.06357631 1302.15831463 464.78335913 1304.56182661 465.50039673 1306.96615601 C465.81697235 1308.017034 466.13354797 1309.06791199 466.4597168 1310.15063477 C466.73470505 1311.06853287 467.0096933 1311.98643097 467.29301453 1312.93214417 C467.81870283 1314.96547878 467.81870283 1314.96547878 469 1316 C469.18029755 1315.37300201 469.36059509 1314.74600403 469.5463562 1314.1000061 C479.82064846 1278.37259135 490.11715784 1242.65164022 500.4375 1206.9375 C500.70817039 1206.00082741 500.97884079 1205.06415482 501.25771332 1204.09909821 C502.08765791 1201.22703442 502.91760783 1198.35497216 503.74755859 1195.48291016 C504.87207774 1191.5914735 505.99658815 1187.70003432 507.12109375 1183.80859375 C507.40203384 1182.83639137 507.68297394 1181.864189 507.97242737 1180.86252594 C514.35922323 1158.76044693 520.73942185 1136.65646491 527.11904526 1114.55231476 C536.45039689 1082.22123015 545.78501451 1049.89109151 555.125 1017.5625 C555.39170753 1016.63933613 555.65841507 1015.71617226 555.93320465 1014.76503372 C560.22262738 999.91793695 564.51234131 985.07092431 568.80209351 970.22392273 C572.82653623 956.29515576 576.85087023 942.36635739 580.875 928.4375 C581.1415464 927.51490009 581.4080928 926.59230019 581.68271637 925.64174271 C590.45950045 895.26241879 599.23099093 864.88156901 608 834.5 C619.71930701 793.89667393 631.44584647 753.29544127 643.17633057 712.69534302 C646.94854407 699.63941871 650.72047075 686.58341157 654.4921875 673.52734375 C654.76050385 672.59854904 655.02882019 671.66975433 655.30526733 670.71281433 C657.20352094 664.14187893 659.10176208 657.57093993 661 651 C663.16926208 643.49088289 665.33853083 635.9817677 667.5078125 628.47265625 C667.77616913 627.54372055 668.04452576 626.61478485 668.3210144 625.65769958 C672.08925346 612.61370266 675.85778992 599.56979169 679.62651825 586.52593613 C682.04274786 578.16314403 684.45889903 569.80032927 686.875 561.4375 C687.27461945 560.05430069 687.27461945 560.05430069 687.68231201 558.64315796 C696.4592485 528.26336739 705.23085488 497.88204039 714 467.5 C723.03800818 436.18644256 732.07893778 404.87373174 741.125 373.5625 C741.39170753 372.63933613 741.65841507 371.71617226 741.93320465 370.76503372 C746.22262738 355.91793695 750.51234131 341.07092431 754.80209351 326.22392273 C758.82653623 312.29515576 762.85087023 298.36635739 766.875 284.4375 C767.1415464 283.51490009 767.4080928 282.59230019 767.68271637 281.64174271 C777.04565114 249.23355931 786.40238155 216.82358718 795.75686646 184.41296387 C804.71215529 153.38554438 813.67273812 122.35965776 822.63674164 91.33475494 C831.43248721 60.89213589 840.22069791 30.44736684 849 0 C867.48 0 885.96 0 905 0 C901.62512803 13.49948788 901.62512803 13.49948788 900.14086914 18.60131836 C899.63620872 20.34220985 899.63620872 20.34220985 899.12135315 22.11827087 C898.76290817 23.34638992 898.4044632 24.57450897 898.03515625 25.83984375 C897.6460762 27.17906494 897.25720187 28.51834591 896.86851501 29.85768127 C896.03741097 32.71995039 895.2049344 35.58181517 894.37133789 38.44335938 C893.03504522 43.03060371 891.70186704 47.61874974 890.36914062 52.20703125 C888.73998461 57.81515619 887.1101343 63.42307837 885.47936058 69.03073311 C882.62583478 78.84327854 879.77778582 88.65740159 876.93359375 98.47265625 C876.72932329 99.17758146 876.52505283 99.88250668 876.31459236 100.60879326 C875.28726974 104.15413872 874.26005095 107.69951426 873.23287964 111.24490356 C871.36453677 117.6934952 869.49526188 124.14181669 867.62607002 130.59016228 C866.58400972 134.18509747 865.54200777 137.78004958 864.5 141.375 C864.08333361 142.81250008 863.66666695 144.25000008 863.25 145.6875 C863.04375 146.3990625 862.8375 147.110625 862.625 147.84375 C855.33333333 173 848.04166667 198.15625 840.75 223.3125 C840.54375157 224.02405715 840.33750315 224.7356143 840.12500477 225.46873379 C839.70832238 226.90628788 839.29163982 228.34384192 838.87495708 229.78139591 C837.83352961 233.37431792 836.79210509 236.96724078 835.75068665 240.56016541 C833.8728336 247.03880355 831.99495948 253.51743558 830.11697483 259.99603558 C829.07145817 263.60282156 828.02595885 267.20961257 826.98046875 270.81640625 C826.67018266 271.88684772 826.67018266 271.88684772 826.35362816 272.97891426 C823.49402706 282.84424412 820.6353734 292.70984807 817.77738571 302.57564545 C815.95598564 308.8629965 814.1342939 315.15026305 812.3125 321.4375 C812.10994095 322.13657219 811.9073819 322.83564438 811.69868469 323.55590057 C806.48349778 341.55409123 801.26063387 359.55003313 796.02734375 377.54296875 C795.77227051 378.41996681 795.51719727 379.29696487 795.25439453 380.20053864 C793.94826048 384.69125981 792.64207178 389.1819651 791.33587646 393.67266846 C790.80724874 395.49011165 790.27862325 397.3075555 789.75 399.125 C789.48812141 400.02535728 789.22624283 400.92571457 788.95642853 401.85335541 C780.84282214 429.74949368 772.75336989 457.65252237 764.6875 485.5625 C764.3125773 486.85979223 764.3125773 486.85979223 763.93008041 488.18329239 C762.6779674 492.51580885 761.42588627 496.84833452 760.17381287 501.18086243 C759.92926298 502.02706964 759.6847131 502.87327686 759.43275261 503.74512672 C758.94216264 505.44270472 758.45157856 507.14028441 757.96100044 508.83786583 C753.00182708 525.99810449 748.03520724 543.15617848 743.0625 560.3125 C742.76329714 561.34483324 742.76329714 561.34483324 742.45804977 562.3980217 C737.32811772 580.09722686 732.1892678 597.79382817 727.04296875 615.48828125 C726.78742973 616.36690952 726.53189072 617.2455378 726.26860809 618.15079117 C724.95906673 622.65339157 723.64948592 627.1559805 722.33990479 631.65856934 C722.07770393 632.56007217 721.81550308 633.46157501 721.54535675 634.39039612 C721.01544983 636.21232762 720.48553753 638.03425755 719.95561981 639.85618591 C711.8423365 667.75139635 703.75309751 695.65346489 695.6875 723.5625 C695.3125773 724.85979223 695.3125773 724.85979223 694.93008041 726.18329239 C693.6779674 730.51580885 692.42588627 734.84833452 691.17381287 739.18086243 C690.92926298 740.02706964 690.6847131 740.87327686 690.43275261 741.74512672 C689.94216264 743.44270472 689.45157856 745.14028441 688.96100044 746.83786583 C684.00182708 763.99810449 679.03520724 781.15617848 674.0625 798.3125 C673.76329714 799.34483324 673.76329714 799.34483324 673.45804977 800.3980217 C668.32811772 818.09722686 663.1892678 835.79382817 658.04296875 853.48828125 C657.78742973 854.36690952 657.53189072 855.2455378 657.26860809 856.15079117 C655.95906673 860.65339157 654.64948592 865.1559805 653.33990479 869.65856934 C653.07770393 870.56007217 652.81550308 871.46157501 652.54535675 872.39039612 C652.01544983 874.21232762 651.48553753 876.03425755 650.95561981 877.85618591 C642.8423365 905.75139635 634.75309751 933.65346489 626.6875 961.5625 C626.3125773 962.85979223 626.3125773 962.85979223 625.93008041 964.18329239 C624.6779674 968.51580885 623.42588627 972.84833452 622.17381287 977.18086243 C621.92926298 978.02706964 621.6847131 978.87327686 621.43275261 979.74512672 C620.94216264 981.44270472 620.45157856 983.14028441 619.96100044 984.83786583 C615.00182708 1001.99810449 610.03520724 1019.15617848 605.0625 1036.3125 C604.86303143 1037.00072216 604.66356285 1037.68894432 604.45804977 1038.3980217 C599.32811772 1056.09722686 594.1892678 1073.79382817 589.04296875 1091.48828125 C588.78742973 1092.36690952 588.53189072 1093.2455378 588.26860809 1094.15079117 C586.95906673 1098.65339157 585.64948592 1103.1559805 584.33990479 1107.65856934 C584.07770393 1108.56007217 583.81550308 1109.46157501 583.54535675 1110.39039612 C583.01544983 1112.21232762 582.48553753 1114.03425755 581.95561981 1115.85618591 C573.8423365 1143.75139635 565.75309751 1171.65346489 557.6875 1199.5625 C557.43755154 1200.42736149 557.18760307 1201.29222298 556.93008041 1202.18329239 C555.6779674 1206.51580885 554.42588627 1210.84833452 553.17381287 1215.18086243 C552.92926298 1216.02706964 552.6847131 1216.87327686 552.43275261 1217.74512672 C551.94216264 1219.44270472 551.45157856 1221.14028441 550.96100044 1222.83786583 C543.78850015 1247.65688462 536.59915277 1272.47101117 529.39967537 1297.28221703 C529.18721609 1298.01440767 528.97475681 1298.74659832 528.75585938 1299.50097656 C528.53953794 1300.24647577 528.32321651 1300.99197498 528.10033989 1301.76006508 C526.306199 1307.9436154 524.5133597 1314.12754266 522.72070312 1320.31152344 C520.11133457 1329.31267613 517.50037929 1338.31336717 514.88783169 1347.31359768 C513.46236544 1352.22446562 512.03753563 1357.13551606 510.61428833 1362.04702759 C509.28143052 1366.64647852 507.94674477 1371.24539503 506.61064911 1375.8439064 C506.11543821 1377.54949717 505.6208975 1379.25528268 505.12705231 1380.96126938 C504.45016975 1383.29916375 503.77092315 1385.63635833 503.09106445 1387.97338867 C502.79286096 1389.00650413 502.79286096 1389.00650413 502.48863316 1390.06049061 C501.11411371 1394.77177259 501.11411371 1394.77177259 500 1397 C478.88 1397 457.76 1397 436 1397 C432.62450127 1387.99867006 432.62450127 1387.99867006 431.43212891 1384.13793945 C431.15891815 1383.25726303 430.8857074 1382.37658661 430.60421753 1381.46922302 C430.31459137 1380.52676224 430.02496521 1379.58430145 429.7265625 1378.61328125 C429.25333054 1377.08303062 429.25333054 1377.08303062 428.77053833 1375.52186584 C427.71938416 1372.11955279 426.67204694 1368.71607911 425.625 1365.3125 C424.8714634 1362.86863874 424.11788154 1360.42479143 423.36425781 1357.98095703 C414.73015254 1329.95583201 406.20892782 1301.89620303 397.68505859 1273.83740234 C393.53214266 1260.1669643 389.3737341 1246.49819707 385.21437073 1232.82971954 C384.56153336 1230.68432337 383.90875422 1228.53890948 383.25598145 1226.39349365 C376.52045214 1204.25728906 369.76480892 1182.12727256 363 1160 C355.79777603 1136.4419698 348.60799949 1112.88020681 341.4375 1089.3125 C341.22164623 1088.6030637 341.00579247 1087.8936274 340.78339767 1087.16269302 C337.30444865 1075.72849218 333.82662847 1064.29394806 330.34895325 1052.85935974 C327.08734448 1042.13524148 323.82531851 1031.41125027 320.5625 1020.6875 C320.2388402 1019.6237081 320.2388402 1019.6237081 319.90864182 1018.53842545 C312.49633267 994.17651876 305.06033407 969.82190038 297.61502075 945.47006226 C290.67495704 922.77032688 283.75432615 900.06475012 276.84759903 877.35485077 C271.78701162 860.71536616 266.72180532 844.07732896 261.63671875 827.4453125 C261.41339497 826.7148748 261.19007118 825.9844371 260.95998001 825.23186493 C259.59760667 820.77607168 258.23502353 816.3203426 256.87240601 811.86462402 C248.63217127 784.91928041 240.42585415 757.96380788 232.24156952 731.00141907 C224.78952809 706.45181533 217.31535232 681.90912316 209.8125 657.375 C209.58648102 656.63592407 209.36046204 655.89684814 209.12759399 655.13537598 C208.90179657 654.39702515 208.67599915 653.65867432 208.44335938 652.89794922 C207.08319641 648.45023717 205.72315072 644.00248929 204.36328125 639.5546875 C204.14043079 638.8258007 203.91758034 638.09691391 203.68797684 637.34593964 C198.39122244 620.01990012 193.11859817 602.68653314 187.84699249 585.35282898 C182.78663107 568.71401112 177.72159958 552.07665604 172.63671875 535.4453125 C172.41339497 534.7148748 172.19007118 533.9844371 171.95998001 533.23186493 C170.59760667 528.77607168 169.23502353 524.3203426 167.87240601 519.86462402 C159.63217127 492.91928041 151.42585415 465.96380788 143.24156952 439.00141907 C135.78952809 414.45181533 128.31535232 389.90912316 120.8125 365.375 C120.58648102 364.63592407 120.36046204 363.89684814 120.12759399 363.13537598 C119.78889786 362.02784973 119.78889786 362.02784973 119.44335938 360.89794922 C118.08319641 356.45023717 116.72315072 352.00248929 115.36328125 347.5546875 C115.02900557 346.46135731 115.02900557 346.46135731 114.68797684 345.34593964 C109.39122244 328.01990012 104.11859817 310.68653314 98.84699249 293.35282898 C92.43213758 272.26034298 86.00036375 251.17310796 79.55307007 230.09051514 C71.33366215 203.21285255 63.13672924 176.3284406 54.96570206 149.43602753 C54.20289699 146.92567078 53.43989774 144.41537313 52.67684937 141.90509033 C46.40874841 121.2827104 40.17614762 100.65011788 34 80 C28.93084812 94.70090751 24.47391437 109.57048782 20.05586624 124.47766876 C18.98487606 128.08852853 17.91020079 131.69829109 16.83569336 135.30810547 C16.37928234 136.84155113 15.92287678 138.37499842 15.46647644 139.90844727 C15.23520742 140.68546997 15.00393841 141.46249268 14.76566124 142.26306152 C14.04488167 144.68529699 13.32449325 147.10764849 12.60420227 149.5300293 C7.05472378 168.19118609 1.47486108 186.84325076 -4.10421753 205.49557495 C-5.95731293 211.69102714 -7.8098942 217.88663299 -9.66235352 224.08227539 C-9.9723356 225.11902247 -10.28231768 226.15576956 -10.60169315 227.22393322 C-11.23028902 229.32629878 -11.85888405 231.42866459 -12.48747826 233.53103065 C-13.7520161 237.76027556 -15.01662517 241.98949917 -16.28123569 246.21872234 C-20.28289516 259.60143865 -24.28413167 272.98428137 -28.28515625 286.3671875 C-28.73217801 287.86241629 -28.73217801 287.86241629 -29.18823051 289.38785172 C-30.69101369 294.41447032 -32.19379021 299.44109091 -33.69656372 304.4677124 C-36.41206581 313.55077349 -39.12762714 322.63381687 -41.84318352 331.71686172 C-43.35379139 336.76957377 -44.86439551 341.82228694 -46.375 346.875 C-46.97916665 348.89583334 -47.58333332 350.91666667 -48.1875 352.9375 C-48.4865625 353.9378125 -48.785625 354.938125 -49.09375 355.96875 C-79 456 -108.90625 556.03125 -167.8125 753.0625 C-168.11156156 754.06280935 -168.41062311 755.06311871 -168.71874714 756.09374046 C-169.32292332 758.11460559 -169.92709952 760.13547072 -170.53127575 762.15633583 C-172.04154707 767.20793262 -173.55181797 772.25952954 -175.06208801 777.31112671 C-177.78257317 786.41068674 -180.50306128 795.51024589 -183.2235651 804.60980034 C-184.73628506 809.66955377 -186.24900256 814.72930794 -187.76171875 819.7890625 C-188.21085916 821.29135344 -188.21085916 821.29135344 -188.6690731 822.82399368 C-192.86359546 836.85390672 -197.05798107 850.88386063 -201.25227737 864.91384125 C-214.50361584 909.23967295 -227.75719486 953.56483372 -241.01361847 997.8891449 C-250.90654765 1030.96727444 -260.79813777 1064.04580386 -270.6875 1097.125 C-270.98399445 1098.11675232 -271.28048889 1099.10850464 -271.58596802 1100.13031006 C-274.27050673 1109.10991552 -276.95501603 1118.08952977 -279.63949585 1127.06915283 C-285.35273277 1146.1800075 -291.06626081 1165.29077512 -296.77983379 1184.40152931 C-298.88638211 1191.44752516 -300.99288268 1198.49353527 -303.09936523 1205.53955078 C-304.30061455 1209.55761836 -305.501868 1213.57568471 -306.703125 1217.59375 C-307.00071276 1218.58914669 -307.29830051 1219.58454338 -307.60490608 1220.61010361 C-311.65119809 1234.14441157 -315.69793818 1247.67858548 -319.74505615 1261.21264648 C-321.02591149 1265.49599654 -322.3067136 1269.77936252 -323.58746338 1274.06274414 C-323.90211926 1275.11508743 -324.21677513 1276.16743073 -324.54096603 1277.25166321 C-325.17335535 1279.36664282 -325.80574315 1281.48162288 -326.43812943 1283.59660339 C-328.29301191 1289.79999809 -330.14828301 1296.0032764 -332.00384903 1302.20646667 C-337.32114624 1319.9828077 -342.63751751 1337.75936774 -347.9176712 1355.54678345 C-348.54847109 1357.67149664 -349.17964901 1359.79609712 -349.81097412 1361.9206543 C-350.20959748 1363.26220621 -350.60821814 1364.60375893 -351.00683594 1365.9453125 C-351.19748501 1366.58690811 -351.38813408 1367.22850372 -351.58456039 1367.88954163 C-352.84142251 1372.12065056 -354.09354557 1376.35314579 -355.34472656 1380.5859375 C-355.96404753 1382.67191811 -356.58350325 1384.75785872 -357.203125 1386.84375 C-357.47761475 1387.77699097 -357.75210449 1388.71023193 -358.03491211 1389.67175293 C-359.886314 1395.886314 -359.886314 1395.886314 -361 1397 C-362.7492872 1397.09365006 -364.50236254 1397.11744438 -366.25415039 1397.11352539 C-367.37523697 1397.11344986 -368.49632355 1397.11337433 -369.65138245 1397.11329651 C-371.48103798 1397.10555458 -371.48103798 1397.10555458 -373.34765625 1397.09765625 C-375.2100016 1397.09553383 -375.2100016 1397.09553383 -377.10997009 1397.09336853 C-380.41605491 1397.08870591 -383.72207146 1397.07971497 -387.02813721 1397.06866455 C-390.3996115 1397.05844827 -393.77109283 1397.05387045 -397.14257812 1397.04882812 C-403.76173775 1397.03777395 -410.38086493 1397.02101736 -417 1397 C-413.95522912 1384.11430639 -410.23507244 1371.47161071 -406.390625 1358.8046875 C-405.74454542 1356.66555055 -405.09883764 1354.52630127 -404.45347595 1352.38694763 C-403.0924081 1347.87726468 -401.72917263 1343.36824563 -400.36410522 1338.85977173 C-397.16934917 1328.30763899 -393.98608697 1317.75203678 -390.80197716 1307.1966877 C-389.75823066 1303.73699035 -388.71406403 1300.27741998 -387.6698761 1296.81785583 C-382.7952899 1280.66314639 -377.96084286 1264.49743415 -373.1875 1248.3125 C-371.97694614 1244.21082416 -370.76603083 1240.10925526 -369.5546875 1236.0078125 C-369.26443192 1235.02498795 -368.97417633 1234.04216339 -368.67512512 1233.02955627 C-365.09043295 1220.90471031 -361.45047082 1208.79644356 -357.8125 1196.6875 C-356.2940515 1191.63287835 -354.7757414 1186.57821521 -353.2578125 1181.5234375 C-352.9572633 1180.52261013 -352.9572633 1180.52261013 -352.6506424 1179.50156403 C-346.4779368 1158.94403022 -340.33438994 1138.37776389 -334.1875 1117.8125 C-333.564832 1115.7293592 -332.9421615 1113.64621915 -332.31948853 1111.56307983 C-329.78608617 1103.08757338 -327.25276785 1094.6120418 -324.71961975 1086.13645935 C-320.38276849 1071.62592634 -316.04522165 1057.11560145 -311.70703125 1042.60546875 C-311.40924963 1041.60946466 -311.11146801 1040.61346058 -310.8046627 1039.58727455 C-309.30359339 1034.56659246 -307.80251077 1029.54591435 -306.30142212 1024.52523804 C-303.58651975 1015.44470764 -300.87173606 1006.36414176 -298.15694237 997.28357887 C-296.64629967 992.23071782 -295.13564946 987.17785903 -293.625 982.125 C-293.0208333 980.10416668 -292.41666663 978.08333334 -291.8125 976.0625 C-261.90625 876.03125 -232 776 -172.1875 575.9375 C-171.88843844 574.93719065 -171.58937689 573.93688129 -171.28125286 572.90625954 C-170.67707668 570.88539441 -170.07290048 568.86452928 -169.46872425 566.84366417 C-167.95845293 561.79206738 -166.44818203 556.74047046 -164.93791199 551.68887329 C-162.21742683 542.58931326 -159.49693872 533.48975411 -156.7764349 524.39019966 C-155.26371494 519.33044623 -153.75099744 514.27069206 -152.23828125 509.2109375 C-151.93885431 508.20941021 -151.63942738 507.20788292 -151.3309269 506.17600632 C-147.13640454 492.14609328 -142.94201893 478.11613937 -138.74772263 464.08615875 C-125.49638416 419.76032705 -112.24280514 375.43516628 -98.98638153 331.1108551 C-86.11286181 288.06678337 -73.24263468 245.02172799 -60.37409973 201.97616577 C-56.44231772 188.82429521 -52.51028802 175.67249872 -48.5780983 162.52075005 C-32.38132454 108.34838396 -16.18875741 54.17476223 0 0 Z " fill="#AF291C" transform="translate(4372,164)"/>
<path d="M0 0 C1.75763672 0.02682861 1.75763672 0.02682861 3.55078125 0.05419922 C97.96147306 1.67910685 194.73097141 16.31817898 327 92 C327.63228516 92.4753418 328.26457031 92.95068359 328.91601562 93.44042969 C336.70775097 99.31919938 343.99551371 105.58842439 351.09765625 112.28125 C353.46179532 114.49584056 355.85444932 116.64173041 358.3125 118.75 C364.31194859 123.95540392 369.81134269 129.61063989 374.9765625 135.640625 C376.51683186 137.43661475 378.07798346 139.21471882 379.6484375 140.984375 C387.7714168 150.19377218 394.98643333 159.92725176 402 170 C402.44585449 170.63518555 402.89170898 171.27037109 403.35107422 171.92480469 C410.98427002 182.84781691 417.55788296 194.34444986 424 206 C424.4655127 206.83241211 424.93102539 207.66482422 425.41064453 208.52246094 C457.26375741 265.75622469 470.7233318 331.7974689 476.3125 396.5 C476.38887695 397.38099365 476.46525391 398.2619873 476.54394531 399.16967773 C477.10247411 406.49580732 477 413.59072064 477 421 C464.13 421 451.26 421 438 421 C436.95350612 417.86051835 436.76872254 415.38520008 436.60546875 412.0859375 C436.5394043 410.86720947 436.47333984 409.64848145 436.40527344 408.39282227 C436.37042847 407.74000275 436.3355835 407.08718323 436.29968262 406.4145813 C431.39107333 317.17163121 404.71385709 231.33710291 323 141 C320.29086505 138.65994664 317.53765969 136.40479843 314.73046875 134.18359375 C312.94905585 132.75897314 311.19912964 131.29378927 309.48828125 129.78515625 C293.78918197 116.01120199 275.33861164 104.90337328 257 95 C256.17419434 94.55350098 255.34838867 94.10700195 254.49755859 93.64697266 C188.6784342 58.50108019 111.63203037 46.85077407 38 42 C36.94796387 41.92797363 35.89592773 41.85594727 34.81201172 41.78173828 C0.3912683 39.53158738 -34.62799707 40.21781388 -69 43 C-69.75335632 43.0608075 -70.50671265 43.12161499 -71.28289795 43.18426514 C-165.04473806 50.87905084 -262.73006717 72.1743913 -355 148 C-355.92554688 148.82242188 -356.85109375 149.64484375 -357.8046875 150.4921875 C-362.60073631 154.76833942 -367.14811446 159.04993586 -371.28125 163.97265625 C-373.16398583 166.19342874 -375.1413438 168.30650701 -377.125 170.4375 C-410.89058523 207.98666524 -431.11901502 253.30909469 -439 303 C-439.16516113 304.00337402 -439.33032227 305.00674805 -439.50048828 306.04052734 C-444.74369219 339.38123144 -444.86478217 376.76812499 -439 410 C-438.82307617 411.01755371 -438.64615234 412.03510742 -438.46386719 413.08349609 C-431.47886505 451.95943633 -417.02693263 486.34666095 -392 517 C-391.54141602 517.56444824 -391.08283203 518.12889648 -390.61035156 518.71044922 C-379.1052295 532.7772269 -366.3630202 545.84896322 -352 557 C-350.87374152 557.92397097 -349.75021428 558.85127752 -348.62890625 559.78125 C-306.31976364 594.67662004 -254.15837014 616.29102406 -202.5 633.25 C-201.81829742 633.47654266 -201.13659485 633.70308533 -200.43423462 633.93649292 C-171.35871915 643.54826629 -141.33624965 650.13917477 -111.49951172 656.87893677 C-102.00865538 659.02340758 -92.52356099 661.19318001 -83.03790665 663.36052132 C-79.77281052 664.10650447 -76.50760846 664.85202269 -73.24240112 665.59751892 C-13.02697537 679.35042132 46.93735678 693.76308955 106.59953117 709.75304794 C115.88106042 712.23895677 125.16844073 714.70273479 134.45568848 717.16717529 C144.65546194 719.87385778 154.85320139 722.58817912 165.05082703 725.30294037 C168.31708235 726.17208816 171.58362246 727.04015834 174.85021973 727.90802002 C194.94673261 733.24990818 215.03484137 738.60707986 234.98828125 744.46484375 C235.65440304 744.65965017 236.32052483 744.8544566 237.00683212 745.05516624 C299.02457573 763.25134428 361.21257427 790.90949107 410 834 C410.52658203 834.46341797 411.05316406 834.92683594 411.59570312 835.40429688 C434.70540095 855.87449094 453.73947331 880.19996688 469 907 C469.33451172 907.57331055 469.66902344 908.14662109 470.01367188 908.73730469 C495.4228858 952.44808692 504.02172469 1007.70595021 504.203125 1057.69140625 C504.20882507 1058.95677719 504.21452515 1060.22214813 504.22039795 1061.52586365 C504.22978052 1064.19232744 504.2367104 1066.85868072 504.24023438 1069.52514648 C504.2467111 1073.50065513 504.28090425 1077.47578426 504.3125 1081.45117188 C504.40827397 1104.40221041 502.88456089 1127.23358574 498.25 1149.75 C497.99178467 1151.03108643 497.73356934 1152.31217285 497.4675293 1153.63208008 C487.85287766 1200.49168014 467.8933407 1242.69719878 438 1280 C437.19949219 1281.01320313 436.39898438 1282.02640625 435.57421875 1283.0703125 C430.80723398 1289.01422601 425.7433533 1294.63838724 420.5625 1300.21875 C418.4534211 1302.50787222 416.40021288 1304.82475164 414.375 1307.1875 C408.12643065 1314.37559171 401.2320803 1320.82184095 394 1327 C392.98232945 1327.89238203 391.96546778 1328.78568697 390.94921875 1329.6796875 C328.35468241 1384.46577762 249.77241405 1415.14471166 35.234375 1446.203125 C33.68133013 1446.21011174 32.12828549 1446.21715262 30.57524109 1446.22424316 C25.63349041 1446.24351821 20.69178418 1446.2484208 15.75 1446.25 C14.48484999 1446.25088371 14.48484999 1446.25088371 13.19414139 1446.25178528 C-14.6370199 1446.26549332 -42.27735825 1445.66318283 -70 1443 C-70.77494812 1442.92738953 -71.54989624 1442.85477905 -72.34832764 1442.77996826 C-154.21136158 1435.08638997 -236.88581481 1416.52490006 -361.16503906 1343.43359375 C-363.01640996 1341.98717944 -364.87833691 1340.55528367 -366.7421875 1339.125 C-372.87988945 1334.38905839 -378.82417812 1329.52966821 -384.5234375 1324.265625 C-386.54343822 1322.41767481 -388.59271481 1320.62825533 -390.66796875 1318.84375 C-395.62611999 1314.51491147 -400.28693735 1309.90496409 -404.9375 1305.25 C-405.8248584 1304.36183594 -406.7122168 1303.47367188 -407.62646484 1302.55859375 C-413.50466559 1296.62500999 -418.88784938 1290.60406397 -424 1284 C-425.57965191 1282.14269596 -427.16323257 1280.28872867 -428.75 1278.4375 C-440.07153252 1264.8376405 -449.85963593 1250.13106943 -459 1235 C-459.72437256 1233.80479736 -459.72437256 1233.80479736 -460.46337891 1232.58544922 C-506.95996771 1155.22568227 -523.92135046 1064.96365621 -524 956 C-510.8 956 -497.6 956 -484 956 C-483.89042969 959.07054687 -483.78085937 962.14109375 -483.66796875 965.3046875 C-480.12311293 1061.43705658 -464.17467128 1155.32262361 -380.96875 1269.84765625 C-379.14296679 1271.84370099 -377.38049935 1273.87975666 -375.625 1275.9375 C-359.3676215 1294.57124705 -339.43652009 1310.2257097 -319 1324 C-318.32001953 1324.45971191 -317.64003906 1324.91942383 -316.93945312 1325.39306641 C-244.37764816 1374.14228667 -157.85732539 1395.66399536 -3.375 1407.625 C-2.2472818 1407.64679321 -1.1195636 1407.66858643 0.04232788 1407.69104004 C18.06986414 1408.02458509 35.99375452 1408.09391189 54 1407 C55.05915619 1406.93619141 55.05915619 1406.93619141 56.13970947 1406.87109375 C146.11526762 1401.37385538 236.92395831 1382.07486863 340 1318 C340.53206055 1317.60393555 341.06412109 1317.20787109 341.61230469 1316.79980469 C357.77945199 1304.75920307 374.51244573 1291.4367131 387.421875 1275.88671875 C389.24787082 1273.70365939 391.18535392 1271.64517753 393.125 1269.5625 C409.69740262 1251.11133092 423.57352718 1229.96450528 435 1208 C435.33660645 1207.37399902 435.67321289 1206.74799805 436.02001953 1206.10302734 C455.28927074 1170.04131702 462.99756941 1126.44807415 464 1086 C464.02191406 1085.14245117 464.04382812 1084.28490234 464.06640625 1083.40136719 C465.76934403 1003.39167399 445.13818331 934.33459973 390 876 C384.24235493 870.03733493 378.36273298 864.31257317 372 859 C371.47760742 858.55849609 370.95521484 858.11699219 370.41699219 857.66210938 C344.04856673 835.44332569 314.57330226 817.78920789 283.1875 803.625 C282.47357086 803.30195892 281.75964172 802.97891785 281.02407837 802.64608765 C232.32059363 780.66455861 181.4402276 766.81682455 129.38259888 755.48313904 C114.78661373 752.30496658 100.20359856 749.06935756 85.625 745.8125 C84.92896038 745.65706223 84.23292076 745.50162445 83.51578903 745.34147644 C50.85438148 738.04486349 18.28527043 730.36898313 -14.26769352 722.60468292 C-19.43740079 721.37183351 -24.60787135 720.14223043 -29.77880859 718.91455078 C-63.89184185 710.81426661 -97.97185975 702.5827826 -132.01753616 694.20370865 C-134.56325035 693.57768503 -137.10931374 692.95310231 -139.65548706 692.32894897 C-202.20581242 676.98714594 -202.20581242 676.98714594 -230.4375 667.625 C-231.25178467 667.35786194 -232.06606934 667.09072388 -232.9050293 666.81549072 C-257.27464957 658.80342431 -280.86836516 649.10039217 -304 638 C-304.99193359 637.52594727 -305.98386719 637.05189453 -307.00585938 636.56347656 C-332.63111517 624.24459155 -356.83537437 609.84781719 -379 592 C-379.774646 591.3819751 -379.774646 591.3819751 -380.56494141 590.75146484 C-388.9663186 583.99140771 -396.6713622 576.53456571 -404.3125 568.9375 C-405.231521 568.02774414 -406.15054199 567.11798828 -407.09741211 566.18066406 C-413.15536036 560.09481413 -418.67899772 553.73634171 -424 547 C-424.47687256 546.40807861 -424.95374512 545.81615723 -425.44506836 545.20629883 C-457.845871 504.91798144 -475.23981592 457.18774597 -481 406 C-481.10296387 405.15646973 -481.20592773 404.31293945 -481.31201172 403.44384766 C-484.98322229 372.42124836 -485.05696774 338.98361403 -481 308 C-480.84402344 306.79134277 -480.68804687 305.58268555 -480.52734375 304.33740234 C-476.02435199 270.60248907 -467.90359883 237.74037546 -453 207 C-452.63712891 206.24831543 -452.27425781 205.49663086 -451.90039062 204.72216797 C-411.67436412 122.48729194 -333.04149277 66.50712265 -246.09437561 36.15196228 C-167.77179319 9.35027586 -82.61834985 -1.38684649 0 0 Z " fill="#000000" transform="translate(642,138)"/>
<path d="M0 0 C16.83 0 33.66 0 51 0 C53.64754512 5.29509023 56.05296548 10.39357237 58.15234375 15.88671875 C58.44444733 16.64065918 58.7365509 17.39459961 59.0375061 18.17138672 C59.67269316 19.81150431 60.30622194 21.45226488 60.93826294 23.09359741 C62.69722021 27.65964485 64.47021335 32.22024173 66.2421875 36.78125 C66.81033928 38.244701 66.81033928 38.244701 67.38996887 39.73771667 C72.05679597 51.74364204 76.8105388 63.71507933 81.5625 75.6875 C82.46691608 77.96710739 83.37129441 80.24672976 84.27563477 82.52636719 C85.60527932 85.87802756 86.9349542 89.22967584 88.2648468 92.58123779 C92.14547362 102.36249082 96.01340143 112.14872133 99.875 121.9375 C100.17449554 122.69659668 100.47399109 123.45569336 100.78256226 124.23779297 C102.26543092 127.99632733 103.74804825 131.75496073 105.23046875 135.51367188 C108.27731045 143.2388082 111.32612319 150.9631667 114.375 158.6875 C114.68169617 159.46455292 114.98839233 160.24160583 115.30438232 161.04220581 C120.36491602 173.86331879 125.4314597 186.6820504 130.5 199.5 C135.87883271 213.1026553 141.25487444 226.70640471 146.625 240.3125 C146.93149475 241.08904938 147.2379895 241.86559875 147.55377197 242.66567993 C150.00830644 248.88474414 152.46253517 255.103929 154.91674805 261.32312012 C157.06935291 266.77797095 159.22208407 272.23277193 161.375 277.6875 C161.68133362 278.46364655 161.98766724 279.23979309 162.30328369 280.03945923 C167.364187 292.86148639 172.43109711 305.68113346 177.5 318.5 C182.87883271 332.1026553 188.25487444 345.70640471 193.625 359.3125 C193.93149475 360.08904938 194.2379895 360.86559875 194.55377197 361.66567993 C197.00830644 367.88474414 199.46253517 374.103929 201.91674805 380.32312012 C204.06935291 385.77797095 206.22208407 391.23277193 208.375 396.6875 C208.68133362 397.46364655 208.98766724 398.23979309 209.30328369 399.03945923 C214.364187 411.86148639 219.43109711 424.68113346 224.5 437.5 C229.87883271 451.1026553 235.25487444 464.70640471 240.625 478.3125 C240.93149475 479.08904938 241.2379895 479.86559875 241.55377197 480.66567993 C244.00830644 486.88474414 246.46253517 493.103929 248.91674805 499.32312012 C251.06935291 504.77797095 253.22208407 510.23277193 255.375 515.6875 C255.68133362 516.46364655 255.98766724 517.23979309 256.30328369 518.03945923 C261.364187 530.86148639 266.43109711 543.68113346 271.5 556.5 C276.87883271 570.1026553 282.25487444 583.70640471 287.625 597.3125 C287.93149475 598.08904938 288.2379895 598.86559875 288.55377197 599.66567993 C291.00830644 605.88474414 293.46253517 612.103929 295.91674805 618.32312012 C298.06935291 623.77797095 300.22208407 629.23277193 302.375 634.6875 C302.68133362 635.46364655 302.98766724 636.23979309 303.30328369 637.03945923 C308.364187 649.86148639 313.43109711 662.68113346 318.5 675.5 C323.87883271 689.1026553 329.25487444 702.70640471 334.625 716.3125 C334.93149475 717.08904938 335.2379895 717.86559875 335.55377197 718.66567993 C338.00830644 724.88474414 340.46253517 731.103929 342.91674805 737.32312012 C345.06935291 742.77797095 347.22208407 748.23277193 349.375 753.6875 C349.68133362 754.46364655 349.98766724 755.23979309 350.30328369 756.03945923 C355.364187 768.86148639 360.43109711 781.68113346 365.5 794.5 C370.87883271 808.1026553 376.25487444 821.70640471 381.625 835.3125 C381.93149475 836.08904938 382.2379895 836.86559875 382.55377197 837.66567993 C385.00830644 843.88474414 387.46253517 850.103929 389.91674805 856.32312012 C392.06935291 861.77797095 394.22208407 867.23277193 396.375 872.6875 C396.68133362 873.46364655 396.98766724 874.23979309 397.30328369 875.03945923 C402.364187 887.86148639 407.43109711 900.68113346 412.5 913.5 C417.87883271 927.1026553 423.25487444 940.70640471 428.625 954.3125 C428.93149475 955.08904938 429.2379895 955.86559875 429.55377197 956.66567993 C432.00830644 962.88474414 434.46253517 969.103929 436.91674805 975.32312012 C439.06935291 980.77797095 441.22208407 986.23277193 443.375 991.6875 C443.68133362 992.46364655 443.98766724 993.23979309 444.30328369 994.03945923 C449.364187 1006.86148639 454.43109711 1019.68113346 459.5 1032.5 C464.87883271 1046.1026553 470.25487444 1059.70640471 475.625 1073.3125 C476.08474213 1074.47732407 476.08474213 1074.47732407 476.55377197 1075.66567993 C479.00830644 1081.88474414 481.46253517 1088.103929 483.91674805 1094.32312012 C486.06935291 1099.77797095 488.22208407 1105.23277193 490.375 1110.6875 C490.68133362 1111.46364655 490.98766724 1112.23979309 491.30328369 1113.03945923 C496.364187 1125.86148639 501.43109711 1138.68113346 506.5 1151.5 C511.87883271 1165.1026553 517.25487444 1178.70640471 522.625 1192.3125 C523.08474213 1193.47732407 523.08474213 1193.47732407 523.55377197 1194.66567993 C526.00830644 1200.88474414 528.46253517 1207.103929 530.91674805 1213.32312012 C533.06935291 1218.77797095 535.22208407 1224.23277193 537.375 1229.6875 C537.68133362 1230.46364655 537.98766724 1231.23979309 538.30328369 1232.03945923 C543.364187 1244.86148639 548.43109711 1257.68113346 553.5 1270.5 C559.49003855 1285.64834798 565.47806612 1300.7974856 571.45458984 1315.95117188 C574.31716789 1323.20859119 577.18273741 1330.46477935 580.05947876 1337.71659851 C581.42175996 1341.15120242 582.78231649 1344.5864884 584.14276123 1348.02182007 C584.78485144 1349.64180812 585.4277614 1351.26147156 586.07159424 1352.88076782 C586.96916724 1355.1384092 587.86375377 1357.39721502 588.7578125 1359.65625 C589.01244263 1360.29443161 589.26707275 1360.93261322 589.52941895 1361.59013367 C592.19441064 1368.34037795 594.55403272 1375.15129162 597 1382 C582.48 1382 567.96 1382 553 1382 C549.908385 1375.198447 546.9039039 1368.4699977 544.16748047 1361.53515625 C543.81544304 1360.64961311 543.46340561 1359.76406998 543.10070038 1358.8516922 C541.93705337 1355.92293775 540.7771768 1352.99270485 539.6171875 1350.0625 C538.77930959 1347.95223777 537.94113643 1345.84209274 537.10269165 1343.73205566 C535.30305013 1339.2020249 533.50484162 1334.6714292 531.70776367 1330.14038086 C527.09268809 1318.50533398 522.46789601 1306.87414774 517.841609 1295.24355507 C517.33645678 1293.97357101 516.83133316 1292.70357558 516.32623768 1291.43356895 C505.89081681 1265.1950162 495.37236519 1238.99018588 484.82678986 1212.79571533 C469.52445021 1174.78505739 454.31042051 1136.74044083 439.17365646 1098.66355133 C420.20796561 1050.9564838 401.08480936 1003.31375252 381.91151428 955.68978882 C381.53987404 954.76662369 381.1682338 953.84345856 380.78533173 952.89231873 C380.10650221 951.20618017 379.42757791 949.52007977 378.74852753 947.83403015 C378.1418793 946.32721538 377.53670472 944.81980631 376.93315315 943.3117485 C376.258489 941.64036815 375.57277547 939.97343361 374.88024712 938.30937576 C374.32946841 936.97307177 374.32946841 936.97307177 373.76756287 935.60977173 C373.42987098 934.79986094 373.09217909 933.98995014 372.74425411 933.1554966 C372 931 372 931 372 928 C167.07 928 -37.86 928 -249 928 C-247.14055437 922.42166312 -245.28919894 917.03142397 -243.1171875 911.59375 C-242.85745148 910.94297485 -242.59771545 910.29219971 -242.33010864 909.6217041 C-241.78856118 908.26682619 -241.24573911 906.91245707 -240.70166016 905.55859375 C-239.86620738 903.47810415 -239.03639716 901.39542249 -238.20703125 899.3125 C-237.67741558 897.98945029 -237.14747967 896.66652871 -236.6171875 895.34375 C-235.89958252 893.55227539 -235.89958252 893.55227539 -235.16748047 891.72460938 C-234 889 -234 889 -233 888 C-229.89073821 887.90084261 -226.80365216 887.86826819 -223.69393826 887.87695217 C-222.70002068 887.87579833 -221.70610311 887.87464448 -220.68206683 887.87345567 C-217.30702548 887.8707807 -213.93203057 887.87531836 -210.55699158 887.87974548 C-208.13074579 887.87930996 -205.70450005 887.87843541 -203.27825457 887.87715632 C-197.98018164 887.87537864 -192.68212297 887.87673609 -187.38405228 887.88079453 C-179.50593192 887.88681264 -171.62781868 887.88713191 -163.74969645 887.88625254 C-150.49948459 887.88493647 -137.24927771 887.88828825 -123.99906731 887.89426994 C-110.8734122 887.90018027 -97.74775916 887.90403453 -84.62210274 887.90512276 C-83.39944799 887.90522587 -83.39944799 887.90522587 -82.15209314 887.90533106 C-78.01285569 887.90566938 -73.87361824 887.90597077 -69.73438079 887.90625793 C-40.39087159 887.9083602 -11.0473651 887.91510272 18.29614258 887.92456055 C46.80883774 887.93374001 75.32153217 887.94082605 103.83422852 887.94506836 C104.71260187 887.94519989 105.59097522 887.94533141 106.49596594 887.94546692 C115.31668547 887.94678541 124.13740501 887.94806123 132.95812455 887.94930578 C150.92809198 887.95184222 168.89805937 887.95466347 186.86802673 887.95765686 C187.69431693 887.95779415 188.52060713 887.95793144 189.37193642 887.95807289 C244.58129208 887.9672787 299.79064621 887.98314525 355 888 C354.66293533 887.13091971 354.66293533 887.13091971 354.31906128 886.24428225 C351.94988991 880.13560174 349.58086277 874.02686531 347.21191406 867.91809845 C346.33141613 865.64762757 345.45088317 863.37717027 344.5703125 861.1067276 C338.44986739 845.32582495 332.33941748 829.54118064 326.25186157 813.74755859 C316.64206772 788.81799027 306.99288949 763.90382314 297.32666016 738.99609375 C292.98478627 727.80746264 288.64713732 716.61719254 284.30865479 705.42724609 C283.11855546 702.35773763 281.92842919 699.28823962 280.73828125 696.21875 C280.345802 695.20651367 279.95332275 694.19427734 279.5489502 693.15136719 C277.20500296 687.10651406 274.86013664 681.06201841 272.51449585 675.01782227 C263.1845643 650.9765252 253.87925283 626.92588838 244.5980835 602.86572266 C235.86686945 580.23242947 227.10338634 557.61177076 218.32666016 534.99609375 C213.98478627 523.80746264 209.64713732 512.61719254 205.30865479 501.42724609 C204.11855546 498.35773763 202.92842919 495.28823962 201.73828125 492.21875 C201.345802 491.20651367 200.95332275 490.19427734 200.5489502 489.15136719 C198.20500296 483.10651406 195.86013664 477.06201841 193.51449585 471.01782227 C184.1845643 446.9765252 174.87925283 422.92588838 165.5980835 398.86572266 C156.86686945 376.23242947 148.10338634 353.61177076 139.32666016 330.99609375 C134.98478627 319.80746264 130.64713732 308.61719254 126.30865479 297.42724609 C125.11855546 294.35773763 123.92842919 291.28823962 122.73828125 288.21875 C122.345802 287.20651367 121.95332275 286.19427734 121.5489502 285.15136719 C119.20500296 279.10651406 116.86013664 273.06201841 114.51449585 267.01782227 C105.1845643 242.9765252 95.87925283 218.92588838 86.5980835 194.86572266 C77.87705196 172.25882483 69.12392562 149.6644925 60.35742188 127.07519531 C57.49229271 119.69211598 54.62839046 112.30856077 51.76579285 104.92449951 C49.73508688 99.68645968 47.70298535 94.44897277 45.66723633 89.21289062 C42.15671547 80.17891646 38.66360098 71.13992547 35.24609375 62.0703125 C34.41956734 59.88885873 33.59224379 57.7077092 32.76461792 55.52667236 C32.02227738 53.55904773 31.2922851 51.58714419 30.56274414 49.61474609 C30.12953857 48.47344238 29.69633301 47.33213867 29.25 46.15625 C28.88390625 45.17462891 28.5178125 44.19300781 28.140625 43.18164062 C27.14505495 40.66268725 27.14505495 40.66268725 24 40 C23.82931692 40.53238879 23.65863384 41.06477758 23.48277855 41.61329937 C21.54988615 47.53793846 19.35928865 53.32546048 17.04541016 59.1105957 C16.46624596 60.56735466 16.46624596 60.56735466 15.87538147 62.05354309 C14.59906592 65.26194031 13.31912765 68.46887837 12.0390625 71.67578125 C11.12940368 73.95965872 10.2199329 76.24361111 9.31063843 78.52763367 C7.39387287 83.34074149 5.4754197 88.15317193 3.55566406 92.96508789 C1.16338412 98.96152317 -1.22574564 104.95920644 -3.61369133 110.95736885 C-15.37992478 140.50986184 -27.23781519 170.02426048 -39.16486359 199.51217747 C-46.73714876 218.2370671 -54.27165727 236.97720316 -61.80543137 255.71761322 C-62.69621449 257.9334091 -63.58707792 260.14917269 -64.4780159 262.36490631 C-75.67127692 290.20233842 -86.83260918 318.05222784 -97.92578125 345.9296875 C-98.41231926 347.15228523 -98.89885727 348.37488297 -99.40013885 349.63452911 C-104.10982289 361.47050656 -108.81609791 373.30783092 -113.51551151 385.14789009 C-128.8097021 423.6771436 -128.8097021 423.6771436 -134.96875 438.421875 C-142.9935407 457.63378987 -150.59849397 477.0163338 -158.28009033 496.36724854 C-163.06453677 508.4192139 -167.85800497 520.46759211 -172.65234375 532.515625 C-173.1352739 533.72930378 -173.61820404 534.94298256 -174.11576843 536.19343948 C-183.40072783 559.5247147 -192.74328439 582.83248084 -202.125 606.125 C-202.48044514 607.00756721 -202.83589027 607.89013443 -203.20210648 608.79944611 C-207.09416049 618.46306801 -210.98837174 628.12581936 -214.88378906 637.78808594 C-221.26160069 653.60797964 -227.62872064 669.4321779 -233.99642563 685.25614166 C-234.99778287 687.74449049 -235.99920138 690.23281464 -237.00064087 692.72113037 C-273.47363449 783.3251276 -273.47363449 783.3251276 -309.79506683 873.98993683 C-321.00632043 902.04930848 -332.26486128 930.08963011 -343.53173828 958.12670898 C-344.90255352 961.53803437 -346.27319807 964.94942828 -347.64379883 968.36083984 C-360.72635595 1000.92186359 -373.84978364 1033.46624598 -387 1066 C-387.86133109 1068.13106671 -388.72265918 1070.26213464 -389.58398438 1072.39320374 C-394.27429514 1083.99763599 -398.96548516 1095.6017125 -403.65722656 1107.20556641 C-407.20889168 1115.98983031 -410.75993493 1124.77434561 -414.31103516 1133.55883789 C-415.49770054 1136.4943118 -416.68439264 1139.42977491 -417.87109375 1142.36523438 C-421.45223341 1151.22367316 -425.03326831 1160.08215423 -428.61383057 1168.94082642 C-436.91923893 1189.48922266 -445.22754614 1210.03643556 -453.54455566 1230.58013916 C-459.15864051 1244.4476689 -464.76821566 1258.31701703 -470.375 1272.1875 C-470.76909058 1273.16241394 -471.16318115 1274.13732788 -471.56921387 1275.14178467 C-475.19592032 1284.11374462 -478.82234916 1293.08581675 -482.44824219 1302.05810547 C-487.96369961 1315.70612986 -493.48045977 1329.35362621 -499 1343 C-499.37588257 1343.92939392 -499.75176514 1344.85878784 -500.13903809 1345.81634521 C-502.30157775 1351.16307022 -504.46506032 1356.50941186 -506.63000488 1361.85516357 C-507.28775355 1363.47960346 -507.94522903 1365.10415399 -508.60241699 1366.7288208 C-509.49718688 1368.94062389 -510.39297806 1371.15201047 -511.2890625 1373.36328125 C-511.55161835 1374.01290329 -511.81417419 1374.66252533 -512.08468628 1375.33183289 C-513.00025603 1377.58875214 -513.91030035 1379.8206007 -515 1382 C-529.52 1382 -544.04 1382 -559 1382 C-555.62504115 1371.87512344 -555.62504115 1371.87512344 -554.00146484 1367.87133789 C-553.45244507 1366.5115834 -553.45244507 1366.5115834 -552.89233398 1365.12435913 C-552.50247314 1364.16679718 -552.1126123 1363.20923523 -551.7109375 1362.22265625 C-551.08771606 1360.68238266 -551.08771606 1360.68238266 -550.4519043 1359.11099243 C-549.09551254 1355.76044468 -547.73526951 1352.41147509 -546.375 1349.0625 C-545.42242866 1346.71144978 -544.47012062 1344.36029287 -543.51806641 1342.0090332 C-541.5916195 1337.25250307 -539.66369244 1332.49657746 -537.734375 1327.74121094 C-535.31984691 1321.78965159 -532.90877335 1315.83670301 -530.5 1309.8828125 C-530.15349396 1309.02636642 -529.80698792 1308.16992035 -529.44998169 1307.28752136 C-528.76435654 1305.59287802 -528.07873836 1303.89823186 -527.39312744 1302.20358276 C-526.02288494 1298.81732344 -524.6518359 1295.43139093 -523.28079224 1292.04545593 C-518.34897643 1279.8656113 -513.42408023 1267.68297363 -508.5 1255.5 C-500.37066484 1235.38721551 -492.23356146 1215.27758479 -484.09277344 1195.16943359 C-480.91624558 1187.32314621 -477.74041122 1179.47657812 -474.56451416 1171.6300354 C-472.79303686 1167.25334584 -471.02151627 1162.87667379 -469.25 1158.5 C-468.54166646 1156.75000008 -467.83333313 1155.00000008 -467.125 1153.25 C-432.0625 1066.625 -397 980 -36.81266785 90.12542725 C-36.10376337 88.37400781 -35.39487057 86.62258365 -34.68598938 84.87115479 C-32.92398976 80.51783353 -31.16179276 76.16459239 -29.39916992 71.81152344 C-26.1062155 63.6784672 -22.81520679 55.54463973 -19.53091431 47.40808105 C-17.99498983 43.60329494 -16.45798306 39.79894645 -14.92089844 35.99462891 C-14.19493691 34.19699466 -13.46949408 32.39915083 -12.74462891 30.60107422 C-11.73345032 28.09287548 -10.720412 25.58543466 -9.70703125 23.078125 C-9.27672356 22.00863617 -9.27672356 22.00863617 -8.83772278 20.9175415 C-5.99594106 13.89605035 -2.98625139 6.96791991 0 0 Z " fill="#000000" transform="translate(1772,171)"/>
<path d="M0 0 C17.16 0 34.32 0 52 0 C73.71566217 54.1124457 73.71566217 54.1124457 81.0625 73.125 C86.77523464 87.90648982 92.59347999 102.64493297 98.4375 117.375 C98.89079681 118.51762299 99.34409363 119.66024597 99.81112671 120.8374939 C101.61165216 125.37579858 103.41229918 129.91405497 105.21324158 134.45219421 C109.11132879 144.27636079 112.99650307 154.10558526 116.875 163.9375 C117.17431427 164.69614349 117.47362854 165.45478699 117.78201294 166.23641968 C119.26506373 169.99541218 120.74786799 173.75450185 122.23046875 177.51367188 C125.27731045 185.2388082 128.32612319 192.9631667 131.375 200.6875 C131.68169617 201.46455292 131.98839233 202.24160583 132.30438232 203.04220581 C137.36491602 215.86331879 142.4314597 228.6820504 147.5 241.5 C152.87883271 255.1026553 158.25487444 268.70640471 163.625 282.3125 C163.93149475 283.08904938 164.2379895 283.86559875 164.55377197 284.66567993 C167.00830644 290.88474414 169.46253517 297.103929 171.91674805 303.32312012 C174.06935291 308.77797095 176.22208407 314.23277193 178.375 319.6875 C178.68133362 320.46364655 178.98766724 321.23979309 179.30328369 322.03945923 C184.364187 334.86148639 189.43109711 347.68113346 194.5 360.5 C199.87883271 374.1026553 205.25487444 387.70640471 210.625 401.3125 C210.93149475 402.08904938 211.2379895 402.86559875 211.55377197 403.66567993 C214.00830644 409.88474414 216.46253517 416.103929 218.91674805 422.32312012 C221.06935291 427.77797095 223.22208407 433.23277193 225.375 438.6875 C225.68133362 439.46364655 225.98766724 440.23979309 226.30328369 441.03945923 C231.364187 453.86148639 236.43109711 466.68113346 241.5 479.5 C246.87883271 493.1026553 252.25487444 506.70640471 257.625 520.3125 C257.93149475 521.08904938 258.2379895 521.86559875 258.55377197 522.66567993 C261.00830644 528.88474414 263.46253517 535.103929 265.91674805 541.32312012 C268.06935291 546.77797095 270.22208407 552.23277193 272.375 557.6875 C272.68133362 558.46364655 272.98766724 559.23979309 273.30328369 560.03945923 C278.364187 572.86148639 283.43109711 585.68113346 288.5 598.5 C293.87883271 612.1026553 299.25487444 625.70640471 304.625 639.3125 C304.93149475 640.08904938 305.2379895 640.86559875 305.55377197 641.66567993 C308.00830644 647.88474414 310.46253517 654.103929 312.91674805 660.32312012 C315.06935291 665.77797095 317.22208407 671.23277193 319.375 676.6875 C319.68133362 677.46364655 319.98766724 678.23979309 320.30328369 679.03945923 C325.364187 691.86148639 330.43109711 704.68113346 335.5 717.5 C340.87883271 731.1026553 346.25487444 744.70640471 351.625 758.3125 C351.93149475 759.08904938 352.2379895 759.86559875 352.55377197 760.66567993 C355.00830644 766.88474414 357.46253517 773.103929 359.91674805 779.32312012 C362.06935291 784.77797095 364.22208407 790.23277193 366.375 795.6875 C366.68133362 796.46364655 366.98766724 797.23979309 367.30328369 798.03945923 C372.364187 810.86148639 377.43109711 823.68113346 382.5 836.5 C387.87883271 850.1026553 393.25487444 863.70640471 398.625 877.3125 C398.93149475 878.08904938 399.2379895 878.86559875 399.55377197 879.66567993 C402.00830644 885.88474414 404.46253517 892.103929 406.91674805 898.32312012 C409.06935291 903.77797095 411.22208407 909.23277193 413.375 914.6875 C413.68133362 915.46364655 413.98766724 916.23979309 414.30328369 917.03945923 C419.364187 929.86148639 424.43109711 942.68113346 429.5 955.5 C434.87883271 969.1026553 440.25487444 982.70640471 445.625 996.3125 C445.93149475 997.08904938 446.2379895 997.86559875 446.55377197 998.66567993 C449.00830644 1004.88474414 451.46253517 1011.103929 453.91674805 1017.32312012 C456.06935291 1022.77797095 458.22208407 1028.23277193 460.375 1033.6875 C460.68133362 1034.46364655 460.98766724 1035.23979309 461.30328369 1036.03945923 C466.364187 1048.86148639 471.43109711 1061.68113346 476.5 1074.5 C481.87883271 1088.1026553 487.25487444 1101.70640471 492.625 1115.3125 C493.08474213 1116.47732407 493.08474213 1116.47732407 493.55377197 1117.66567993 C496.00830644 1123.88474414 498.46253517 1130.103929 500.91674805 1136.32312012 C503.06935291 1141.77797095 505.22208407 1147.23277193 507.375 1152.6875 C507.68133362 1153.46364655 507.98766724 1154.23979309 508.30328369 1155.03945923 C513.364187 1167.86148639 518.43109711 1180.68113346 523.5 1193.5 C528.87883271 1207.1026553 534.25487444 1220.70640471 539.625 1234.3125 C540.08474213 1235.47732407 540.08474213 1235.47732407 540.55377197 1236.66567993 C543.00830644 1242.88474414 545.46253517 1249.103929 547.91674805 1255.32312012 C550.06935291 1260.77797095 552.22208407 1266.23277193 554.375 1271.6875 C554.68133362 1272.46364655 554.98766724 1273.23979309 555.30328369 1274.03945923 C559.64650031 1285.04319474 563.99354124 1296.04541361 568.34375 1307.04638672 C569.77411218 1310.66363352 571.2037656 1314.28115917 572.6328125 1317.89892578 C575.82651538 1325.98280863 579.0234355 1334.06532155 582.23931885 1342.14041138 C583.62484587 1345.62058062 585.00729818 1349.10196709 586.3894043 1352.58349609 C587.03680835 1354.21186885 587.68568863 1355.83965561 588.33618164 1357.46679688 C589.23575081 1359.71725248 590.13010478 1361.96971915 591.0234375 1364.22265625 C591.28204559 1364.86562149 591.54065369 1365.50858673 591.80709839 1366.17103577 C593.87430958 1371.40823324 595.36345448 1376.54484827 597 1382 C582.48 1382 567.96 1382 553 1382 C531.40881648 1328.36925223 509.85699833 1274.72448343 488.5 1221 C473.80466303 1184.03367594 459.02561416 1147.1021479 444.17142487 1110.19937515 C433.42348602 1083.49740558 422.70204361 1056.78521031 412.0546875 1030.04296875 C411.8078934 1029.42312119 411.5610993 1028.80327363 411.30682659 1028.16464281 C406.27783385 1015.53317842 401.25350188 1002.8998626 396.23333549 990.26488781 C394.48993131 985.87729013 392.74582664 981.48997103 391.0017128 977.10265541 C389.8262326 974.14457684 388.6520513 971.18598535 387.47799683 968.2273407 C386.74776499 966.38934471 386.01731144 964.5514368 385.28662109 962.71362305 C384.93849806 961.83756503 384.59037502 960.96150702 384.2317028 960.05890179 C382.3343662 955.29879373 380.40939952 950.55130462 378.45489502 945.81436157 C378.0366276 944.79979543 377.61836018 943.78522928 377.18741798 942.73991871 C376.37934396 940.78430295 375.56810063 938.829993 374.75330162 936.87716961 C374.21227019 935.56878234 374.21227019 935.56878234 373.66030884 934.23396301 C373.33909876 933.46285596 373.01788868 932.69174891 372.68694496 931.89727497 C372 930 372 930 372 928 C167.4 928 -37.2 928 -248 928 C-245.65895739 913.95374437 -238.4218796 901.16742189 -233 888 C-38.96 887.67 155.08 887.34 355 887 C342.13063419 853.65664314 329.25731151 820.31560657 316.32666016 786.99609375 C311.98478627 775.80746264 307.64713732 764.61719254 303.30865479 753.42724609 C302.11855546 750.35773763 300.92842919 747.28823962 299.73828125 744.21875 C299.345802 743.20651367 298.95332275 742.19427734 298.5489502 741.15136719 C296.20500296 735.10651406 293.86013664 729.06201841 291.51449585 723.01782227 C282.1845643 698.9765252 272.87925283 674.92588838 263.5980835 650.86572266 C254.86686945 628.23242947 246.10338634 605.61177076 237.32666016 582.99609375 C232.98478627 571.80746264 228.64713732 560.61719254 224.30865479 549.42724609 C223.11855546 546.35773763 221.92842919 543.28823962 220.73828125 540.21875 C220.345802 539.20651367 219.95332275 538.19427734 219.5489502 537.15136719 C217.20500296 531.10651406 214.86013664 525.06201841 212.51449585 519.01782227 C203.1845643 494.9765252 193.87925283 470.92588838 184.5980835 446.86572266 C178.18374496 430.23829787 171.75780627 413.61544618 165.3125 397 C164.73116806 395.50134399 164.73116806 395.50134399 164.13809204 393.97241211 C161.42605496 386.98135181 158.71313783 379.99063317 156 373 C152.89521016 365.0002417 149.79084169 357.00032021 146.6875 349 C146.30018707 348.00154053 145.91287415 347.00308105 145.51382446 345.97436523 C138.52145533 327.94603482 131.55741061 309.90682909 124.5980835 291.86572266 C115.86686945 269.23242947 107.10338634 246.61177076 98.32666016 223.99609375 C93.98478627 212.80746264 89.64713732 201.61719254 85.30865479 190.42724609 C84.11855546 187.35773763 82.92842919 184.28823962 81.73828125 181.21875 C81.345802 180.20651367 80.95332275 179.19427734 80.5489502 178.15136719 C78.20505828 172.10665672 75.86024554 166.06230441 73.5146637 160.01824951 C64.66786621 137.22192879 55.83679316 114.41958349 47.02981949 91.60784912 C46.32610288 89.78523131 45.62220544 87.96268332 44.91830444 86.14013672 C42.34229064 79.46960823 39.76989978 72.7977042 37.20269775 66.1237793 C36.39569261 64.0277365 35.58736667 61.93220178 34.777771 59.8371582 C33.63393991 56.87698326 32.49422109 53.91525668 31.35546875 50.953125 C31.01348953 50.07098328 30.67151031 49.18884155 30.31916809 48.27996826 C30.01170151 47.47762756 29.70423492 46.67528687 29.38745117 45.84863281 C29.11793137 45.14957825 28.84841156 44.45052368 28.57072449 43.73028564 C28 42 28 42 28 40 C26.68 40 25.36 40 24 40 C23.86389313 40.94857124 23.86389313 40.94857124 23.72503662 41.91630554 C22.70940533 46.2359447 21.05091515 50.22686838 19.39941406 54.33911133 C19.02578987 55.27920264 18.65216568 56.21929396 18.26721954 57.18787289 C17.02079745 60.32091317 15.76824758 63.45146537 14.515625 66.58203125 C13.63273315 68.797328 12.75019222 71.01276464 11.86798096 73.22833252 C9.49454323 79.18551658 7.11560496 85.14048964 4.73544312 91.09498978 C3.2456834 94.82255362 1.75796145 98.55092856 0.27075195 102.2795105 C-13.83403224 137.64086095 -28.00418379 172.97554413 -42.25386429 208.27874947 C-51.39599328 230.92841864 -60.5128769 253.58824526 -69.625 276.25 C-70.30128386 277.93168085 -70.30128386 277.93168085 -70.99123001 279.64733505 C-82.00322566 307.03115541 -92.98186601 334.42801311 -103.89453125 361.8515625 C-104.62573559 363.68895241 -104.62573559 363.68895241 -105.37171173 365.5634613 C-110.0916264 377.42501644 -114.80819951 389.28789166 -119.51777744 401.15355492 C-134.80949488 439.67664751 -134.80949488 439.67664751 -140.96875 454.421875 C-148.99411046 473.63515393 -156.5995984 493.01907894 -164.28173828 512.37136841 C-169.05786756 524.40241149 -173.84292296 536.42990537 -178.62890625 548.45703125 C-179.35220816 550.27481614 -179.35220816 550.27481614 -180.09012222 552.12932396 C-189.50799622 575.79471523 -198.98475566 599.43610813 -208.5 623.0625 C-208.86058125 623.95790749 -209.22116249 624.85331497 -209.59267044 625.77585602 C-214.10011502 636.96840576 -218.61126918 648.15945752 -223.12451172 659.34967041 C-225.96937259 666.4033043 -228.81280563 673.45751375 -231.65625 680.51171875 C-231.91977957 681.16549248 -232.18330914 681.8192662 -232.45482445 682.49285126 C-233.77658641 685.77193421 -235.09831928 689.05102888 -236.42001343 692.33013916 C-237.47188839 694.93982558 -238.52383546 697.54948292 -239.57583618 700.15911865 C-263.81809781 760.29703474 -288.00525182 820.45738162 -312.06630707 880.66803741 C-323.67147912 909.70829542 -335.31711039 938.73219579 -346.98067474 967.74905014 C-348.27999234 970.98162415 -349.579134 974.21426882 -350.87823486 977.44692993 C-361.78316404 1004.58121738 -372.71919903 1031.70278052 -383.68733311 1058.81158161 C-387.58347882 1068.44129774 -391.47652272 1078.07226733 -395.36950111 1087.70326424 C-397.32955134 1092.55222308 -399.28978617 1097.40110729 -401.25 1102.25 C-402.04166746 1104.20833301 -402.83333422 1106.16666631 -403.625 1108.125 C-465.3750002 1260.8750005 -465.3750002 1260.8750005 -466.56240845 1263.81227112 C-467.35438252 1265.77136649 -468.14635436 1267.73046276 -468.93832397 1269.68955994 C-470.91276902 1274.5737415 -472.88725239 1279.45790755 -474.86181641 1284.34204102 C-478.89572004 1294.32012661 -482.928926 1304.29849341 -486.9609375 1314.27734375 C-490.54329479 1323.14332306 -494.1274687 1332.00856569 -497.71353149 1340.87304688 C-499.83661757 1346.12160208 -501.95736006 1351.3710941 -504.07577515 1356.62153625 C-505.30679246 1359.67126454 -506.53984025 1362.72016855 -507.77349854 1365.76882935 C-508.33572162 1367.15947613 -508.89705952 1368.55048115 -509.4574585 1369.94186401 C-510.2115035 1371.81374262 -510.96892431 1373.68426034 -511.7265625 1375.5546875 C-512.35425537 1377.10905518 -512.35425537 1377.10905518 -512.99462891 1378.69482422 C-514 1381 -514 1381 -515 1382 C-516.38160115 1382.0927833 -517.76788038 1382.11747043 -519.15258789 1382.11352539 C-520.03342545 1382.11344986 -520.914263 1382.11337433 -521.8217926 1382.11329651 C-522.77907761 1382.10813522 -523.73636261 1382.10297394 -524.72265625 1382.09765625 C-525.69786728 1382.0962413 -526.67307831 1382.09482635 -527.67784119 1382.09336853 C-530.80609143 1382.08775133 -533.93427123 1382.07519593 -537.0625 1382.0625 C-539.17773334 1382.05748722 -541.29296781 1382.05292393 -543.40820312 1382.04882812 C-548.60549296 1382.03777631 -553.80274145 1382.02102146 -559 1382 C-558.74392471 1381.3598143 -558.48784943 1380.7196286 -558.22401428 1380.06004333 C-557.53531625 1378.33829253 -556.84663371 1376.61653552 -556.15795898 1374.89477539 C-555.27997804 1372.69990657 -554.40187997 1370.50508459 -553.52368164 1368.31030273 C-551.22268228 1362.5591756 -548.92271077 1356.80764688 -546.62690735 1351.05444336 C-537.87741412 1329.12939964 -529.04137781 1307.24013089 -520.17333984 1285.36279297 C-516.96575376 1277.44904607 -513.76276649 1269.53343792 -510.55947876 1261.61795044 C-508.78984532 1257.24522225 -507.01990708 1252.87261744 -505.25 1248.5 C-504.54166521 1246.75000059 -503.83333188 1245.00000059 -503.125 1243.25 C-468.0625 1156.625 -433 1070 -39.875 98.75 C-39.52442032 97.88386078 -39.17384064 97.01772156 -38.81263733 96.12533569 C-38.10384956 94.37421537 -37.39505846 92.62309639 -36.68626404 90.87197876 C-34.92235631 86.51413076 -33.1585053 82.15625982 -31.39477539 77.79833984 C-28.12502049 69.71942006 -24.85474538 61.64071216 -21.58248901 53.56280518 C-20.06502895 49.81669783 -18.54788479 46.07046258 -17.03076172 42.32421875 C-16.31916668 40.56731951 -15.60742313 38.81048042 -14.89550781 37.05371094 C-14.56131836 36.2290332 -14.22712891 35.40435547 -13.8828125 34.5546875 C-13.59414307 33.84248047 -13.30547363 33.13027344 -13.00805664 32.39648438 C-8.64268573 21.60884223 -4.32219123 10.80547807 0 0 Z " fill="#000000" transform="translate(5750,171)"/>
<path d="M0 0 C13.2 0 26.4 0 40 0 C40.00238835 4.64841571 40.00477671 9.29683142 40.00723743 14.08610821 C40.0494145 95.51218898 40.09541641 176.9382669 40.15898132 258.36433411 C40.16047467 260.279307 40.16047467 260.279307 40.16199819 262.23296621 C40.18313402 289.30858749 40.20486357 316.38420826 40.22730538 343.45982848 C40.23858017 357.06344265 40.24973784 370.66705692 40.26078469 384.27067128 C40.26245161 386.32255841 40.26412187 388.37444554 40.26579228 390.42633268 C40.29144506 421.97377464 40.3146058 453.52121599 40.33044434 485.06866455 C40.3307842 485.74551372 40.33112406 486.4223629 40.33147423 487.11972265 C40.33693753 498.03057804 40.34218917 508.94143353 40.34741267 519.85228903 C40.3693201 565.6027624 40.40077905 611.35321835 40.44499113 657.1036768 C40.45115248 663.48408373 40.45720311 669.86449075 40.46318626 676.24489784 C40.46436715 677.50053074 40.46554803 678.75616365 40.46676469 680.04984603 C40.48541377 700.18114465 40.49388792 720.31243504 40.49846124 740.44374124 C40.50329073 760.73149276 40.51906754 781.01921319 40.54566566 801.30694803 C40.55975607 812.27935403 40.56919528 823.25171311 40.56500816 834.22412872 C40.22366786 894.68984995 40.22366786 894.68984995 44 955 C44.0912356 955.894724 44.1824712 956.78944801 44.27647151 957.71128486 C47.7555745 991.5412723 52.96737277 1024.93011461 61 1058 C61.42055664 1059.73733398 61.42055664 1059.73733398 61.84960938 1061.50976562 C73.72554286 1109.82620141 92.21690821 1156.94432674 119 1199 C119.70511719 1200.10988281 120.41023438 1201.21976563 121.13671875 1202.36328125 C128.7525485 1214.02646881 137.12733073 1225.26557971 146 1236 C146.79535156 1236.969375 147.59070312 1237.93875 148.41015625 1238.9375 C158.74509072 1251.4154449 169.6732143 1263.46106872 182 1274 C183.03111851 1274.91534972 184.06098757 1275.83210815 185.08984375 1276.75 C253.78620664 1337.51600343 346.71724163 1363.91908756 556.7986908 1373.58984375 C647.1619562 1367.96499203 739.62474246 1345.81765183 856 1251 C858.31091051 1248.31919128 860.53846538 1245.59279139 862.73828125 1242.8203125 C864.73155459 1240.3347454 866.78797709 1237.92161146 868.88012695 1235.51928711 C926.16814945 1169.36902909 953.39022728 1079.46988638 974.31616794 813.7025608 C974.31791464 802.87905181 974.33137616 792.05556422 974.3450741 781.23206488 C974.37002658 761.26748323 974.38599984 741.30290423 974.39665604 721.33831024 C974.40722013 701.60261217 974.42189766 681.86692403 974.44193649 662.13123322 C974.44318536 660.89902278 974.44443423 659.66681234 974.44572094 658.3972622 C974.45208567 652.1381763 974.45852261 645.87909048 974.46498732 639.62000468 C974.51051533 595.41480648 974.54702029 551.20960504 974.578125 507.00439453 C974.58564966 496.31793208 974.59320331 485.63146966 974.60089111 474.94500732 C974.60136796 474.28211762 974.60184481 473.61922791 974.60233611 472.93625064 C974.6246003 442.046933 974.65202097 411.15762054 974.68074883 380.26830832 C974.68261668 378.25982661 974.68448231 376.25134491 974.6863475 374.2428632 C974.69871304 360.93113707 974.71116716 347.61941102 974.72367998 334.30768502 C974.74916271 307.19594817 974.77408797 280.08421082 974.79867554 252.97247314 C974.79980645 251.72622327 974.80093736 250.4799734 974.80210253 249.19595838 C974.87741628 166.1306465 974.9395884 83.06532388 975 0 C987.87 0 1000.74 0 1014 0 C1014.05123564 86.58401077 1014.09916261 173.16802283 1014.12702942 259.75204468 C1014.12744359 261.0356039 1014.12785776 262.31916313 1014.12828448 263.64161809 C1014.13704657 290.86396883 1014.14520492 318.08631973 1014.15263903 345.30867086 C1014.15637484 358.98606357 1014.16022974 372.66345625 1014.16419732 386.3408489 C1014.16479508 388.40386073 1014.16538943 390.46687256 1014.16598364 392.5298844 C1014.17514917 424.24732217 1014.18684822 455.96475648 1014.20599365 487.68218994 C1014.20640435 488.36265502 1014.20681505 489.04312009 1014.20723819 489.74420532 C1014.2138742 500.71330715 1014.22072545 511.68240885 1014.22760532 522.65151053 C1014.25645027 568.64882068 1014.2755806 614.64612224 1014.28174497 660.64344231 C1014.28260931 667.05866508 1014.28358621 673.47388783 1014.28463173 679.88911057 C1014.284834 681.1515918 1014.28503627 682.41407303 1014.28524467 683.71481127 C1014.28877574 703.95378218 1014.30265165 724.19273312 1014.3204961 744.43169592 C1014.33825596 764.8292332 1014.34487958 785.22675088 1014.34050413 805.62429561 C1014.3384376 816.65556723 1014.34109369 827.68678535 1014.35761642 838.71804619 C1014.48186666 925.02996296 1014.48186666 925.02996296 1011 961 C1010.84417998 962.64635861 1010.68838374 964.29271946 1010.53260934 965.93908238 C1002.24159892 1052.52483728 981.34823998 1138.30384874 903 1260 C902.21753906 1260.96679688 901.43507813 1261.93359375 900.62890625 1262.9296875 C893.87015539 1271.17731161 886.45349528 1278.76157547 878.9375 1286.3125 C878.43088837 1286.82428802 877.92427673 1287.33607605 877.40231323 1287.8633728 C870.60502148 1294.71534073 863.56294713 1300.98495628 856 1307 C854.97243943 1307.86337571 853.94903936 1308.73178251 852.93359375 1309.609375 C782.65173256 1369.88239524 689.85428808 1397.6298028 528.09375 1413.203125 C526.52988662 1413.21015178 524.9660235 1413.21723855 523.40216064 1413.22438049 C518.43476948 1413.24375987 513.46742516 1413.24881479 508.5 1413.25 C507.22860924 1413.25066278 507.22860924 1413.25066278 505.93153381 1413.25133896 C479.50797483 1413.25855757 453.29463575 1412.84423818 427 1410 C425.33839863 1409.82647117 423.67677705 1409.65313585 422.01513672 1409.47998047 C335.75759158 1400.3512769 245.93259469 1375.54572113 172.68310547 1318.33349609 C170.56052619 1316.65181231 168.40462565 1315.01532079 166.25 1313.375 C148.5851763 1299.5341707 131.52174531 1284.13205903 117 1267 C116.19046875 1266.06800781 115.3809375 1265.13601563 114.546875 1264.17578125 C98.74611339 1245.89680702 84.98764981 1225.96864111 73 1205 C72.55720703 1204.2280127 72.11441406 1203.45602539 71.65820312 1202.66064453 C31.61607854 1132.3397529 13.04962907 1052.53914019 -0.24453239 867.64657522 C-0.23749145 862.99881566 -0.24243739 858.35106354 -0.24568737 853.70330185 C-0.24978394 845.60339483 -0.24663608 837.50351756 -0.23841095 829.40361404 C-0.22621544 817.35982925 -0.22575082 805.31606274 -0.22749493 793.27227289 C-0.2301078 773.00131411 -0.22349712 752.73036849 -0.21146011 732.45941353 C-0.1995886 712.41535947 -0.19192069 692.37131089 -0.18975449 672.32725334 C-0.18961701 671.0766767 -0.18947953 669.82610006 -0.18933788 668.53762715 C-0.18866113 662.18547594 -0.18805839 655.83332473 -0.18748413 649.48117351 C-0.18329359 604.59657615 -0.16984928 559.7119856 -0.15087891 514.82739258 C-0.14629514 503.97226972 -0.14174421 493.11714685 -0.1373291 482.26202393 C-0.1370552 481.58868976 -0.1367813 480.9153556 -0.13649911 480.22161737 C-0.12378567 448.85694441 -0.11635163 417.49227083 -0.11025951 386.12759596 C-0.10986339 384.08868766 -0.109465 382.04977936 -0.10906615 380.01087106 C-0.10642634 366.49770271 -0.10387709 352.98453435 -0.10138843 339.47136598 C-0.09631884 311.94835338 -0.09067476 284.4253409 -0.08468628 256.90232849 C-0.0844117 255.63712081 -0.08413712 254.37191313 -0.08385422 253.06836583 C-0.06548151 168.71224087 -0.03363983 84.35612006 0 0 Z " fill="#000000" transform="translate(2451,171)"/>
<path d="M0 0 C13.2 0 26.4 0 40 0 C45.62928575 17.37274863 50.81502045 34.85415476 55.89691544 52.39211273 C57.04120789 56.33840967 58.18894346 60.28370458 59.33666992 64.22900391 C59.68808029 65.43697695 59.68808029 65.43697695 60.04658985 66.66935349 C60.52447659 68.31201466 61.00238229 69.95467032 61.48030663 71.59732056 C62.20644926 74.09345848 62.93226489 76.58969132 63.65803528 79.0859375 C68.45626445 95.58579277 73.29180138 112.07463588 78.13327789 128.56184387 C80.20669582 135.62306779 82.27910808 142.68458699 84.3515625 149.74609375 C84.58256023 150.53313313 84.81355797 151.3201725 85.05155563 152.13106155 C90.10980086 169.36590056 95.15418947 186.60478674 100.19741821 203.84402466 C109.32541808 235.04611911 118.46830767 266.2438134 127.625 297.4375 C127.90921562 298.40572441 128.19343124 299.37394882 128.48625946 300.37151337 C131.03603726 309.05763446 133.58593628 317.74371996 136.13592529 326.42977905 C142.43028209 347.87064515 148.71970225 369.31295873 155.00878906 390.75537109 C155.67814459 393.03751007 156.34750039 395.31964896 157.01685715 397.60178757 C157.46073038 399.11515602 157.90460093 400.62852526 158.34846878 402.14189529 C161.47495772 412.80163538 164.60229823 423.4611253 167.73023224 434.12044144 C177.64428449 467.9057458 187.54667434 501.69442821 197.43360901 535.48767853 C205.81708051 564.14163208 214.21612261 592.79099213 222.625 621.4375 C222.90951019 622.40675541 223.19402039 623.37601082 223.4871521 624.3746376 C226.03963847 633.07029606 228.59224708 641.76591864 231.14498901 650.46150208 C236.49399925 668.68222606 241.84181023 686.90330155 247.1875 705.125 C247.40925274 705.88086395 247.63100548 706.63672791 247.859478 707.41549683 C255.39578899 733.10407665 262.9172061 758.7970003 270.4346199 784.49111557 C278.81777568 813.14391724 287.21645895 841.79213796 295.625 870.4375 C295.90951019 871.40675541 296.19402039 872.37601082 296.4871521 873.3746376 C299.03963847 882.07029606 301.59224708 890.76591864 304.14498901 899.46150208 C309.49399925 917.68222606 314.84181023 935.90330155 320.1875 954.125 C320.40925274 954.88086395 320.63100548 955.63672791 320.859478 956.41549683 C328.39399984 982.09797806 335.91365365 1007.78479561 343.42926407 1033.47281647 C352.06409477 1062.9859151 360.71499393 1092.49427898 369.375 1122 C369.65844143 1122.96576336 369.94188286 1123.93152672 370.23391342 1124.92655563 C370.51301685 1125.87753757 370.79212029 1126.82851952 371.0796814 1127.80831909 C371.49320563 1129.2173231 371.49320563 1129.2173231 371.91508389 1130.65479183 C372.46316118 1132.52204535 373.01133042 1134.38927189 373.55959415 1136.25647068 C374.87847707 1140.74821777 376.19624689 1145.24028371 377.51124573 1149.73316956 C379.73954572 1157.34133212 381.97625108 1164.9462889 384.26827812 1172.53553772 C385.22279617 1175.69712229 386.17090459 1178.86061391 387.11876297 1182.02420044 C387.55896704 1183.485944 388.00260439 1184.94665888 388.44999313 1186.40621948 C389.06066484 1188.39855342 389.65964481 1190.39407085 390.25634766 1192.390625 C390.76423325 1194.0617334 390.76423325 1194.0617334 391.28237915 1195.76660156 C392.59481221 1201.68005714 392.09784047 1206.55362123 390.34765625 1212.30249023 C389.98728271 1213.50320663 389.62690918 1214.70392303 389.25561523 1215.94102478 C388.85811832 1217.23027864 388.46040833 1218.51946681 388.0625 1219.80859375 C387.65809168 1221.14354857 387.25454042 1222.47876329 386.85180664 1223.81422424 C385.79502373 1227.3102437 384.72671173 1230.8026336 383.65588379 1234.29437256 C382.56302446 1237.86533566 381.48121104 1241.43964043 380.3984375 1245.01367188 C378.27636503 1252.01241405 376.14209025 1259.00735531 374 1266 C373.34 1266 372.68 1266 372 1266 C363.69106481 1238.94103379 355.68788836 1211.79456342 347.75 1184.625 C347.49539379 1183.75358746 347.24078758 1182.88217491 346.97846603 1181.98435593 C345.93295735 1178.40593927 344.88751713 1174.8275026 343.84208202 1171.24906445 C343.31148106 1169.43286213 342.78087413 1167.61666157 342.25026131 1165.80046272 C341.71490205 1163.96799462 341.17956663 1162.13551956 340.64425468 1160.30303764 C334.89965945 1140.63946907 329.12451048 1120.98493615 323.34098816 1101.33278656 C322.55990532 1098.67868332 321.77890372 1096.02455619 320.9979248 1093.37042236 C318.90315857 1086.2515034 316.80825326 1079.13262538 314.71298218 1072.01385498 C311.05598905 1059.58906465 307.40046781 1047.16384214 303.74609375 1034.73828125 C303.48839769 1033.86206808 303.23070164 1032.98585491 302.96519661 1032.08308983 C301.66394138 1027.65855888 300.36271147 1023.23402049 299.06149292 1018.80947876 C296.71824322 1010.84175654 294.37476905 1002.87410034 292.03131294 994.90643883 C290.72919954 990.47929522 289.42710049 986.0521474 288.125 981.625 C287.60416674 979.85416665 287.0833334 978.08333331 286.5625 976.3125 C260.78125 888.65625 235 801 183.4375 625.6875 C183.17968813 624.8109397 182.92187626 623.93437941 182.65625191 623.03125668 C182.13541208 621.26040113 181.61457239 619.48954554 181.09373283 617.71868992 C179.79175001 613.2919461 178.4897648 608.86520298 177.18777466 604.4384613 C174.84282187 596.46565791 172.49788593 588.49284956 170.15303993 580.52001476 C168.84943435 576.08755843 167.54581466 571.65510624 166.2421875 567.22265625 C165.98413204 566.3452434 165.72607658 565.46783054 165.46020126 564.56382942 C161.83823671 552.24891136 158.21548768 539.9342243 154.59223175 527.61968613 C143.26328053 489.11494611 131.94674002 450.60659684 120.64717102 412.09322357 C112.23267332 383.4135006 103.81009174 354.73617305 95.375 326.0625 C95.11889954 325.19192963 94.86279907 324.32135925 94.59893799 323.42440796 C92.27818323 315.53550352 89.95726026 307.64664858 87.63616943 299.75784302 C84.00936052 287.43121281 80.38330544 275.10436107 76.7578125 262.77734375 C76.49976711 261.89996614 76.24172173 261.02258854 75.97585678 260.11862373 C74.67206559 255.68560204 73.36828704 251.25257663 72.06451416 246.81954956 C69.72012247 238.84828176 67.37561886 230.87704689 65.03112411 222.9058094 C63.7290782 218.47887427 62.42703946 214.05193703 61.125 209.625 C60.6041667 207.85416666 60.08333337 206.08333332 59.5625 204.3125 C56.43749982 193.68749938 56.43749982 193.68749938 55.65623379 191.03119469 C55.13545463 189.26054569 54.61467534 187.48989673 54.09389591 185.71924782 C52.79098251 181.28934447 51.4880715 176.85944041 50.18516541 172.42953491 C47.85132994 164.49445849 45.51747873 156.55938671 43.18353558 148.62434196 C41.8944804 144.24175236 40.60543959 139.85915853 39.31640625 135.4765625 C39.06065889 134.60704578 38.80491154 133.73752907 38.54141426 132.84166336 C34.98605875 120.75369032 31.43137384 108.66552023 27.87716675 96.57720947 C25.8870053 89.80842829 23.89666132 83.03970078 21.90627861 76.27098465 C20.29832483 70.80273721 18.69060542 65.33442094 17.0830822 59.86604691 C16.08622527 56.47523622 15.08910887 53.08450186 14.09195328 49.69377899 C13.38249765 47.28097134 12.67340748 44.86805648 11.96432495 42.45513916 C9.82693257 35.18515378 7.6812574 27.91783494 5.51220703 20.65722656 C5.12955297 19.37436194 4.74690802 18.09149459 4.36427307 16.80862427 C3.66581305 14.46990267 2.96506573 12.13186243 2.26158142 9.79464722 C1.96006668 8.78491852 1.65855194 7.77518982 1.34790039 6.73486328 C1.08554092 5.86161407 0.82318146 4.98836487 0.5528717 4.08865356 C0 2 0 2 0 0 Z " fill="#000000" transform="translate(3546,171)"/>
</svg>
