<svg id="svg" version="1.1" xmlns="http://www.w3.org/2000/svg" xmlns:xlink="http://www.w3.org/1999/xlink" width="400" height="106.3809967396367" viewBox="0, 0, 400,106.3809967396367"><g id="svgg"><path id="path0" d="M35.048 8.679 C 18.634 9.725,9.331 17.675,9.334 30.653 C 9.336 40.809,14.478 46.849,26.083 50.327 C 27.608 50.783,38.265 53.397,43.083 54.496 C 43.908 54.684,44.883 54.908,45.250 54.993 C 45.617 55.078,46.667 55.310,47.583 55.508 C 50.693 56.180,53.571 57.000,55.000 57.620 C 64.414 61.707,68.167 66.709,68.167 75.173 C 68.167 84.753,61.365 92.286,50.500 94.741 C 49.813 94.896,48.950 95.093,48.583 95.177 C 42.511 96.583,32.115 95.958,25.750 93.804 C 15.502 90.337,9.333 81.190,9.333 69.465 L 9.333 67.833 7.976 67.833 L 6.619 67.833 6.731 69.708 C 7.637 84.852,14.134 93.394,27.333 96.799 C 43.686 101.016,60.676 96.786,67.367 86.831 C 71.613 80.515,71.839 69.955,67.859 63.917 C 64.338 58.576,60.111 56.296,47.750 53.073 C 46.100 52.643,43.925 52.075,42.917 51.811 C 41.908 51.547,39.621 50.994,37.833 50.581 C 36.046 50.168,34.283 49.757,33.917 49.668 C 33.550 49.578,32.575 49.353,31.750 49.167 C 17.831 46.030,11.943 40.561,11.923 30.750 C 11.917 27.513,11.994 26.909,12.704 24.667 C 15.669 15.297,27.849 9.888,42.890 11.260 C 57.490 12.592,64.923 19.389,66.345 32.708 L 66.554 34.667 67.777 34.667 C 68.450 34.667,69.000 34.610,69.000 34.542 C 68.998 33.089,68.308 28.512,67.825 26.750 C 67.167 24.348,65.093 19.832,64.343 19.167 C 64.291 19.121,64.044 18.783,63.793 18.417 C 59.074 11.511,48.231 7.838,35.048 8.679 M108.960 11.792 C 108.715 12.410,107.770 14.754,106.860 17.000 C 105.331 20.775,103.853 24.429,99.714 34.667 C 98.843 36.821,97.798 39.408,97.393 40.417 C 96.987 41.425,96.546 42.486,96.411 42.775 C 96.277 43.064,96.167 43.353,96.167 43.417 C 96.167 43.481,96.058 43.769,95.926 44.058 C 95.678 44.601,94.698 47.009,92.560 52.333 C 91.879 54.029,91.251 55.567,91.163 55.750 C 91.075 55.933,90.524 57.283,89.937 58.750 C 89.351 60.217,88.157 63.179,87.285 65.333 C 86.412 67.487,84.835 71.387,83.780 74.000 C 82.724 76.612,81.473 79.688,81.000 80.833 C 80.526 81.979,80.002 83.292,79.834 83.750 C 79.666 84.208,78.954 85.971,78.250 87.667 C 77.546 89.362,76.834 91.125,76.668 91.583 C 76.501 92.042,76.127 92.979,75.837 93.667 C 75.547 94.354,75.171 95.276,75.001 95.715 L 74.694 96.513 76.110 96.465 L 77.527 96.417 78.324 94.417 C 79.868 90.547,81.878 85.576,82.167 84.917 C 82.328 84.550,82.734 83.537,83.069 82.667 C 83.404 81.796,83.748 80.933,83.832 80.750 C 84.018 80.345,84.058 80.246,86.414 74.417 C 87.451 71.850,88.380 69.563,88.478 69.333 C 88.576 69.104,89.411 67.004,90.334 64.667 C 91.257 62.329,92.122 60.180,92.256 59.891 C 92.390 59.603,92.500 59.314,92.500 59.250 C 92.500 59.186,92.610 58.897,92.745 58.609 C 92.880 58.320,94.668 53.883,96.718 48.750 C 98.768 43.617,100.492 39.304,100.549 39.167 C 100.606 39.029,102.962 33.163,105.784 26.130 C 108.607 19.098,110.983 13.337,111.065 13.330 C 111.147 13.322,111.543 14.163,111.945 15.199 C 112.348 16.235,113.128 18.246,113.678 19.667 C 114.229 21.087,114.751 22.400,114.839 22.583 C 114.926 22.767,115.405 24.004,115.903 25.333 C 117.224 28.859,118.315 31.702,118.495 32.083 C 118.582 32.267,119.023 33.392,119.475 34.583 C 119.927 35.775,120.953 38.438,121.755 40.500 C 122.557 42.563,123.541 45.112,123.942 46.167 C 124.343 47.221,124.743 48.233,124.830 48.417 C 124.918 48.600,125.356 49.725,125.805 50.917 C 126.876 53.764,130.923 64.194,131.414 65.374 C 131.529 65.650,130.572 65.667,113.242 65.708 L 94.949 65.750 94.476 66.917 C 94.215 67.558,94.001 68.102,94.001 68.124 C 94.000 68.147,102.669 68.184,113.263 68.208 L 132.527 68.250 133.354 70.333 C 133.809 71.479,134.282 72.642,134.405 72.917 C 134.528 73.192,135.727 76.192,137.071 79.583 C 138.414 82.975,139.584 85.900,139.670 86.083 C 139.756 86.267,140.723 88.667,141.819 91.417 L 143.812 96.417 145.253 96.465 C 146.046 96.492,146.660 96.454,146.617 96.382 C 146.530 96.235,145.433 93.457,144.261 90.417 C 143.837 89.317,143.421 88.267,143.335 88.083 C 143.113 87.606,142.456 85.945,141.390 83.167 C 140.881 81.837,140.363 80.525,140.240 80.250 C 140.117 79.975,139.443 78.287,138.743 76.500 C 138.043 74.712,136.833 71.637,136.052 69.667 C 135.272 67.696,134.012 64.508,133.250 62.583 C 132.489 60.658,131.154 57.283,130.282 55.083 C 129.411 52.883,128.351 50.183,127.927 49.083 C 127.504 47.983,127.086 46.933,127.000 46.750 C 126.913 46.567,126.688 46.004,126.500 45.500 C 126.312 44.996,126.087 44.433,126.000 44.250 C 125.914 44.067,125.496 43.017,125.072 41.917 C 124.345 40.029,123.652 38.272,119.916 28.833 C 115.974 18.873,114.524 15.187,114.244 14.417 C 114.078 13.958,113.893 13.508,113.832 13.417 C 113.771 13.325,113.547 12.762,113.333 12.167 C 112.781 10.622,112.850 10.667,111.016 10.667 L 109.405 10.667 108.960 11.792 M151.667 39.567 C 151.667 70.043,151.675 70.434,152.424 74.500 C 154.453 85.515,159.188 91.813,168.500 95.884 C 174.491 98.502,186.016 99.117,193.583 97.220 C 205.048 94.348,211.684 86.873,213.901 74.333 C 214.653 70.079,214.667 69.462,214.667 39.277 L 214.667 10.667 213.423 10.667 L 212.180 10.667 212.123 40.208 C 212.079 62.858,212.018 70.022,211.858 70.917 C 211.744 71.558,211.498 72.946,211.311 74.000 C 210.596 78.038,209.426 81.319,207.624 84.333 C 205.308 88.210,202.062 91.221,198.333 92.952 C 196.739 93.692,196.377 93.838,195.167 94.230 C 186.933 96.897,175.854 96.441,168.333 93.126 C 167.589 92.798,164.990 91.284,164.504 90.896 C 158.772 86.313,155.848 80.637,154.555 71.583 C 154.295 69.767,154.264 66.873,154.213 40.125 L 154.158 10.667 152.912 10.667 L 151.667 10.667 151.667 39.567 M219.667 10.753 C 219.667 10.809,219.777 11.206,219.911 11.635 C 220.212 12.593,221.763 17.838,222.781 21.333 C 223.597 24.136,223.866 25.053,224.250 26.333 C 224.525 27.251,224.687 27.798,225.552 30.750 C 225.874 31.850,226.490 33.950,226.921 35.417 C 227.351 36.883,227.807 38.440,227.935 38.875 C 228.062 39.310,228.279 40.042,228.417 40.500 C 229.060 42.646,229.210 43.156,229.495 44.167 C 229.791 45.221,229.963 45.808,231.354 50.500 C 231.721 51.737,232.163 53.237,232.336 53.833 C 232.509 54.429,232.995 56.079,233.417 57.500 C 233.838 58.921,234.325 60.571,234.499 61.167 C 234.672 61.762,235.048 63.038,235.333 64.000 C 235.619 64.962,236.005 66.275,236.192 66.917 C 236.379 67.558,236.599 68.308,236.682 68.583 C 237.120 70.031,238.411 74.409,239.091 76.750 C 239.916 79.590,240.185 80.505,240.583 81.833 C 240.963 83.100,241.326 84.335,241.563 85.167 C 242.841 89.658,242.812 89.611,243.270 87.983 C 244.120 84.957,244.100 85.360,243.499 83.333 C 243.323 82.737,242.722 80.675,242.165 78.750 C 240.783 73.979,240.050 71.493,239.830 70.833 C 239.754 70.604,239.541 69.892,239.357 69.250 C 238.729 67.056,237.623 63.251,237.129 61.583 C 236.343 58.931,236.163 58.318,235.833 57.167 C 235.663 56.571,235.413 55.708,235.279 55.250 C 234.175 51.487,233.803 50.221,233.416 48.917 C 233.034 47.625,232.571 46.046,231.586 42.667 C 231.466 42.254,231.088 40.979,230.746 39.833 C 230.405 38.688,230.065 37.525,229.991 37.250 C 229.917 36.975,229.745 36.375,229.609 35.917 C 229.357 35.068,228.316 31.527,227.919 30.167 C 227.798 29.754,227.499 28.742,227.254 27.917 C 227.009 27.092,226.393 24.992,225.886 23.250 C 224.625 18.923,224.536 18.618,224.250 17.667 C 223.726 15.918,223.511 15.182,222.888 13.000 L 222.245 10.750 220.956 10.701 C 220.247 10.675,219.667 10.698,219.667 10.753 M356.334 11.042 C 356.246 11.248,355.826 12.279,355.401 13.333 C 354.976 14.387,354.007 16.787,353.249 18.667 C 352.491 20.546,351.067 24.071,350.084 26.500 C 346.881 34.417,345.222 38.528,343.929 41.750 C 343.229 43.492,342.588 45.067,342.504 45.250 C 342.419 45.433,342.080 46.258,341.749 47.083 C 341.419 47.908,341.049 48.808,340.927 49.083 C 340.805 49.358,340.431 50.296,340.096 51.167 C 339.762 52.038,339.419 52.900,339.335 53.083 C 339.156 53.472,339.091 53.632,337.229 58.250 C 336.453 60.175,335.749 61.900,335.665 62.083 C 335.580 62.267,334.868 64.029,334.081 66.000 C 333.295 67.971,332.582 69.733,332.498 69.917 C 332.414 70.100,331.701 71.862,330.915 73.833 C 330.128 75.804,329.415 77.567,329.331 77.750 C 329.247 77.933,328.535 79.696,327.748 81.667 C 326.961 83.637,326.249 85.400,326.165 85.583 C 326.080 85.767,325.368 87.529,324.581 89.500 C 323.795 91.471,323.084 93.233,323.002 93.417 C 322.604 94.305,321.833 96.259,321.833 96.379 C 321.833 96.453,322.447 96.492,323.197 96.465 L 324.562 96.417 325.247 94.750 C 325.625 93.833,326.215 92.371,326.560 91.500 C 326.905 90.629,327.253 89.767,327.335 89.583 C 327.417 89.400,327.754 88.575,328.084 87.750 C 328.414 86.925,328.783 86.025,328.904 85.750 C 329.025 85.475,329.262 84.875,329.431 84.417 C 329.599 83.958,329.833 83.396,329.951 83.167 C 330.068 82.938,330.165 82.686,330.166 82.609 C 330.166 82.531,330.275 82.231,330.408 81.942 C 330.541 81.653,330.919 80.742,331.249 79.917 C 331.580 79.092,331.920 78.267,332.005 78.083 C 332.091 77.900,332.792 76.175,333.563 74.250 C 334.335 72.325,335.046 70.563,335.144 70.333 C 335.242 70.104,336.077 68.004,336.998 65.667 C 337.919 63.329,338.744 61.267,338.831 61.083 C 338.918 60.900,339.294 59.962,339.667 59.000 C 340.039 58.038,340.414 57.100,340.499 56.917 C 340.585 56.733,340.924 55.908,341.252 55.083 C 341.581 54.258,341.918 53.433,342.001 53.250 C 342.084 53.067,343.282 50.067,344.663 46.583 C 346.045 43.100,347.247 40.100,347.334 39.917 C 347.422 39.733,349.184 35.346,351.249 30.167 C 353.315 24.988,355.076 20.600,355.163 20.417 C 355.250 20.233,355.842 18.771,356.479 17.167 C 358.118 13.035,358.082 13.111,358.279 13.366 C 358.371 13.486,358.755 14.408,359.132 15.417 C 359.966 17.648,361.353 21.252,363.171 25.917 C 365.876 32.855,366.362 34.110,367.010 35.833 C 367.372 36.796,367.743 37.733,367.834 37.917 C 367.924 38.100,368.408 39.337,368.908 40.667 C 370.621 45.216,371.338 47.084,371.501 47.417 C 371.591 47.600,371.961 48.538,372.324 49.500 C 372.687 50.462,373.277 52.000,373.636 52.917 C 373.995 53.833,375.051 56.571,375.982 59.000 C 376.913 61.429,377.744 63.567,377.830 63.750 C 378.124 64.381,378.500 65.374,378.500 65.520 C 378.500 65.603,370.621 65.667,360.268 65.667 L 342.035 65.667 341.601 66.752 C 341.362 67.349,341.167 67.911,341.167 68.002 C 341.167 68.110,347.819 68.168,360.375 68.170 L 379.583 68.174 380.148 69.629 C 380.459 70.429,380.843 71.383,381.002 71.750 C 381.284 72.404,384.148 79.576,386.159 84.667 C 386.721 86.087,387.281 87.475,387.404 87.750 C 387.527 88.025,388.365 90.106,389.266 92.375 L 390.905 96.500 392.303 96.500 C 393.570 96.500,393.691 96.472,393.584 96.208 C 393.519 96.048,393.280 95.429,393.053 94.833 C 392.327 92.926,390.160 87.428,389.999 87.083 C 389.913 86.900,389.425 85.662,388.913 84.333 C 387.898 81.694,387.069 79.605,386.829 79.083 C 386.745 78.900,386.331 77.850,385.908 76.750 C 384.814 73.899,384.005 71.854,383.668 71.083 C 383.507 70.717,383.211 69.967,383.008 69.417 C 382.806 68.867,381.777 66.242,380.722 63.583 C 378.533 58.071,375.642 50.746,374.637 48.167 C 374.262 47.204,373.856 46.192,373.735 45.917 C 373.614 45.642,373.096 44.329,372.583 43.000 C 371.547 40.315,370.729 38.256,370.496 37.750 C 370.412 37.567,369.996 36.517,369.573 35.417 C 368.843 33.522,367.645 30.485,364.084 21.500 C 363.230 19.346,362.108 16.496,361.591 15.167 C 361.073 13.838,360.552 12.525,360.433 12.250 C 360.314 11.975,360.121 11.506,360.005 11.208 L 359.793 10.667 358.143 10.667 C 356.590 10.667,356.483 10.689,356.334 11.042 " stroke="none" fill="#fcfcfc" fill-rule="evenodd"></path><path id="path1" d="M386.122 8.671 C 381.687 9.791,380.153 15.625,383.480 18.720 C 386.501 21.530,391.233 20.697,393.034 17.039 C 395.221 12.598,390.966 7.448,386.122 8.671 M389.594 9.982 C 394.404 12.166,392.932 19.339,387.676 19.332 C 382.390 19.325,380.807 12.315,385.583 10.063 C 386.658 9.556,388.572 9.517,389.594 9.982 M270.944 10.292 C 270.871 10.413,270.552 11.413,270.069 13.042 C 269.939 13.477,269.727 14.190,269.598 14.625 C 269.468 15.060,269.099 16.317,268.778 17.417 C 268.114 19.688,266.620 24.669,266.229 25.913 C 266.086 26.369,265.561 28.132,265.064 29.830 C 264.566 31.528,264.092 33.104,264.009 33.333 C 263.926 33.563,263.697 34.313,263.500 35.000 C 263.303 35.688,263.078 36.438,263.000 36.667 C 262.922 36.896,262.545 38.171,262.162 39.500 C 261.779 40.829,261.363 42.232,261.237 42.618 C 261.037 43.232,260.245 45.887,259.581 48.167 C 259.461 48.579,258.862 50.567,258.251 52.583 C 257.639 54.600,257.040 56.587,256.919 57.000 C 256.798 57.413,256.505 58.406,256.266 59.208 C 256.028 60.010,255.638 61.323,255.400 62.125 C 255.162 62.927,254.867 63.921,254.746 64.333 C 254.624 64.746,254.286 65.871,253.996 66.833 C 253.466 68.589,253.200 69.485,252.768 70.958 C 252.641 71.394,251.738 74.412,250.762 77.667 C 249.787 80.921,248.835 84.108,248.648 84.750 C 248.462 85.392,248.241 86.104,248.159 86.333 C 248.076 86.563,247.812 87.425,247.571 88.250 C 246.925 90.467,246.422 92.170,245.677 94.667 C 245.389 95.629,245.122 96.510,245.082 96.625 C 245.028 96.783,245.445 96.833,246.819 96.833 L 248.628 96.833 248.993 95.542 C 249.194 94.831,249.465 93.894,249.596 93.458 C 249.726 93.023,249.939 92.310,250.067 91.875 C 250.196 91.440,250.676 89.846,251.133 88.333 C 252.179 84.875,255.236 74.637,255.686 73.083 C 255.873 72.442,256.089 71.729,256.167 71.500 C 256.245 71.271,256.472 70.521,256.672 69.833 C 256.871 69.146,257.131 68.283,257.250 67.917 C 257.368 67.550,257.707 66.425,258.002 65.417 C 258.297 64.408,259.246 61.221,260.111 58.333 C 260.976 55.446,261.835 52.558,262.021 51.917 C 262.206 51.275,262.422 50.563,262.500 50.333 C 262.578 50.104,262.806 49.354,263.007 48.667 C 263.207 47.979,263.544 46.854,263.755 46.167 C 263.966 45.479,264.293 44.392,264.481 43.750 C 264.822 42.585,268.305 30.920,268.736 29.500 C 268.861 29.087,269.127 28.188,269.327 27.500 C 269.528 26.813,269.755 26.063,269.833 25.833 C 269.911 25.604,270.136 24.854,270.333 24.167 C 270.530 23.479,270.755 22.729,270.833 22.500 C 270.911 22.271,271.127 21.558,271.312 20.917 C 272.549 16.626,273.167 14.772,273.167 15.347 C 273.167 15.477,273.383 16.258,273.648 17.083 C 273.913 17.908,274.284 19.108,274.473 19.750 C 274.661 20.392,275.127 21.929,275.507 23.167 C 275.888 24.404,276.298 25.754,276.417 26.167 C 276.537 26.579,277.475 29.654,278.501 33.000 C 279.528 36.346,280.467 39.421,280.587 39.833 C 280.708 40.246,280.969 41.108,281.167 41.750 C 281.365 42.392,281.625 43.254,281.746 43.667 C 281.868 44.079,282.319 45.542,282.749 46.917 C 283.179 48.292,283.629 49.754,283.749 50.167 C 284.507 52.773,284.902 54.092,285.320 55.417 C 285.580 56.242,286.033 57.704,286.327 58.667 C 286.620 59.629,287.115 61.242,287.425 62.250 C 288.539 65.866,289.373 68.597,289.601 69.375 C 289.729 69.810,289.938 70.523,290.065 70.958 C 290.192 71.394,290.484 72.350,290.714 73.083 C 290.943 73.817,291.369 75.204,291.661 76.167 C 291.952 77.129,292.401 78.592,292.658 79.417 C 292.916 80.242,293.353 81.667,293.630 82.583 C 293.906 83.500,294.372 85.037,294.665 86.000 C 294.958 86.962,295.296 88.087,295.416 88.500 C 295.535 88.912,295.984 90.375,296.412 91.750 C 296.840 93.125,297.354 94.813,297.554 95.500 L 297.917 96.750 300.000 96.794 L 302.083 96.839 302.737 94.544 C 303.097 93.282,303.571 91.612,303.791 90.833 C 304.012 90.054,304.291 89.079,304.413 88.667 C 304.692 87.719,305.427 85.191,305.550 84.750 C 305.602 84.567,305.755 84.042,305.891 83.583 C 306.027 83.125,306.637 81.025,307.248 78.917 C 308.600 74.251,309.667 70.578,310.444 67.917 C 310.764 66.817,311.251 65.129,311.526 64.167 C 311.800 63.204,312.125 62.079,312.247 61.667 C 312.370 61.254,312.972 59.192,313.584 57.083 C 314.197 54.975,314.808 52.875,314.943 52.417 C 315.079 51.958,315.231 51.433,315.283 51.250 C 315.657 49.918,317.691 42.889,318.417 40.417 C 318.659 39.592,319.345 37.229,319.940 35.167 C 320.536 33.104,321.349 30.292,321.748 28.917 C 322.147 27.542,322.820 25.217,323.245 23.750 C 323.670 22.283,324.432 19.658,324.939 17.917 C 325.445 16.175,326.120 13.850,326.438 12.750 C 326.756 11.650,327.055 10.619,327.103 10.458 C 327.181 10.194,327.028 10.167,325.447 10.167 C 323.934 10.167,323.694 10.205,323.614 10.458 C 323.564 10.619,323.412 11.125,323.278 11.583 C 323.143 12.042,322.832 13.092,322.587 13.917 C 322.342 14.742,321.365 18.117,320.416 21.417 C 319.467 24.717,318.493 28.092,318.252 28.917 C 318.011 29.742,317.187 32.592,316.419 35.250 C 314.632 41.445,313.416 45.646,312.053 50.333 C 311.453 52.396,310.829 54.571,310.665 55.167 C 310.501 55.762,310.028 57.413,309.613 58.833 C 309.199 60.254,308.362 63.142,307.752 65.250 C 307.143 67.358,306.306 70.246,305.893 71.667 C 305.481 73.087,304.767 75.563,304.307 77.167 C 303.847 78.771,303.360 80.458,303.224 80.917 C 303.089 81.375,302.935 81.900,302.884 82.083 C 302.832 82.267,302.606 83.054,302.381 83.833 C 302.156 84.612,301.547 86.737,301.028 88.554 L 300.083 91.858 299.691 90.637 C 299.474 89.966,299.201 89.079,299.083 88.667 C 298.881 87.961,297.772 84.317,297.256 82.667 C 297.127 82.254,296.835 81.279,296.606 80.500 C 296.377 79.721,295.353 76.346,294.329 73.000 C 293.305 69.654,292.363 66.560,292.234 66.125 C 291.658 64.177,291.495 63.632,290.918 61.750 C 290.582 60.650,290.207 59.413,290.085 59.000 C 289.963 58.587,288.800 54.762,287.500 50.500 C 286.200 46.237,285.037 42.412,284.917 42.000 C 284.796 41.587,284.422 40.350,284.085 39.250 C 283.451 37.179,283.165 36.228,282.768 34.875 C 282.640 34.440,282.234 33.108,281.866 31.917 C 281.498 30.725,281.122 29.488,281.031 29.167 C 280.939 28.846,280.402 27.083,279.837 25.250 C 279.272 23.417,278.623 21.279,278.395 20.500 C 278.167 19.721,277.565 17.733,277.056 16.083 C 276.125 13.059,275.788 11.937,275.468 10.792 L 275.293 10.167 273.156 10.167 C 271.981 10.167,270.986 10.223,270.944 10.292 M385.333 14.417 L 385.333 17.833 385.917 17.833 L 386.500 17.833 386.500 16.500 L 386.500 15.167 386.958 15.168 C 387.359 15.170,387.500 15.329,388.083 16.440 C 388.826 17.854,388.853 17.876,389.808 17.802 L 390.488 17.750 389.668 16.500 C 388.750 15.099,388.692 14.901,389.162 14.751 C 390.165 14.433,390.511 12.768,389.760 11.875 C 389.231 11.247,388.363 11.000,386.689 11.000 L 385.333 11.000 385.333 14.417 M388.406 12.329 C 389.489 12.741,388.812 13.850,387.407 13.966 L 386.500 14.041 386.500 13.104 L 386.500 12.167 387.239 12.167 C 387.646 12.167,388.171 12.240,388.406 12.329 " stroke="none" fill="#dc442c" fill-rule="evenodd"></path><path id="path2" d="" stroke="none" fill="#ec100c8" fill-rule="evenodd"></path><path id="path3" d="" stroke="none" fill="#ec100c8" fill-rule="evenodd"></path><path id="path4" d="" stroke="none" fill="#ec100c8" fill-rule="evenodd"></path></g></svg>