<svg id="svg" version="1.1" xmlns="http://www.w3.org/2000/svg" xmlns:xlink="http://www.w3.org/1999/xlink" width="400" height="201.8450184501845" viewBox="0, 0, 400,201.8450184501845"><g id="svgg"><path id="path0" d="M74.833 22.859 L 74.833 27.552 74.161 26.886 C 71.415 24.167,66.360 25.095,64.629 28.635 C 61.622 34.782,69.026 41.190,73.985 36.732 L 74.833 35.969 74.833 36.901 L 74.833 37.833 75.750 37.833 L 76.667 37.833 76.667 28.000 L 76.667 18.167 75.750 18.167 L 74.833 18.167 74.833 22.859 M143.667 22.868 L 143.667 27.569 142.958 26.885 C 140.186 24.209,135.185 25.090,133.514 28.549 C 130.452 34.886,137.938 41.416,142.845 36.687 L 143.667 35.895 143.667 36.864 L 143.667 37.833 144.583 37.833 L 145.500 37.833 145.500 28.000 L 145.500 18.167 144.583 18.167 L 143.667 18.167 143.667 22.868 M7.167 19.736 C 7.167 19.875,7.271 20.310,7.399 20.703 C 7.629 21.408,7.752 21.820,8.906 25.750 C 9.228 26.850,10.159 30.000,10.974 32.750 L 12.455 37.750 13.624 37.799 C 14.725 37.844,14.796 37.825,14.872 37.465 C 14.917 37.255,15.385 35.621,15.914 33.833 C 17.698 27.801,17.859 27.254,18.444 25.250 C 18.765 24.150,19.083 23.066,19.149 22.840 C 19.308 22.304,19.454 22.545,19.843 23.977 C 20.008 24.586,20.255 25.458,20.391 25.917 C 20.527 26.375,20.913 27.688,21.250 28.833 C 21.587 29.979,21.973 31.292,22.109 31.750 C 22.245 32.208,22.496 33.071,22.667 33.667 C 22.837 34.262,23.100 35.162,23.250 35.667 C 23.401 36.171,23.603 36.865,23.699 37.208 L 23.874 37.833 25.006 37.833 L 26.139 37.833 26.505 36.625 C 26.706 35.960,26.973 35.079,27.098 34.667 C 27.286 34.049,28.677 29.344,30.524 23.083 C 30.713 22.442,30.964 21.617,31.081 21.250 C 31.199 20.883,31.347 20.340,31.411 20.042 L 31.526 19.500 30.533 19.500 C 29.427 19.500,29.397 19.532,29.000 21.167 C 28.900 21.579,28.751 22.104,28.670 22.333 C 28.588 22.563,28.213 23.875,27.836 25.250 C 27.459 26.625,27.084 27.938,27.002 28.167 C 26.920 28.396,26.461 29.996,25.983 31.722 C 25.441 33.677,25.063 34.773,24.982 34.629 C 24.910 34.501,24.703 33.876,24.522 33.240 C 24.340 32.604,23.923 31.165,23.596 30.042 C 22.091 24.884,21.770 23.779,21.190 21.750 L 20.570 19.583 19.384 19.535 L 18.198 19.486 17.939 20.285 C 17.797 20.724,17.182 22.808,16.573 24.917 C 15.964 27.025,15.356 29.125,15.221 29.583 C 14.952 30.502,14.487 32.120,14.116 33.435 C 13.617 35.202,13.683 35.310,12.334 30.500 C 12.167 29.904,11.528 27.692,10.915 25.583 C 10.301 23.475,9.671 21.262,9.515 20.667 L 9.230 19.583 8.198 19.534 C 7.367 19.494,7.167 19.533,7.167 19.736 M89.667 28.667 L 89.667 37.833 90.667 37.833 L 91.667 37.833 91.667 33.500 L 91.667 29.167 95.917 29.167 L 100.167 29.167 100.167 28.333 L 100.167 27.500 95.917 27.500 L 91.667 27.500 91.667 24.333 L 91.667 21.167 96.250 21.167 L 100.833 21.167 100.833 20.333 L 100.833 19.500 95.250 19.500 L 89.667 19.500 89.667 28.667 M103.499 20.289 C 102.524 21.529,104.288 23.061,105.404 21.944 C 106.271 21.078,105.741 19.833,104.506 19.833 C 103.998 19.833,103.780 19.932,103.499 20.289 M37.167 25.446 C 31.657 26.574,30.671 34.805,35.733 37.413 C 36.182 37.644,36.459 37.833,36.348 37.833 C 36.238 37.833,36.193 37.908,36.250 38.000 C 36.411 38.260,39.477 38.198,40.575 37.912 C 47.800 36.030,46.623 25.569,39.167 25.397 C 38.296 25.377,37.396 25.399,37.167 25.446 M52.583 25.557 C 47.228 27.338,46.510 34.628,51.417 37.398 L 51.917 37.680 50.917 37.595 L 49.917 37.509 50.500 37.787 C 51.892 38.451,56.292 38.214,57.887 37.389 C 62.331 35.091,62.123 27.974,57.550 25.880 C 56.395 25.351,53.724 25.177,52.583 25.557 M113.738 25.730 C 113.273 25.947,112.655 26.413,112.363 26.766 L 111.833 27.409 111.833 26.802 C 111.833 25.791,111.722 25.667,110.816 25.667 L 110.000 25.667 110.000 31.750 L 110.000 37.833 110.917 37.833 L 111.833 37.833 111.833 34.528 C 111.833 28.721,112.612 27.168,115.524 27.167 C 116.759 27.167,116.833 27.100,116.833 25.986 L 116.833 25.333 115.708 25.335 C 114.878 25.336,114.362 25.440,113.738 25.730 M122.055 25.632 C 115.542 27.955,117.367 38.146,124.299 38.165 C 126.665 38.171,130.263 36.051,129.246 35.249 C 128.190 34.415,128.248 34.419,127.526 35.140 C 124.989 37.678,120.000 36.078,120.000 32.726 L 120.000 32.338 124.958 32.294 L 129.917 32.250 129.969 31.333 C 130.204 27.177,126.071 24.200,122.055 25.632 M103.667 31.750 L 103.667 37.833 104.583 37.833 L 105.500 37.833 105.500 31.750 L 105.500 25.667 104.583 25.667 L 103.667 25.667 103.667 31.750 M40.704 27.229 C 44.384 28.885,44.217 34.808,40.449 36.246 C 38.633 36.940,36.309 36.237,35.280 34.683 C 32.556 30.566,36.394 25.290,40.704 27.229 M56.205 27.113 C 60.086 28.640,60.079 34.880,56.196 36.267 C 53.059 37.387,50.247 35.211,50.252 31.667 C 50.258 28.096,53.126 25.902,56.205 27.113 M72.250 27.226 C 76.946 29.423,75.224 36.794,70.092 36.464 C 64.346 36.095,64.658 26.837,70.417 26.837 C 71.116 26.837,71.667 26.954,72.250 27.226 M125.564 27.038 C 126.806 27.409,128.000 29.013,128.000 30.311 C 128.000 30.664,127.973 30.667,124.000 30.667 C 119.576 30.667,119.783 30.728,120.269 29.562 C 121.170 27.405,123.335 26.373,125.564 27.038 M141.042 27.225 C 142.684 27.951,143.833 29.791,143.833 31.693 C 143.833 36.614,137.443 38.394,135.313 34.066 C 133.263 29.903,137.002 25.438,141.042 27.225 M80.167 31.583 L 80.167 32.333 83.083 32.333 L 86.000 32.333 86.000 31.583 L 86.000 30.833 83.083 30.833 L 80.167 30.833 80.167 31.583 M35.750 53.831 C 18.929 54.870,9.666 62.625,9.667 75.666 C 9.668 85.161,13.851 90.683,23.868 94.415 C 26.377 95.349,33.967 97.289,43.833 99.518 C 44.612 99.694,45.550 99.911,45.917 100.000 C 46.283 100.089,47.483 100.357,48.583 100.595 C 62.957 103.707,69.768 111.801,67.745 123.366 C 65.352 137.047,47.294 144.039,27.583 138.916 C 16.665 136.079,9.667 126.495,9.667 114.382 L 9.667 112.667 8.393 112.667 L 7.119 112.667 7.218 115.625 C 7.507 124.265,10.760 131.505,16.318 135.878 C 16.922 136.353,17.454 136.784,17.500 136.836 C 17.747 137.116,20.272 138.607,21.482 139.188 C 31.960 144.216,48.724 144.122,58.618 138.979 C 66.650 134.804,70.421 128.683,70.413 119.833 C 70.402 108.257,65.070 102.464,51.083 98.831 C 49.983 98.545,48.108 98.053,46.917 97.738 C 43.746 96.899,39.793 95.896,38.125 95.507 C 36.480 95.123,34.239 94.602,32.750 94.257 C 32.200 94.130,31.488 93.975,31.167 93.915 C 20.700 91.931,13.410 86.110,12.344 78.885 C 10.541 66.667,18.648 58.107,33.458 56.588 C 39.136 56.006,43.087 56.161,48.173 57.165 C 58.259 59.156,64.522 65.746,65.994 75.917 C 66.180 77.200,66.332 78.569,66.332 78.958 L 66.333 79.667 67.583 79.667 L 68.833 79.667 68.833 79.160 C 68.833 77.274,68.259 73.871,67.488 71.189 C 64.011 59.100,52.486 52.797,35.750 53.831 M108.092 58.119 C 107.553 59.475,107.017 60.808,106.900 61.083 C 106.783 61.358,106.492 62.071,106.253 62.667 C 106.014 63.262,105.749 63.900,105.665 64.083 C 105.580 64.267,104.944 65.842,104.251 67.583 C 103.558 69.325,102.920 70.900,102.832 71.083 C 102.745 71.267,101.814 73.554,100.764 76.167 C 97.904 83.284,96.764 86.107,95.414 89.417 C 94.163 92.483,92.155 97.456,89.592 103.833 C 88.800 105.804,88.043 107.653,87.909 107.942 C 87.776 108.231,87.667 108.519,87.667 108.583 C 87.667 108.647,87.558 108.936,87.425 109.225 C 87.172 109.773,86.218 112.118,84.805 115.667 C 84.008 117.669,83.651 118.534,83.327 119.250 C 83.244 119.433,82.608 121.008,81.915 122.750 C 81.221 124.492,80.544 126.153,80.410 126.442 C 80.276 126.731,80.167 127.019,80.167 127.083 C 80.167 127.147,80.057 127.436,79.923 127.725 C 79.789 128.014,79.112 129.675,78.419 131.417 C 77.725 133.158,77.087 134.733,77.001 134.917 C 76.914 135.100,76.321 136.544,75.683 138.125 L 74.523 141.000 75.908 141.000 L 77.292 141.000 77.655 140.125 C 77.855 139.644,78.087 139.100,78.171 138.917 C 78.256 138.733,78.894 137.158,79.590 135.417 C 80.285 133.675,80.962 132.014,81.094 131.725 C 81.226 131.436,81.333 131.147,81.333 131.083 C 81.333 131.019,81.443 130.731,81.576 130.442 C 81.710 130.153,82.388 128.492,83.084 126.750 C 83.779 125.008,84.419 123.433,84.506 123.250 C 84.660 122.924,85.349 121.209,91.602 105.583 C 93.289 101.367,94.742 97.767,94.830 97.583 C 94.918 97.400,95.296 96.462,95.670 95.500 C 96.044 94.537,96.459 93.514,96.592 93.225 C 96.725 92.936,96.833 92.647,96.833 92.583 C 96.833 92.519,96.942 92.231,97.075 91.942 C 97.208 91.653,97.772 90.254,98.328 88.833 C 98.883 87.412,99.411 86.100,99.500 85.917 C 99.588 85.733,101.501 80.971,103.749 75.333 C 105.998 69.696,107.907 64.933,107.993 64.750 C 108.079 64.567,108.606 63.254,109.166 61.833 C 110.393 58.717,110.557 58.333,110.666 58.334 C 110.712 58.334,111.290 59.740,111.950 61.459 C 113.174 64.643,114.728 68.657,117.162 74.917 C 117.911 76.842,118.738 78.979,119.000 79.667 C 120.436 83.431,122.194 87.959,122.331 88.250 C 122.418 88.433,122.742 89.258,123.052 90.083 C 123.568 91.462,125.508 96.497,127.000 100.333 C 127.339 101.204,128.222 103.492,128.964 105.417 C 129.705 107.342,130.429 109.196,130.572 109.536 C 130.716 109.877,130.833 110.233,130.833 110.327 C 130.833 110.443,124.985 110.512,112.728 110.541 L 94.622 110.583 94.155 111.750 L 93.688 112.917 112.803 112.959 L 131.919 113.001 132.118 113.459 C 132.228 113.711,132.776 115.079,133.337 116.500 C 133.898 117.921,134.455 119.308,134.575 119.583 C 134.695 119.858,135.219 121.171,135.739 122.500 C 136.259 123.829,136.904 125.442,137.172 126.083 C 137.439 126.725,138.714 129.912,140.003 133.167 C 141.293 136.421,142.416 139.233,142.500 139.417 C 142.583 139.600,142.764 140.031,142.901 140.375 L 143.150 141.000 144.491 141.000 C 145.230 141.000,145.833 140.938,145.833 140.862 C 145.833 140.727,145.138 138.913,144.833 138.250 C 144.748 138.067,144.182 136.642,143.575 135.083 C 142.968 133.525,142.072 131.237,141.584 130.000 C 141.096 128.762,139.974 125.912,139.090 123.667 C 138.207 121.421,137.415 119.433,137.330 119.250 C 137.245 119.067,136.829 118.017,136.404 116.917 C 135.265 113.964,131.849 105.303,131.671 104.917 C 131.587 104.733,131.173 103.683,130.752 102.583 C 130.331 101.483,129.917 100.433,129.832 100.250 C 129.680 99.921,127.583 94.605,125.427 89.083 C 124.819 87.525,124.252 86.100,124.169 85.917 C 124.085 85.733,123.383 83.971,122.609 82.000 C 121.834 80.029,120.712 77.179,120.116 75.667 C 119.519 74.154,118.534 71.642,117.926 70.083 C 117.318 68.525,116.751 67.100,116.666 66.917 C 116.581 66.733,115.794 64.746,114.917 62.500 C 114.041 60.254,113.076 57.817,112.773 57.083 L 112.222 55.750 110.646 55.703 L 109.070 55.655 108.092 58.119 M150.884 85.042 C 150.956 117.115,150.906 115.387,151.892 120.361 C 154.433 133.186,162.589 140.727,175.827 142.494 C 178.677 142.874,185.207 142.971,187.385 142.665 C 188.044 142.573,189.146 142.416,189.833 142.317 C 202.128 140.549,210.191 132.578,212.573 119.833 C 213.438 115.211,213.398 116.775,213.457 85.125 L 213.512 55.667 212.262 55.667 L 211.011 55.667 210.951 84.792 C 210.889 114.606,210.885 114.806,210.236 118.333 C 209.042 124.823,205.957 131.183,202.719 133.833 C 202.551 133.971,202.002 134.429,201.499 134.851 C 200.156 135.976,196.468 138.167,195.916 138.167 C 195.852 138.167,195.564 138.274,195.275 138.404 C 192.545 139.639,187.194 140.500,182.257 140.500 C 166.043 140.500,156.957 133.407,154.181 118.583 C 153.367 114.231,153.338 113.022,153.335 83.375 L 153.333 55.667 152.076 55.667 L 150.818 55.667 150.884 85.042 M218.500 55.956 C 218.500 56.124,218.883 57.533,219.350 59.089 C 219.818 60.644,220.259 62.142,220.331 62.417 C 220.403 62.692,220.665 63.592,220.914 64.417 C 221.163 65.242,221.471 66.273,221.600 66.708 C 221.728 67.144,221.951 67.894,222.095 68.375 C 222.239 68.856,222.496 69.737,222.667 70.333 C 222.837 70.929,223.100 71.829,223.250 72.333 C 223.400 72.837,223.663 73.737,223.833 74.333 C 224.177 75.536,224.426 76.384,225.067 78.542 C 225.305 79.344,225.680 80.619,225.901 81.375 C 226.251 82.575,229.115 92.300,230.527 97.083 C 230.797 98.000,231.271 99.612,231.579 100.667 C 231.888 101.721,232.361 103.333,232.632 104.250 C 233.296 106.496,234.394 110.232,236.184 116.333 C 237.825 121.926,238.071 122.764,238.833 125.333 C 239.119 126.296,239.506 127.608,239.695 128.250 C 239.883 128.892,240.136 129.754,240.258 130.167 C 240.379 130.579,240.639 131.479,240.835 132.167 C 241.358 133.998,241.346 133.972,241.506 133.583 C 241.581 133.400,241.869 132.500,242.147 131.583 L 242.651 129.917 242.340 128.833 C 242.170 128.237,241.753 126.813,241.415 125.667 C 241.077 124.521,240.592 122.871,240.338 122.000 C 240.083 121.129,239.446 118.954,238.921 117.167 C 238.396 115.379,237.757 113.204,237.502 112.333 C 237.246 111.462,236.835 110.075,236.588 109.250 C 236.341 108.425,235.883 106.869,235.569 105.792 C 234.970 103.729,233.957 100.265,233.583 99.000 C 233.462 98.587,233.087 97.313,232.750 96.167 C 232.413 95.021,232.027 93.708,231.891 93.250 C 231.755 92.792,231.504 91.929,231.333 91.333 C 231.163 90.737,230.900 89.837,230.750 89.333 C 230.600 88.829,230.337 87.929,230.167 87.333 C 229.996 86.737,229.745 85.875,229.609 85.417 C 229.473 84.958,229.087 83.646,228.750 82.500 C 228.413 81.354,228.027 80.042,227.891 79.583 C 227.755 79.125,227.504 78.262,227.333 77.667 C 227.163 77.071,226.900 76.171,226.750 75.667 C 226.600 75.162,226.337 74.262,226.167 73.667 C 225.996 73.071,225.745 72.208,225.609 71.750 C 225.266 70.594,224.278 67.215,223.598 64.875 C 223.285 63.798,222.749 61.979,222.406 60.833 C 222.064 59.688,221.687 58.413,221.569 58.000 C 221.452 57.587,221.253 56.913,221.129 56.500 L 220.903 55.750 219.702 55.701 C 218.632 55.657,218.500 55.685,218.500 55.956 M354.074 56.292 C 353.929 56.635,353.250 58.304,352.565 60.000 C 351.880 61.696,351.210 63.320,351.076 63.609 C 350.943 63.897,350.833 64.186,350.833 64.250 C 350.833 64.314,350.725 64.603,350.593 64.891 C 350.461 65.180,349.932 66.467,349.418 67.750 C 348.904 69.033,348.375 70.320,348.242 70.609 C 348.109 70.897,348.000 71.186,348.000 71.250 C 348.000 71.314,347.890 71.603,347.756 71.891 C 347.623 72.180,346.945 73.842,346.252 75.583 C 345.558 77.325,344.920 78.900,344.834 79.083 C 344.665 79.443,343.633 81.995,342.308 85.333 C 341.853 86.479,341.413 87.567,341.329 87.750 C 341.245 87.933,340.754 89.133,340.238 90.415 C 339.721 91.697,338.736 94.135,338.047 95.832 C 337.359 97.528,336.100 100.642,335.250 102.750 C 331.829 111.237,329.822 116.187,329.000 118.167 C 328.524 119.313,327.998 120.625,327.832 121.083 C 327.509 121.972,325.595 126.691,325.331 127.250 C 325.245 127.433,324.459 129.383,323.584 131.583 C 322.710 133.783,321.923 135.733,321.836 135.917 C 321.592 136.428,319.833 140.817,319.833 140.914 C 319.833 140.961,320.453 141.000,321.210 141.000 L 322.586 141.000 322.855 140.292 C 323.002 139.902,323.913 137.633,324.879 135.250 C 325.845 132.867,327.285 129.304,328.079 127.333 C 328.874 125.362,330.149 122.212,330.914 120.333 C 331.678 118.454,332.613 116.129,332.990 115.167 C 333.368 114.204,333.748 113.267,333.835 113.083 C 333.922 112.900,334.598 111.212,335.338 109.333 C 336.077 107.454,336.752 105.767,336.837 105.583 C 336.922 105.400,337.557 103.825,338.249 102.083 C 338.941 100.342,339.578 98.767,339.664 98.583 C 339.809 98.277,341.319 94.495,343.357 89.333 C 343.809 88.188,344.259 87.063,344.357 86.833 C 344.455 86.604,346.516 81.467,348.937 75.417 C 351.358 69.367,353.411 64.267,353.498 64.083 C 353.585 63.900,354.113 62.587,354.671 61.167 C 355.228 59.746,355.744 58.524,355.816 58.451 C 355.947 58.319,356.200 58.891,357.273 61.750 C 357.582 62.575,357.908 63.400,357.998 63.583 C 358.087 63.767,358.382 64.517,358.652 65.250 C 359.465 67.456,361.829 73.546,362.090 74.109 C 362.224 74.397,362.333 74.676,362.333 74.728 C 362.333 74.780,362.663 75.669,363.066 76.703 C 363.469 77.737,364.523 80.458,365.407 82.750 C 366.292 85.042,367.124 87.153,367.258 87.442 C 367.391 87.731,367.500 88.011,367.500 88.064 C 367.500 88.141,370.773 96.625,373.841 104.500 C 374.109 105.188,374.734 106.800,375.230 108.083 L 376.133 110.417 358.001 110.459 L 339.868 110.501 339.434 111.586 C 339.195 112.182,339.000 112.744,339.000 112.834 C 339.000 112.941,345.699 113.013,358.106 113.041 L 377.212 113.083 378.202 115.583 C 378.747 116.958,379.631 119.171,380.168 120.500 C 380.704 121.829,381.530 123.892,382.003 125.083 C 382.477 126.275,383.310 128.375,383.857 129.750 C 384.403 131.125,384.958 132.486,385.091 132.775 C 385.224 133.064,385.333 133.353,385.333 133.417 C 385.333 133.481,385.442 133.769,385.575 134.058 C 385.708 134.347,386.124 135.371,386.500 136.333 C 386.876 137.296,387.292 138.320,387.425 138.609 C 387.558 138.897,387.667 139.178,387.667 139.232 C 387.667 139.286,387.831 139.706,388.031 140.165 L 388.396 141.000 389.777 141.000 L 391.158 141.000 390.984 140.542 C 390.889 140.290,390.185 138.508,389.420 136.583 C 387.744 132.365,385.526 126.742,384.061 123.000 C 383.469 121.487,382.917 120.100,382.833 119.917 C 382.749 119.733,382.107 118.121,381.407 116.333 C 378.552 109.051,377.288 105.850,376.766 104.583 C 376.463 103.850,376.042 102.763,375.831 102.167 C 375.619 101.571,375.392 101.008,375.327 100.917 C 375.261 100.825,375.152 100.563,375.085 100.333 C 375.018 100.104,374.863 99.692,374.740 99.417 C 374.618 99.142,373.944 97.454,373.243 95.667 C 369.879 87.088,369.144 85.225,369.004 84.917 C 368.921 84.733,368.369 83.346,367.776 81.833 C 367.184 80.321,366.211 77.846,365.614 76.333 C 365.016 74.821,363.881 71.933,363.091 69.917 C 362.301 67.900,361.585 66.100,361.500 65.917 C 361.415 65.733,360.775 64.121,360.079 62.333 C 359.382 60.546,358.504 58.315,358.128 57.375 L 357.443 55.667 355.891 55.667 L 354.338 55.667 354.074 56.292 M294.500 167.500 L 294.500 177.333 295.417 177.333 L 296.333 177.333 296.333 167.500 L 296.333 157.667 295.417 157.667 L 294.500 157.667 294.500 167.500 M311.000 162.349 L 311.000 167.031 310.159 166.274 C 307.233 163.644,302.442 164.686,300.693 168.333 C 300.044 169.688,300.039 172.794,300.685 174.167 C 302.390 177.793,307.660 178.833,310.375 176.078 L 311.000 175.444 311.000 176.389 L 311.000 177.333 311.917 177.333 L 312.833 177.333 312.833 167.500 L 312.833 157.667 311.917 157.667 L 311.000 157.667 311.000 162.349 M196.768 158.761 C 193.688 159.890,193.110 163.565,195.562 166.430 L 196.134 167.098 195.208 167.583 C 191.113 169.727,190.877 175.151,194.795 177.047 C 197.280 178.250,200.519 177.688,202.461 175.715 L 203.412 174.750 204.652 176.042 L 205.891 177.333 207.196 177.333 C 208.831 177.333,208.870 177.459,206.501 175.085 L 204.502 173.081 206.104 170.415 C 206.985 168.949,207.743 167.656,207.788 167.542 C 207.998 167.003,205.674 167.292,205.367 167.842 C 205.211 168.122,204.643 169.111,204.104 170.039 L 203.124 171.726 201.153 169.655 C 198.863 167.248,198.963 167.462,199.913 167.002 C 205.567 164.265,202.644 156.608,196.768 158.761 M266.489 158.822 C 260.258 160.486,257.546 167.814,261.020 173.601 C 263.875 178.355,271.573 179.317,275.180 175.370 C 276.094 174.371,276.088 174.288,275.072 173.660 L 274.515 173.316 273.884 174.015 C 270.282 178.001,263.525 175.974,261.911 170.422 C 259.803 163.172,268.216 157.039,273.428 162.028 L 274.106 162.676 274.888 162.080 C 275.803 161.381,275.768 161.152,274.616 160.313 C 272.299 158.622,269.298 158.072,266.489 158.822 M217.833 168.167 L 217.833 177.333 218.833 177.333 L 219.833 177.333 219.833 168.167 L 219.833 159.000 218.833 159.000 L 217.833 159.000 217.833 168.167 M322.281 161.451 C 323.043 164.001,324.038 167.358,324.419 168.667 C 324.707 169.654,325.665 172.935,326.366 175.333 L 326.926 177.250 328.130 177.299 C 328.792 177.326,329.333 177.301,329.333 177.244 C 329.333 177.151,330.002 174.830,331.253 170.583 C 331.496 169.758,331.957 168.183,332.278 167.083 C 332.599 165.983,332.975 164.708,333.112 164.250 C 333.250 163.792,333.443 163.098,333.543 162.708 C 333.803 161.684,333.843 161.749,334.651 164.543 C 335.055 165.940,335.628 167.908,335.924 168.917 C 336.220 169.925,336.726 171.650,337.048 172.750 C 337.371 173.850,337.806 175.331,338.016 176.042 L 338.397 177.333 339.512 177.333 C 340.786 177.333,340.677 177.463,341.332 175.167 C 341.528 174.479,341.790 173.579,341.914 173.167 C 342.386 171.604,344.076 165.910,344.585 164.167 C 344.706 163.754,345.070 162.497,345.393 161.373 C 345.717 160.250,346.028 159.256,346.084 159.165 C 346.148 159.063,345.777 159.000,345.107 159.000 L 344.028 159.000 343.686 160.125 C 343.341 161.257,342.224 165.154,341.667 167.167 C 341.503 167.762,341.090 169.225,340.751 170.417 C 340.411 171.608,340.019 173.017,339.878 173.547 C 339.738 174.078,339.603 174.490,339.579 174.464 C 339.533 174.413,338.755 171.801,337.555 167.667 C 337.143 166.246,336.544 164.183,336.223 163.083 C 335.902 161.983,335.514 160.633,335.360 160.083 L 335.079 159.083 333.891 159.035 L 332.703 158.986 332.343 160.201 C 332.145 160.870,331.837 161.923,331.658 162.542 C 331.251 163.952,330.697 165.854,330.409 166.833 C 330.287 167.246,330.025 168.146,329.825 168.833 C 329.312 170.603,329.072 171.420,328.678 172.736 C 328.489 173.371,328.333 173.989,328.333 174.111 C 328.333 174.931,327.915 173.788,326.843 170.042 C 326.168 167.681,325.513 165.412,325.387 165.000 C 325.261 164.587,324.831 163.087,324.432 161.667 L 323.705 159.083 322.625 159.035 L 321.544 158.986 322.281 161.451 M199.828 160.414 C 201.976 161.525,201.419 164.232,198.717 165.809 L 197.851 166.314 197.376 165.773 C 195.745 163.916,195.489 162.018,196.714 160.867 C 197.467 160.159,198.926 159.947,199.828 160.414 M361.500 163.417 L 361.500 165.167 360.250 165.167 L 359.000 165.167 359.000 165.917 L 359.000 166.667 360.240 166.667 L 361.480 166.667 361.532 171.042 C 361.600 176.818,361.961 177.527,364.818 177.483 C 366.619 177.456,366.741 177.386,366.801 176.347 C 366.848 175.539,366.824 175.470,366.551 175.598 C 366.386 175.675,365.771 175.741,365.186 175.744 C 363.443 175.754,363.430 175.716,363.358 170.738 L 363.299 166.667 365.066 166.667 L 366.833 166.667 366.833 165.917 L 366.833 165.167 365.083 165.167 L 363.333 165.167 363.333 163.417 L 363.333 161.667 362.417 161.667 L 361.500 161.667 361.500 163.417 M227.667 165.184 C 224.008 166.480,222.437 170.918,224.361 174.526 C 226.134 177.853,231.530 178.760,234.125 176.168 C 234.798 175.496,234.800 175.516,233.991 174.944 L 233.323 174.471 232.799 174.983 C 230.819 176.919,227.193 176.087,225.969 173.415 C 223.921 168.943,229.011 164.224,232.536 167.326 L 233.250 167.955 233.960 167.410 L 234.671 166.865 233.909 166.195 C 232.425 164.889,229.732 164.453,227.667 165.184 M240.531 165.172 C 235.306 167.028,235.051 174.780,240.137 177.134 C 242.193 178.086,245.100 177.671,247.017 176.153 C 248.067 175.322,248.107 175.113,247.336 174.502 L 246.675 173.979 245.986 174.661 C 243.340 177.281,239.311 176.016,238.435 172.292 L 238.327 171.833 243.438 171.833 L 248.548 171.833 248.455 170.625 C 248.116 166.235,244.516 163.757,240.531 165.172 M281.903 165.228 C 279.127 166.260,277.917 168.088,277.917 171.250 L 277.917 173.250 278.542 174.361 C 281.556 179.715,289.943 178.261,290.665 172.260 C 291.286 167.105,286.716 163.438,281.903 165.228 M350.000 165.146 C 348.897 165.500,348.371 165.765,347.884 166.208 L 347.518 166.542 348.038 167.189 C 348.554 167.831,348.562 167.834,348.904 167.520 C 351.295 165.335,355.313 166.374,355.330 169.183 L 355.333 169.783 353.125 169.885 C 348.633 170.091,346.833 171.255,346.833 173.955 C 346.833 177.603,352.622 179.116,354.934 176.072 L 355.417 175.438 355.500 176.344 L 355.583 177.250 356.420 177.299 L 357.256 177.348 357.213 175.549 C 357.189 174.560,357.146 172.438,357.118 170.833 C 357.060 167.597,356.932 167.125,355.815 166.033 C 354.640 164.884,352.045 164.489,350.000 165.146 M372.482 165.218 C 366.691 167.649,367.425 176.213,373.536 177.523 C 375.584 177.962,377.997 177.274,379.398 175.852 L 380.176 175.063 379.514 174.531 C 378.703 173.879,378.764 173.878,378.154 174.572 C 376.039 176.981,371.959 176.221,370.832 173.207 C 370.273 171.715,369.870 171.833,375.500 171.833 L 380.500 171.833 380.498 170.792 C 380.490 166.391,376.423 163.563,372.482 165.218 M388.074 165.229 C 387.611 165.445,386.954 165.945,386.616 166.341 L 386.000 167.060 386.000 166.113 L 386.000 165.167 385.083 165.167 L 384.167 165.167 384.167 171.250 L 384.167 177.333 385.167 177.333 L 386.167 177.333 386.167 173.697 C 386.167 168.015,386.868 166.667,389.825 166.667 L 391.000 166.667 391.002 166.125 C 391.004 165.827,391.050 165.415,391.105 165.208 C 391.255 164.648,389.293 164.661,388.074 165.229 M244.681 166.906 C 245.483 167.437,246.086 168.240,246.316 169.083 C 246.684 170.432,246.991 170.333,242.430 170.333 L 238.360 170.333 238.528 169.708 C 239.284 166.890,242.467 165.441,244.681 166.906 M286.419 166.909 C 288.920 168.375,289.551 172.040,287.717 174.445 C 285.890 176.840,281.742 176.403,280.338 173.667 C 278.155 169.413,282.483 164.603,286.419 166.909 M307.935 166.580 C 312.066 167.806,312.210 174.407,308.135 175.761 C 304.916 176.830,302.109 174.684,302.126 171.167 C 302.142 167.764,304.815 165.653,307.935 166.580 M375.906 166.515 C 377.237 166.850,378.293 168.115,378.572 169.708 L 378.682 170.333 374.591 170.333 C 372.081 170.333,370.500 170.271,370.500 170.173 C 370.500 167.868,373.424 165.890,375.906 166.515 M198.014 169.153 C 198.327 169.512,199.356 170.597,200.299 171.566 C 202.243 173.559,202.217 173.424,200.891 174.732 C 198.390 177.197,194.000 175.786,194.000 172.516 C 194.000 171.183,194.779 169.935,196.144 169.081 C 197.301 168.358,197.320 168.358,198.014 169.153 M251.000 171.083 L 251.000 171.833 254.000 171.833 L 257.000 171.833 257.000 171.083 L 257.000 170.333 254.000 170.333 L 251.000 170.333 251.000 171.083 M355.333 172.153 C 355.333 175.691,350.549 177.712,349.015 174.821 C 347.926 172.767,349.942 171.443,354.292 171.354 L 355.333 171.333 355.333 172.153 " stroke="none" fill="#fcfcfc" fill-rule="evenodd"></path><path id="path1" d="M383.583 53.146 C 380.996 53.825,378.916 56.772,379.219 59.330 C 379.931 65.342,387.911 66.767,390.540 61.351 C 392.698 56.907,388.432 51.875,383.583 53.146 M387.264 54.507 C 389.121 55.406,390.089 57.067,389.965 59.143 C 389.590 65.410,380.327 65.077,380.333 58.796 C 380.336 55.314,384.109 52.979,387.264 54.507 M269.250 55.542 C 269.209 55.656,268.979 56.425,268.738 57.250 C 268.498 58.075,268.201 59.087,268.079 59.500 C 267.957 59.913,267.770 60.550,267.664 60.917 C 267.557 61.283,267.097 62.821,266.642 64.333 C 266.187 65.846,265.662 67.608,265.476 68.250 C 265.290 68.892,265.036 69.717,264.912 70.083 C 264.789 70.450,264.524 71.313,264.325 72.000 C 263.887 73.511,263.502 74.806,262.095 79.500 C 261.972 79.912,261.715 80.775,261.524 81.417 C 261.334 82.058,260.342 85.358,259.320 88.750 C 258.299 92.142,257.328 95.404,257.163 96.000 C 256.999 96.596,256.377 98.696,255.781 100.667 C 254.530 104.805,253.284 108.954,253.003 109.917 C 252.632 111.192,252.363 112.099,251.594 114.667 C 251.169 116.087,250.668 117.775,250.482 118.417 C 250.295 119.058,250.078 119.771,250.001 120.000 C 249.923 120.229,249.661 121.092,249.419 121.917 C 249.177 122.742,248.914 123.604,248.835 123.833 C 248.756 124.063,248.529 124.813,248.330 125.500 C 248.132 126.188,247.722 127.575,247.418 128.583 C 247.115 129.592,246.701 130.979,246.498 131.667 C 246.296 132.354,246.028 133.254,245.904 133.667 C 245.780 134.079,245.272 135.767,244.776 137.417 C 244.279 139.067,243.821 140.660,243.757 140.958 L 243.640 141.500 245.397 141.500 L 247.154 141.500 247.341 140.792 C 247.444 140.402,247.631 139.746,247.757 139.333 C 248.222 137.815,249.146 134.715,249.497 133.500 C 249.696 132.813,249.922 132.063,250.000 131.833 C 250.078 131.604,250.296 130.892,250.484 130.250 C 250.672 129.608,251.436 127.058,252.182 124.583 C 252.927 122.108,253.634 119.746,253.752 119.333 C 254.210 117.734,254.872 115.506,255.411 113.750 C 255.720 112.742,256.060 111.617,256.165 111.250 C 256.610 109.707,258.212 104.333,258.574 103.167 C 258.850 102.278,259.975 98.503,260.560 96.500 C 260.787 95.721,261.282 94.071,261.658 92.833 C 262.583 89.795,262.737 89.286,263.165 87.833 C 263.368 87.146,263.782 85.758,264.085 84.750 C 264.388 83.742,264.801 82.354,265.003 81.667 C 265.205 80.979,265.472 80.079,265.597 79.667 C 265.722 79.254,266.204 77.642,266.669 76.083 C 267.134 74.525,267.767 72.425,268.075 71.417 C 268.382 70.408,268.800 69.021,269.002 68.333 C 269.205 67.646,269.473 66.746,269.598 66.333 C 269.723 65.921,270.167 64.425,270.585 63.009 C 271.002 61.593,271.362 60.416,271.385 60.392 C 271.425 60.353,272.070 62.393,273.185 66.083 C 273.461 67.000,273.987 68.725,274.352 69.917 C 275.119 72.421,276.082 75.583,276.407 76.667 C 276.531 77.079,276.900 78.279,277.226 79.333 C 277.553 80.387,278.352 83.012,279.002 85.167 C 279.651 87.321,280.439 89.908,280.752 90.917 C 281.219 92.422,282.706 97.318,283.942 101.417 C 284.080 101.875,284.293 102.550,284.415 102.917 C 284.537 103.283,284.837 104.258,285.082 105.083 C 285.737 107.285,286.479 109.735,286.951 111.250 C 287.179 111.983,287.512 113.071,287.691 113.667 C 288.051 114.867,288.196 115.344,289.085 118.250 C 289.422 119.350,289.797 120.587,289.919 121.000 C 290.041 121.412,290.302 122.275,290.500 122.917 C 290.896 124.201,291.151 125.035,291.647 126.667 C 291.829 127.263,292.252 128.650,292.587 129.750 C 292.923 130.850,293.295 132.087,293.414 132.500 C 293.534 132.912,293.970 134.337,294.385 135.667 C 294.799 136.996,295.373 138.852,295.660 139.792 L 296.181 141.500 298.160 141.500 L 300.140 141.500 300.396 140.708 C 300.637 139.964,302.504 133.548,303.173 131.167 C 303.340 130.571,303.600 129.671,303.750 129.167 C 303.900 128.662,304.160 127.763,304.327 127.167 C 304.495 126.571,304.897 125.183,305.221 124.083 C 306.023 121.362,307.966 114.664,308.339 113.333 C 308.507 112.737,308.766 111.837,308.917 111.333 C 309.067 110.829,309.327 109.929,309.494 109.333 C 309.809 108.212,311.250 103.246,312.276 99.750 C 313.328 96.161,314.361 92.605,314.672 91.500 C 314.840 90.904,315.100 90.004,315.250 89.500 C 315.400 88.996,315.660 88.096,315.827 87.500 C 315.995 86.904,316.397 85.517,316.721 84.417 C 317.523 81.696,319.466 74.998,319.839 73.667 C 320.007 73.071,320.266 72.171,320.417 71.667 C 320.567 71.162,320.827 70.262,320.994 69.667 C 321.161 69.071,321.574 67.646,321.910 66.500 C 323.169 62.214,324.715 56.890,324.923 56.119 L 325.139 55.322 323.375 55.369 L 321.610 55.417 320.873 58.000 C 320.467 59.421,319.999 61.071,319.833 61.667 C 319.666 62.262,319.267 63.650,318.945 64.750 C 318.623 65.850,317.711 69.000,316.917 71.750 C 315.368 77.119,314.604 79.753,313.946 82.000 C 313.717 82.779,313.330 84.129,313.085 85.000 C 312.408 87.407,312.048 88.666,311.776 89.583 C 311.095 91.879,310.264 94.741,309.889 96.083 C 309.658 96.908,309.281 98.221,309.051 99.000 C 308.821 99.779,308.495 100.904,308.328 101.500 C 308.160 102.096,307.900 102.996,307.750 103.500 C 307.600 104.004,307.340 104.904,307.173 105.500 C 307.006 106.096,306.367 108.308,305.753 110.417 C 305.139 112.525,304.501 114.737,304.336 115.333 C 304.170 115.929,303.380 118.667,302.580 121.417 C 301.780 124.167,300.990 126.904,300.824 127.500 C 300.659 128.096,300.413 128.958,300.278 129.417 C 300.142 129.875,299.642 131.600,299.165 133.250 C 298.688 134.900,298.275 136.275,298.247 136.305 C 298.218 136.336,297.995 135.698,297.751 134.889 C 297.507 134.079,297.243 133.229,297.164 133.000 C 297.085 132.771,296.820 131.908,296.574 131.083 C 296.076 129.410,295.657 128.025,295.088 126.167 C 294.878 125.479,294.503 124.242,294.256 123.417 C 293.369 120.463,292.641 118.076,292.501 117.667 C 292.423 117.438,292.160 116.575,291.916 115.750 C 291.672 114.925,291.256 113.537,290.993 112.667 C 290.729 111.796,290.095 109.696,289.583 108.000 C 289.071 106.304,288.586 104.729,288.505 104.500 C 288.424 104.271,288.195 103.521,287.995 102.833 C 287.548 101.293,286.661 98.351,285.909 95.917 C 285.205 93.636,281.815 82.475,281.176 80.333 C 280.520 78.132,279.954 76.254,279.244 73.917 C 278.910 72.817,278.536 71.579,278.414 71.167 C 278.292 70.754,277.735 68.917,277.175 67.083 C 276.616 65.250,275.941 63.038,275.677 62.167 C 274.836 59.397,274.395 57.952,273.987 56.625 L 273.590 55.333 271.457 55.333 C 269.900 55.333,269.303 55.390,269.250 55.542 M382.833 58.833 L 382.833 62.167 383.500 62.167 L 384.167 62.167 384.167 60.822 C 384.167 58.988,384.558 59.002,385.650 60.875 L 386.402 62.167 387.195 62.167 L 387.988 62.167 387.158 60.792 C 386.414 59.560,386.357 59.399,386.612 59.250 C 387.396 58.791,387.667 58.354,387.667 57.545 C 387.667 55.991,386.887 55.500,384.422 55.500 L 382.833 55.500 382.833 58.833 M386.070 56.768 C 387.041 57.141,386.171 58.333,384.928 58.333 L 384.167 58.333 384.167 57.500 L 384.167 56.667 384.986 56.667 C 385.437 56.667,385.925 56.712,386.070 56.768 " stroke="none" fill="#dc442c" fill-rule="evenodd"></path><path id="path2" d="" stroke="none" fill="#ec100c8" fill-rule="evenodd"></path><path id="path3" d="" stroke="none" fill="#ec100c8" fill-rule="evenodd"></path><path id="path4" d="" stroke="none" fill="#ec100c8" fill-rule="evenodd"></path></g></svg>