<svg id="svg" version="1.1" xmlns="http://www.w3.org/2000/svg" xmlns:xlink="http://www.w3.org/1999/xlink" width="400" height="201.7677537336178" viewBox="0, 0, 400,201.7677537336178"><g id="svgg"><path id="path0" d="M384.975 51.819 C 379.997 53.766,379.881 60.831,384.798 62.670 C 390.531 64.815,395.322 58.391,391.561 53.600 C 390.099 51.737,387.194 50.951,384.975 51.819 M389.083 52.920 C 393.671 55.142,392.093 62.081,387.000 62.083 C 382.332 62.084,380.404 55.979,384.239 53.341 C 385.552 52.438,387.702 52.251,389.083 52.920 M271.826 53.708 C 271.723 54.098,271.533 54.754,271.404 55.167 C 271.115 56.090,269.204 62.475,268.336 65.417 C 267.985 66.608,267.122 69.496,266.420 71.833 C 265.129 76.131,264.680 77.628,263.824 80.500 C 262.644 84.457,261.964 86.731,261.405 88.583 C 261.073 89.683,260.515 91.558,260.165 92.750 C 259.815 93.942,259.342 95.517,259.114 96.250 C 258.886 96.983,258.536 98.146,258.336 98.833 C 258.136 99.521,257.835 100.533,257.667 101.083 C 257.498 101.633,257.208 102.608,257.021 103.250 C 256.833 103.892,256.297 105.692,255.829 107.250 C 255.361 108.808,254.787 110.721,254.554 111.500 C 254.322 112.279,253.884 113.742,253.582 114.750 C 253.279 115.758,252.829 117.258,252.582 118.083 C 252.335 118.908,252.030 119.921,251.903 120.333 C 251.777 120.746,250.845 123.858,249.833 127.250 C 248.820 130.642,247.811 134.017,247.590 134.750 C 247.369 135.483,247.042 136.571,246.863 137.167 L 246.538 138.250 248.132 138.298 C 250.084 138.357,250.056 138.367,250.311 137.476 C 250.676 136.197,251.186 134.466,251.751 132.583 C 252.054 131.575,252.504 130.075,252.751 129.250 C 252.998 128.425,253.302 127.412,253.427 127.000 C 253.639 126.299,254.183 124.484,255.251 120.917 C 255.498 120.092,255.801 119.079,255.925 118.667 C 257.073 114.839,257.344 113.932,257.646 112.917 C 257.836 112.275,258.488 110.100,259.094 108.083 C 260.320 104.000,260.931 101.952,261.255 100.833 C 261.374 100.421,262.034 98.208,262.722 95.917 C 263.410 93.625,264.318 90.587,264.740 89.167 C 265.162 87.746,265.611 86.246,265.737 85.833 C 265.863 85.421,266.168 84.408,266.413 83.583 C 266.659 82.758,267.110 81.258,267.415 80.250 C 268.307 77.304,268.791 75.679,269.229 74.167 C 269.454 73.387,269.825 72.150,270.053 71.417 C 270.281 70.683,270.631 69.521,270.831 68.833 C 271.030 68.146,271.332 67.133,271.500 66.583 C 271.668 66.033,271.971 65.021,272.172 64.333 C 272.709 62.499,273.173 60.974,273.337 60.500 C 273.417 60.271,273.609 59.613,273.764 59.037 C 273.919 58.462,274.072 58.017,274.103 58.048 C 274.167 58.112,274.794 60.114,276.019 64.167 C 276.476 65.679,277.107 67.742,277.420 68.750 C 277.734 69.758,278.822 73.321,279.838 76.667 C 280.854 80.012,281.973 83.688,282.325 84.833 C 282.678 85.979,283.166 87.592,283.410 88.417 C 283.654 89.242,283.921 90.104,284.003 90.333 C 284.084 90.563,284.496 91.912,284.917 93.333 C 285.338 94.754,285.749 96.104,285.831 96.333 C 285.912 96.563,286.179 97.425,286.423 98.250 C 287.115 100.588,288.169 104.040,288.332 104.500 C 288.413 104.729,288.668 105.554,288.899 106.333 C 289.131 107.112,290.450 111.462,291.832 116.000 C 293.213 120.537,294.533 124.888,294.765 125.667 C 294.998 126.446,295.255 127.271,295.337 127.500 C 295.466 127.857,296.221 130.329,297.527 134.667 C 297.706 135.262,298.017 136.313,298.218 137.000 L 298.583 138.250 300.625 138.297 C 301.748 138.323,302.667 138.305,302.667 138.258 C 302.667 138.210,302.860 137.514,303.096 136.711 C 303.333 135.907,304.088 133.300,304.776 130.917 C 305.463 128.533,306.277 125.721,306.584 124.667 C 306.891 123.612,307.678 120.912,308.332 118.667 C 308.987 116.421,309.861 113.421,310.275 112.000 C 310.689 110.579,311.165 108.929,311.332 108.333 C 311.500 107.737,311.913 106.313,312.250 105.167 C 312.587 104.021,312.999 102.596,313.165 102.000 C 313.330 101.404,313.811 99.735,314.233 98.292 C 314.655 96.848,315.331 94.523,315.735 93.125 C 316.556 90.282,317.670 86.463,318.590 83.333 C 318.926 82.188,319.337 80.762,319.503 80.167 C 319.668 79.571,320.079 78.146,320.417 77.000 C 320.754 75.854,321.173 74.410,321.348 73.792 C 321.994 71.511,322.328 70.353,323.140 67.583 C 323.597 66.025,324.470 63.025,325.080 60.917 C 325.690 58.808,326.447 56.195,326.761 55.110 C 327.076 54.024,327.333 53.106,327.333 53.068 C 327.333 53.031,326.558 53.000,325.611 53.000 L 323.889 53.000 323.710 53.708 C 323.546 54.357,323.078 55.988,320.943 63.333 C 319.941 66.782,316.488 78.724,314.726 84.833 C 313.947 87.537,312.970 90.912,312.556 92.333 C 311.152 97.158,309.634 102.413,309.331 103.500 C 309.166 104.096,308.754 105.521,308.417 106.667 C 308.079 107.813,307.660 109.256,307.485 109.875 C 307.310 110.494,307.023 111.506,306.848 112.125 C 306.673 112.744,306.254 114.188,305.917 115.333 C 305.327 117.337,305.034 118.358,304.351 120.792 C 304.177 121.410,303.755 122.854,303.413 124.000 C 303.071 125.146,302.659 126.571,302.497 127.167 C 302.335 127.763,301.921 129.188,301.578 130.333 C 301.235 131.479,300.918 132.585,300.874 132.792 C 300.721 133.510,300.574 133.131,299.092 128.206 C 297.287 122.210,296.760 120.467,296.254 118.833 C 295.860 117.560,295.415 116.086,294.391 112.667 C 294.075 111.612,293.715 110.450,293.591 110.083 C 293.466 109.717,293.126 108.592,292.836 107.583 C 292.545 106.575,292.243 105.563,292.164 105.333 C 292.085 105.104,291.823 104.242,291.581 103.417 C 291.339 102.592,291.076 101.729,290.998 101.500 C 290.919 101.271,290.630 100.333,290.354 99.417 C 290.079 98.500,289.207 95.612,288.417 93.000 C 287.626 90.388,286.755 87.500,286.479 86.583 C 286.204 85.667,285.914 84.729,285.835 84.500 C 285.757 84.271,285.494 83.408,285.252 82.583 C 285.010 81.758,284.749 80.896,284.672 80.667 C 284.594 80.438,284.342 79.612,284.110 78.833 C 283.879 78.054,283.426 76.554,283.104 75.500 C 282.782 74.446,282.211 72.571,281.835 71.333 C 281.459 70.096,280.900 68.258,280.592 67.250 C 280.285 66.242,279.832 64.742,279.585 63.917 C 279.338 63.092,279.041 62.117,278.924 61.750 C 278.808 61.383,278.165 59.265,277.495 57.042 L 276.278 53.000 274.146 53.000 L 272.013 53.000 271.826 53.708 M384.667 57.333 L 384.667 60.667 385.333 60.667 L 386.000 60.667 386.000 59.238 C 386.000 57.272,386.401 57.286,387.498 59.290 L 388.250 60.663 389.058 60.665 L 389.865 60.667 389.407 59.885 C 389.155 59.456,388.743 58.801,388.490 58.431 L 388.031 57.757 388.494 57.562 C 389.144 57.289,389.500 56.707,389.500 55.917 C 389.500 54.485,388.701 54.000,386.342 54.000 L 384.667 54.000 384.667 57.333 M387.739 55.163 C 388.781 55.559,388.163 56.668,386.828 56.796 L 386.000 56.876 386.000 55.938 L 386.000 55.000 386.656 55.000 C 387.017 55.000,387.504 55.073,387.739 55.163 " stroke="none" fill="#dc442c" fill-rule="evenodd"></path><path id="path1" d="M79.500 21.450 L 79.500 26.068 78.875 25.480 C 74.612 21.473,67.826 25.391,68.804 31.294 C 69.640 36.339,75.551 38.430,79.042 34.916 L 79.500 34.455 79.500 35.394 L 79.500 36.333 80.417 36.333 L 81.333 36.333 81.333 26.583 L 81.333 16.833 80.417 16.833 L 79.500 16.833 79.500 21.450 M147.833 21.506 L 147.833 26.178 147.345 25.622 C 143.799 21.584,137.095 24.611,137.095 30.250 C 137.095 35.935,143.909 38.971,147.389 34.836 L 147.833 34.308 147.833 35.321 L 147.833 36.333 148.750 36.333 L 149.667 36.333 149.667 26.583 L 149.667 16.833 148.750 16.833 L 147.833 16.833 147.833 21.506 M12.500 18.305 C 12.500 18.390,13.070 20.363,13.767 22.688 C 14.464 25.014,15.169 27.404,15.333 28.000 C 15.587 28.918,16.273 31.242,17.252 34.500 C 17.376 34.912,17.544 35.475,17.625 35.750 C 17.769 36.237,17.804 36.251,18.928 36.297 L 20.083 36.344 20.631 34.380 C 20.931 33.300,21.369 31.779,21.603 31.000 C 22.044 29.530,22.635 27.504,23.857 23.275 C 24.250 21.914,24.591 20.864,24.613 20.942 C 24.636 21.020,25.039 22.396,25.509 24.000 C 25.979 25.604,26.501 27.404,26.670 28.000 C 26.839 28.596,27.087 29.458,27.222 29.917 C 27.356 30.375,27.817 31.950,28.246 33.417 C 29.168 36.569,29.017 36.363,30.348 36.300 L 31.413 36.250 31.719 35.167 C 31.888 34.571,32.163 33.596,32.331 33.000 C 32.660 31.829,35.798 21.268,36.338 19.514 C 36.772 18.100,36.805 18.167,35.687 18.167 C 34.578 18.167,34.600 18.140,34.079 20.083 C 33.708 21.465,31.138 30.508,30.456 32.831 L 30.237 33.579 29.547 31.164 C 28.868 28.787,28.611 27.901,26.764 21.553 C 26.252 19.794,25.833 18.313,25.833 18.261 C 25.833 18.209,25.287 18.167,24.620 18.167 L 23.407 18.167 22.966 19.708 C 22.002 23.075,19.576 31.396,19.217 32.563 L 18.916 33.542 17.943 30.146 C 17.408 28.278,16.827 26.244,16.652 25.625 C 16.477 25.006,16.190 23.994,16.015 23.375 C 15.839 22.756,15.437 21.350,15.121 20.250 L 14.546 18.250 13.523 18.200 C 12.960 18.173,12.500 18.220,12.500 18.305 M94.167 27.250 L 94.167 36.333 95.167 36.333 L 96.167 36.333 96.167 32.083 L 96.167 27.833 100.417 27.833 L 104.667 27.833 104.667 26.917 L 104.667 26.000 100.417 26.000 L 96.167 26.000 96.167 22.917 L 96.167 19.833 100.667 19.833 L 105.167 19.833 105.167 19.000 L 105.167 18.167 99.667 18.167 L 94.167 18.167 94.167 27.250 M108.012 18.939 C 107.542 19.537,107.578 19.937,108.154 20.513 C 108.921 21.280,110.029 21.008,110.251 19.998 C 110.539 18.686,108.842 17.884,108.012 18.939 M42.250 24.058 C 35.691 25.767,35.939 35.128,42.580 36.500 C 46.686 37.349,50.333 34.409,50.333 30.250 C 50.333 25.998,46.392 22.978,42.250 24.058 M57.917 24.058 C 51.357 25.767,51.606 35.128,58.247 36.500 C 62.353 37.349,66.000 34.409,66.000 30.250 C 66.000 26.009,62.048 22.981,57.917 24.058 M118.845 24.028 C 118.160 24.224,116.899 25.066,116.620 25.512 C 116.296 26.032,116.167 25.887,116.167 25.000 L 116.167 24.167 115.227 24.167 L 114.288 24.167 114.394 24.940 C 114.452 25.365,114.500 28.103,114.500 31.023 L 114.500 36.333 115.406 36.333 L 116.312 36.333 116.369 32.375 C 116.450 26.818,117.178 25.512,120.092 25.697 L 121.131 25.764 121.213 24.923 C 121.321 23.808,120.583 23.528,118.845 24.028 M126.613 24.161 C 120.712 26.047,120.959 34.851,126.957 36.406 C 129.217 36.991,131.582 36.365,133.153 34.764 L 133.842 34.062 133.156 33.511 L 132.470 32.960 131.777 33.638 C 129.201 36.155,124.834 34.893,124.379 31.500 L 124.289 30.833 129.228 30.833 L 134.167 30.833 134.167 29.780 C 134.167 25.563,130.579 22.894,126.613 24.161 M108.167 30.250 L 108.167 36.333 109.083 36.333 L 110.000 36.333 110.000 30.250 L 110.000 24.167 109.083 24.167 L 108.167 24.167 108.167 30.250 M45.925 25.930 C 49.284 27.716,49.104 33.172,45.638 34.663 C 41.708 36.354,38.154 32.160,39.925 27.922 C 40.803 25.820,43.829 24.815,45.925 25.930 M61.592 25.930 C 64.946 27.713,64.766 33.174,61.305 34.663 C 57.375 36.354,53.821 32.160,55.592 27.922 C 56.470 25.820,59.496 24.815,61.592 25.930 M77.437 26.040 C 81.454 28.595,79.837 34.917,75.167 34.917 C 71.080 34.917,69.155 30.015,71.979 26.799 C 73.210 25.397,75.849 25.030,77.437 26.040 M130.267 25.842 C 131.327 26.355,131.977 27.302,132.234 28.708 L 132.348 29.333 128.341 29.333 L 124.333 29.333 124.333 28.941 C 124.333 26.553,127.894 24.693,130.267 25.842 M145.250 25.811 C 149.737 27.857,148.310 35.005,143.417 34.995 C 139.550 34.987,137.572 30.224,140.073 26.944 C 141.087 25.616,143.610 25.063,145.250 25.811 M84.833 30.083 L 84.833 30.833 87.750 30.833 L 90.667 30.833 90.667 30.083 L 90.667 29.333 87.750 29.333 L 84.833 29.333 84.833 30.083 M37.123 51.844 C 27.504 53.125,21.307 56.449,17.413 62.416 C 14.018 67.619,13.682 77.367,16.717 82.583 C 20.344 88.814,25.390 91.410,40.833 94.989 C 41.704 95.191,43.167 95.534,44.083 95.751 C 47.817 96.637,49.250 96.966,53.083 97.817 C 58.525 99.026,64.466 101.529,66.167 103.328 C 66.212 103.377,66.683 103.780,67.211 104.224 C 72.147 108.368,73.958 116.786,71.388 123.640 C 67.433 134.186,52.854 139.568,36.167 136.642 C 22.767 134.292,15.311 125.825,14.722 112.292 L 14.615 109.833 13.365 109.833 L 12.116 109.833 12.218 112.625 C 12.888 130.853,26.235 140.978,47.881 139.679 C 65.020 138.650,74.923 130.280,74.909 116.833 C 74.897 105.416,69.281 99.430,55.377 96.015 C 55.032 95.931,53.625 95.565,52.250 95.204 C 45.271 93.369,43.765 92.995,39.333 91.996 C 22.752 88.256,17.233 83.548,17.258 73.167 C 17.276 65.530,20.597 60.394,27.712 56.995 C 35.919 53.075,50.342 52.895,58.500 56.612 C 59.603 57.114,61.940 58.420,62.167 58.662 C 62.212 58.710,62.625 59.047,63.083 59.410 C 67.632 63.011,70.833 70.122,70.833 76.624 L 70.833 77.167 72.083 77.167 C 73.530 77.167,73.418 77.409,73.165 74.809 C 72.415 67.103,69.200 60.759,64.184 57.083 C 62.390 55.769,60.002 54.447,58.333 53.844 C 58.012 53.728,57.600 53.571,57.417 53.495 C 53.236 51.765,43.602 50.981,37.123 51.844 M113.008 53.875 C 112.925 54.081,112.674 54.700,112.450 55.250 C 112.225 55.800,111.543 57.487,110.934 59.000 C 110.324 60.512,109.754 61.900,109.667 62.083 C 109.580 62.267,108.711 64.404,107.736 66.833 C 106.760 69.262,105.492 72.412,104.918 73.833 C 104.343 75.254,103.375 77.654,102.766 79.167 C 102.157 80.679,101.589 82.067,101.504 82.250 C 101.419 82.433,100.625 84.383,99.740 86.583 C 98.855 88.783,97.660 91.746,97.084 93.167 C 96.508 94.587,95.464 97.175,94.764 98.917 C 94.064 100.658,93.422 102.233,93.337 102.417 C 93.252 102.600,92.459 104.550,91.574 106.750 C 90.689 108.950,89.402 112.138,88.715 113.833 C 88.027 115.529,86.994 118.079,86.419 119.500 C 83.554 126.577,81.760 131.006,80.749 133.500 C 80.136 135.012,79.493 136.606,79.320 137.042 L 79.005 137.833 80.385 137.833 L 81.764 137.833 83.658 133.125 C 84.700 130.535,85.683 128.117,85.844 127.750 C 86.004 127.383,86.508 126.146,86.963 125.000 C 88.203 121.879,91.326 114.131,91.498 113.750 C 91.694 113.317,92.200 112.048,92.760 110.583 C 93.006 109.942,93.307 109.192,93.430 108.917 C 93.687 108.338,98.558 96.224,99.528 93.750 C 99.888 92.833,100.252 91.933,100.338 91.750 C 100.481 91.446,108.287 71.970,111.862 63.000 C 112.684 60.938,113.456 59.025,113.577 58.750 C 113.698 58.475,114.007 57.704,114.264 57.038 C 114.797 55.657,114.753 55.631,115.565 57.792 C 116.588 60.517,119.507 68.082,119.663 68.417 C 119.749 68.600,120.204 69.762,120.673 71.000 C 121.810 73.996,122.654 76.175,122.837 76.583 C 122.919 76.767,123.368 77.929,123.833 79.167 C 124.299 80.404,124.751 81.567,124.839 81.750 C 124.926 81.933,125.187 82.608,125.420 83.250 C 125.653 83.892,125.913 84.567,125.998 84.750 C 126.153 85.084,127.276 87.977,128.584 91.417 C 129.624 94.148,132.122 100.607,132.581 101.750 C 132.802 102.300,133.370 103.763,133.844 105.000 C 134.318 106.237,134.743 107.344,134.788 107.458 C 134.852 107.624,131.202 107.667,116.870 107.667 L 98.872 107.667 98.436 108.843 C 98.196 109.490,98.000 110.052,98.000 110.092 C 98.000 110.132,106.529 110.184,116.953 110.208 L 135.906 110.250 141.411 124.000 L 146.917 137.750 148.292 137.798 C 149.048 137.825,149.667 137.814,149.667 137.774 C 149.667 137.734,149.210 136.550,148.651 135.143 C 148.092 133.735,147.073 131.158,146.385 129.417 C 145.697 127.675,144.496 124.638,143.716 122.667 C 142.276 119.024,140.818 115.330,138.602 109.708 C 137.924 107.990,136.656 104.783,135.784 102.583 C 134.912 100.383,133.712 97.346,133.116 95.833 C 132.520 94.321,131.380 91.433,130.582 89.417 C 129.785 87.400,128.586 84.362,127.918 82.667 C 126.594 79.305,124.085 72.959,122.416 68.750 C 121.835 67.283,120.340 63.496,119.094 60.333 C 117.849 57.171,116.719 54.340,116.584 54.042 L 116.339 53.500 114.749 53.500 C 113.255 53.500,113.149 53.523,113.008 53.875 M154.713 82.625 C 154.773 114.189,154.740 113.023,155.679 117.583 C 156.341 120.795,157.081 122.916,158.591 125.920 C 163.502 135.694,173.996 140.506,188.578 139.672 C 203.453 138.821,212.566 131.596,215.496 118.333 C 216.625 113.222,216.556 115.382,216.620 82.875 L 216.677 53.500 215.427 53.500 L 214.177 53.500 214.120 82.792 C 214.058 115.238,214.126 113.128,212.991 117.833 C 209.634 131.751,198.786 138.662,182.459 137.286 C 171.036 136.323,164.282 132.151,160.344 123.626 C 157.200 116.821,157.168 116.405,157.167 81.708 L 157.167 53.500 155.913 53.500 L 154.659 53.500 154.713 82.625 M221.667 53.744 C 221.667 53.878,221.771 54.310,221.899 54.703 C 222.027 55.095,222.296 55.979,222.495 56.667 C 222.695 57.354,223.037 58.517,223.255 59.250 C 223.681 60.679,224.396 63.111,224.750 64.333 C 224.870 64.746,225.281 66.133,225.664 67.417 C 226.048 68.700,226.500 70.237,226.669 70.833 C 226.838 71.429,227.100 72.329,227.250 72.833 C 227.400 73.337,227.661 74.237,227.828 74.833 C 227.996 75.429,228.369 76.704,228.656 77.667 C 228.944 78.629,229.324 79.904,229.500 80.500 C 229.677 81.096,230.169 82.746,230.595 84.167 C 231.020 85.587,231.503 87.237,231.668 87.833 C 231.832 88.429,232.202 89.704,232.490 90.667 C 232.777 91.629,233.343 93.542,233.746 94.917 C 234.149 96.292,234.902 98.842,235.421 100.583 C 235.939 102.325,236.499 104.237,236.665 104.833 C 236.958 105.886,237.487 107.675,238.415 110.750 C 238.664 111.575,239.003 112.737,239.169 113.333 C 239.335 113.929,239.895 115.842,240.413 117.583 C 240.931 119.325,241.805 122.287,242.356 124.167 C 242.908 126.046,243.471 127.958,243.608 128.417 C 243.745 128.875,243.938 129.550,244.035 129.917 C 244.317 130.974,244.420 130.926,244.822 129.547 C 245.619 126.818,245.615 126.900,245.013 124.896 C 244.713 123.899,244.331 122.596,244.162 122.000 C 243.994 121.404,243.734 120.504,243.583 120.000 C 243.433 119.496,243.172 118.596,243.002 118.000 C 242.833 117.404,242.381 115.867,241.998 114.583 C 241.240 112.046,241.145 111.724,240.281 108.750 C 239.961 107.650,239.498 106.075,239.252 105.250 C 239.007 104.425,238.556 102.888,238.251 101.833 C 237.661 99.799,236.809 96.889,236.077 94.417 C 235.321 91.858,235.153 91.285,234.836 90.167 C 234.667 89.571,234.104 87.658,233.584 85.917 C 233.065 84.175,232.503 82.262,232.337 81.667 C 232.170 81.071,231.721 79.533,231.340 78.250 C 230.958 76.967,230.394 75.054,230.086 74.000 C 229.244 71.112,228.277 67.826,227.585 65.500 C 227.244 64.354,226.830 62.929,226.666 62.333 C 226.502 61.737,226.177 60.612,225.944 59.833 C 224.870 56.240,224.281 54.220,224.208 53.875 C 224.108 53.405,221.667 53.279,221.667 53.744 M355.668 54.875 C 355.370 55.631,355.027 56.475,354.905 56.750 C 354.783 57.025,354.338 58.112,353.917 59.167 C 353.495 60.221,353.051 61.308,352.929 61.583 C 352.807 61.858,352.506 62.608,352.260 63.250 C 351.824 64.387,350.797 66.915,350.499 67.583 C 350.418 67.767,350.150 68.442,349.905 69.083 C 349.660 69.725,349.359 70.475,349.237 70.750 C 349.114 71.025,348.522 72.487,347.920 74.000 C 347.318 75.512,346.754 76.900,346.668 77.083 C 346.581 77.267,346.167 78.279,345.747 79.333 C 345.327 80.387,344.884 81.475,344.762 81.750 C 344.640 82.025,344.341 82.775,344.096 83.417 C 343.852 84.058,343.572 84.771,343.475 85.000 C 343.377 85.229,342.816 86.617,342.228 88.083 C 341.640 89.550,341.088 90.900,341.001 91.083 C 340.914 91.267,340.500 92.279,340.080 93.333 C 339.661 94.388,339.208 95.486,339.075 95.775 C 338.942 96.064,338.833 96.353,338.833 96.417 C 338.833 96.481,338.724 96.769,338.591 97.058 C 338.458 97.347,338.005 98.446,337.583 99.500 C 337.162 100.554,336.708 101.653,336.575 101.942 C 336.442 102.231,336.333 102.519,336.333 102.583 C 336.333 102.647,336.225 102.936,336.093 103.225 C 335.960 103.514,335.208 105.362,334.422 107.333 C 333.635 109.304,332.920 111.067,332.833 111.250 C 332.746 111.433,332.184 112.821,331.583 114.333 C 330.983 115.846,330.421 117.233,330.334 117.417 C 330.248 117.600,329.835 118.612,329.417 119.667 C 328.999 120.721,328.588 121.733,328.504 121.917 C 328.420 122.100,328.131 122.813,327.861 123.500 C 327.591 124.188,326.791 126.175,326.083 127.917 C 325.374 129.658,324.244 132.451,323.571 134.123 C 322.898 135.794,322.267 137.313,322.168 137.498 C 321.994 137.822,322.037 137.833,323.415 137.833 C 324.820 137.833,324.844 137.826,325.008 137.375 C 325.099 137.123,325.246 136.767,325.334 136.583 C 325.422 136.400,326.285 134.262,327.252 131.833 C 328.218 129.404,329.080 127.267,329.166 127.083 C 329.253 126.900,329.665 125.888,330.083 124.833 C 330.501 123.779,330.915 122.767,331.002 122.583 C 331.089 122.400,331.951 120.263,332.917 117.833 C 333.883 115.404,334.744 113.267,334.831 113.083 C 334.918 112.900,336.458 109.075,338.253 104.583 C 340.047 100.092,341.615 96.192,341.737 95.917 C 341.860 95.642,342.160 94.892,342.405 94.250 C 342.651 93.608,343.069 92.558,343.336 91.917 C 343.603 91.275,344.879 88.087,346.171 84.833 C 347.464 81.579,348.591 78.767,348.675 78.583 C 348.819 78.270,353.123 67.552,354.197 64.833 C 354.468 64.146,354.789 63.358,354.910 63.083 C 355.031 62.808,355.185 62.396,355.252 62.167 C 355.319 61.938,355.426 61.675,355.490 61.583 C 355.553 61.492,356.087 60.198,356.677 58.708 C 357.778 55.926,357.896 55.731,358.092 56.375 C 358.226 56.816,359.615 60.432,359.837 60.917 C 359.921 61.100,360.243 61.925,360.552 62.750 C 361.522 65.337,362.843 68.728,363.093 69.275 C 363.225 69.564,363.333 69.845,363.333 69.900 C 363.333 69.955,363.854 71.331,364.490 72.958 C 365.126 74.585,365.921 76.629,366.256 77.500 C 367.047 79.552,368.424 83.107,369.422 85.667 C 369.725 86.446,370.360 88.096,370.833 89.333 C 372.145 92.765,372.839 94.549,373.005 94.917 C 373.088 95.100,373.409 95.925,373.719 96.750 C 374.689 99.337,376.009 102.728,376.260 103.275 C 376.392 103.564,376.500 103.846,376.500 103.903 C 376.500 103.959,376.800 104.762,377.167 105.687 C 377.533 106.612,377.833 107.435,377.833 107.517 C 377.833 107.602,370.222 107.683,359.894 107.708 L 341.956 107.750 341.488 108.917 L 341.021 110.083 359.984 110.126 L 378.948 110.168 384.465 123.959 L 389.983 137.750 391.394 137.798 L 392.806 137.846 392.246 136.465 C 391.679 135.067,389.825 130.372,387.555 124.583 C 386.871 122.842,386.096 120.892,385.830 120.250 C 385.348 119.083,383.363 114.049,381.592 109.500 C 381.074 108.171,380.582 106.933,380.497 106.750 C 380.353 106.436,377.573 99.410,375.553 94.251 C 375.050 92.969,374.001 90.306,373.220 88.335 C 372.440 86.363,371.252 83.362,370.582 81.667 C 369.911 79.971,368.560 76.558,367.581 74.083 C 366.601 71.608,365.402 68.571,364.916 67.333 C 363.272 63.146,360.153 55.255,359.795 54.375 L 359.439 53.500 357.824 53.500 L 356.209 53.500 355.668 54.875 M297.000 164.167 L 297.000 173.833 297.917 173.833 L 298.833 173.833 298.833 164.167 L 298.833 154.500 297.917 154.500 L 297.000 154.500 297.000 164.167 M313.333 159.058 L 313.333 163.615 312.662 162.976 C 309.711 160.169,304.428 161.487,302.989 165.389 C 300.735 171.500,307.825 176.987,312.573 172.807 L 313.333 172.138 313.333 172.986 L 313.333 173.833 314.250 173.833 L 315.167 173.833 315.167 164.167 L 315.167 154.500 314.250 154.500 L 313.333 154.500 313.333 159.058 M200.170 155.482 C 196.965 156.626,196.474 160.461,199.168 163.303 C 199.369 163.515,199.507 163.710,199.475 163.735 C 199.443 163.761,199.036 163.986,198.570 164.235 C 193.195 167.113,194.977 174.167,201.079 174.167 C 203.177 174.167,204.709 173.499,206.072 171.990 L 206.709 171.286 207.962 172.559 L 209.216 173.833 210.552 173.833 C 211.287 173.833,211.858 173.801,211.819 173.762 C 210.186 172.091,207.929 169.571,207.963 169.458 C 207.988 169.375,208.692 168.169,209.527 166.778 C 210.362 165.388,211.077 164.194,211.116 164.125 C 211.154 164.056,210.669 164.000,210.037 164.000 C 209.011 164.000,208.867 164.040,208.700 164.375 C 208.598 164.581,208.171 165.350,207.752 166.083 C 207.334 166.817,206.906 167.585,206.802 167.792 C 206.534 168.324,206.597 168.367,204.408 166.150 L 202.417 164.133 203.066 163.775 C 208.779 160.623,206.227 153.318,200.170 155.482 M269.958 155.339 C 263.103 156.493,259.968 165.044,264.291 170.797 C 267.453 175.005,273.993 175.600,277.708 172.018 C 278.856 170.911,278.847 170.978,277.936 170.364 L 277.206 169.871 276.623 170.568 C 274.409 173.217,269.349 173.163,266.677 170.463 C 263.706 167.460,263.665 162.087,266.592 159.119 C 269.151 156.523,273.764 156.286,276.095 158.630 L 276.773 159.312 277.548 158.781 C 278.498 158.130,278.500 158.107,277.631 157.280 C 275.914 155.647,272.804 154.860,269.958 155.339 M221.000 164.750 L 221.000 173.833 222.000 173.833 L 223.000 173.833 223.000 164.750 L 223.000 155.667 222.000 155.667 L 221.000 155.667 221.000 164.750 M323.923 156.042 C 323.984 156.248,324.138 156.754,324.264 157.167 C 324.630 158.367,325.973 162.908,326.606 165.083 C 326.926 166.183,327.338 167.571,327.523 168.167 C 327.840 169.191,328.370 171.000,328.927 172.958 L 329.176 173.833 330.331 173.833 L 331.486 173.833 331.839 172.625 C 332.208 171.361,333.021 168.616,333.406 167.333 C 333.530 166.921,334.022 165.233,334.499 163.583 C 334.976 161.933,335.471 160.262,335.600 159.869 C 335.728 159.476,335.833 159.045,335.833 158.911 C 335.833 158.243,336.132 158.840,336.566 160.376 C 336.831 161.315,337.142 162.383,337.257 162.750 C 337.372 163.117,337.780 164.504,338.163 165.833 C 338.546 167.162,338.998 168.700,339.166 169.250 C 339.335 169.800,339.635 170.813,339.834 171.500 C 340.588 174.112,340.371 173.833,341.646 173.833 C 342.924 173.833,342.762 174.038,343.498 171.500 C 343.697 170.813,343.998 169.800,344.167 169.250 C 344.335 168.700,344.626 167.725,344.812 167.083 C 346.050 162.828,347.769 157.016,348.011 156.267 C 348.097 156.001,348.167 155.757,348.167 155.725 C 348.167 155.587,346.177 155.682,346.089 155.824 C 346.035 155.911,345.772 156.755,345.503 157.699 C 345.235 158.644,344.555 161.029,343.992 163.000 C 342.866 166.943,342.461 168.372,342.010 170.000 C 341.839 170.616,341.668 170.975,341.614 170.833 C 341.561 170.696,341.180 169.421,340.767 168.000 C 340.355 166.579,339.668 164.217,339.242 162.750 C 338.816 161.283,338.357 159.708,338.222 159.250 C 338.088 158.792,337.867 158.004,337.732 157.500 C 337.227 155.619,337.273 155.667,335.991 155.667 C 335.054 155.667,334.841 155.718,334.770 155.958 C 334.723 156.119,334.261 157.712,333.745 159.500 C 333.228 161.287,332.543 163.650,332.223 164.750 C 331.903 165.850,331.367 167.716,331.033 168.896 C 330.296 171.495,330.655 172.206,327.989 162.875 L 325.930 155.667 324.870 155.667 C 323.850 155.667,323.815 155.680,323.923 156.042 M203.277 157.183 C 205.334 158.455,204.620 161.222,201.892 162.547 L 201.155 162.905 200.658 162.328 C 198.900 160.285,198.941 158.096,200.755 157.114 C 201.464 156.731,202.595 156.762,203.277 157.183 M363.500 160.083 L 363.500 161.833 362.250 161.833 L 361.000 161.833 361.000 162.583 L 361.000 163.333 362.242 163.333 L 363.485 163.333 363.534 167.821 C 363.595 173.375,363.799 173.829,366.297 173.969 C 368.151 174.073,368.573 173.889,368.634 172.949 C 368.690 172.088,368.694 172.091,367.769 172.348 C 365.624 172.944,365.335 172.344,365.334 167.292 L 365.333 163.333 367.000 163.333 L 368.667 163.333 368.667 162.583 L 368.667 161.833 367.000 161.833 L 365.333 161.833 365.333 160.083 L 365.333 158.333 364.417 158.333 L 363.500 158.333 363.500 160.083 M231.083 161.724 C 225.177 163.680,225.187 172.121,231.097 173.915 C 233.119 174.528,235.632 174.053,237.067 172.787 L 237.865 172.083 237.115 171.556 L 236.364 171.029 235.988 171.430 C 234.019 173.526,230.065 172.559,229.004 169.722 C 227.266 165.077,232.444 160.845,235.865 164.115 L 236.314 164.543 236.991 164.045 L 237.668 163.547 237.328 163.114 C 236.343 161.863,232.948 161.107,231.083 161.724 M243.644 161.752 C 239.263 163.154,238.042 169.355,241.514 172.570 C 244.029 174.898,248.094 174.693,250.542 172.115 L 251.000 171.632 250.292 171.088 L 249.584 170.545 248.986 171.161 C 246.730 173.486,242.581 172.654,241.696 169.699 C 241.252 168.217,240.847 168.333,246.440 168.333 L 251.380 168.333 251.293 166.932 C 251.044 162.939,247.479 160.524,243.644 161.752 M284.917 161.717 C 279.707 163.296,278.822 170.917,283.564 173.362 C 288.645 175.982,294.143 172.157,293.200 166.658 C 292.556 162.907,288.659 160.582,284.917 161.717 M352.155 161.719 C 350.139 162.286,349.365 163.108,350.127 163.871 L 350.635 164.379 351.139 164.020 C 353.852 162.088,356.901 162.887,357.261 165.625 L 357.376 166.500 355.660 166.500 C 350.830 166.500,348.548 167.972,348.890 170.866 C 349.287 174.229,354.064 175.417,356.700 172.808 L 357.484 172.032 357.534 172.891 L 357.583 173.750 358.426 173.799 L 359.269 173.849 359.149 172.883 C 359.082 172.351,359.020 170.267,359.010 168.250 C 358.988 163.679,358.738 162.960,356.833 161.986 C 355.919 161.519,353.380 161.374,352.155 161.719 M374.690 161.682 C 371.122 162.768,369.363 167.215,371.092 170.775 C 372.896 174.492,377.973 175.349,381.102 172.465 C 381.992 171.645,381.991 171.653,381.174 171.006 L 380.514 170.483 379.913 171.149 C 377.525 173.792,373.055 172.484,372.429 168.958 L 372.318 168.333 377.350 168.333 L 382.381 168.333 382.267 166.964 C 381.937 163.009,378.410 160.550,374.690 161.682 M390.053 161.683 C 389.762 161.768,389.105 162.219,388.595 162.685 L 387.667 163.533 387.667 162.683 L 387.667 161.833 386.727 161.833 L 385.788 161.833 385.894 162.607 C 385.952 163.032,386.000 165.732,386.000 168.607 L 386.000 173.833 386.903 173.833 L 387.807 173.833 387.862 169.875 C 387.914 166.149,387.939 165.878,388.288 165.250 C 389.133 163.731,389.789 163.335,391.458 163.334 L 392.667 163.333 392.669 162.792 C 392.670 162.494,392.716 162.081,392.772 161.875 C 392.884 161.458,391.235 161.341,390.053 161.683 M247.262 163.315 C 248.338 163.804,249.500 165.560,249.500 166.697 C 249.500 166.772,247.700 166.833,245.500 166.833 C 242.411 166.833,241.500 166.786,241.501 166.625 C 241.512 164.196,244.906 162.246,247.262 163.315 M288.545 163.317 C 291.538 164.600,292.315 168.821,290.016 171.298 C 288.445 172.990,285.175 172.942,283.650 171.205 C 280.366 167.465,284.117 161.419,288.545 163.317 M310.966 163.509 C 312.568 164.310,313.500 165.900,313.500 167.833 C 313.500 173.161,306.256 174.414,304.766 169.345 C 303.534 165.154,307.253 161.654,310.966 163.509 M378.195 163.313 C 379.339 163.810,380.320 165.217,380.330 166.375 L 380.333 166.833 376.351 166.833 L 372.368 166.833 372.498 166.292 C 373.112 163.721,375.843 162.293,378.195 163.313 M201.958 166.375 C 203.783 168.261,205.240 169.842,205.301 170.004 C 205.416 170.308,203.408 172.101,202.731 172.299 C 197.821 173.735,195.376 168.428,199.642 165.593 C 200.132 165.267,200.555 165.000,200.580 165.000 C 200.606 165.000,201.226 165.619,201.958 166.375 M254.000 167.671 L 254.000 168.508 256.875 168.462 L 259.750 168.417 259.801 167.625 L 259.852 166.833 256.926 166.833 L 254.000 166.833 254.000 167.671 M357.280 168.965 C 357.044 171.220,355.601 172.665,353.583 172.665 C 350.419 172.665,349.701 169.372,352.660 168.429 C 353.820 168.060,353.966 168.040,355.732 168.019 L 357.381 168.000 357.280 168.965 " stroke="none" fill="#040404" fill-rule="evenodd"></path><path id="path2" d="" stroke="none" fill="#e02418" fill-rule="evenodd"></path><path id="path3" d="" stroke="none" fill="#3c2418" fill-rule="evenodd"></path><path id="path4" d="" stroke="none" fill="#042818" fill-rule="evenodd"></path></g></svg>