<svg id="svg" version="1.1" xmlns="http://www.w3.org/2000/svg" xmlns:xlink="http://www.w3.org/1999/xlink" width="400" height="106.4430988976867" viewBox="0, 0, 400,106.4430988976867"><g id="svgg"><path id="path0" d="M385.871 9.040 C 379.871 11.610,381.715 20.421,388.250 20.408 C 394.533 20.396,396.429 12.075,390.815 9.149 C 389.709 8.573,387.096 8.515,385.871 9.040 M389.878 9.929 C 393.399 11.129,394.229 16.029,391.302 18.342 C 387.876 21.050,383.113 18.561,383.366 14.194 C 383.555 10.935,386.728 8.856,389.878 9.929 M271.244 11.125 C 271.098 11.652,270.910 12.271,270.828 12.500 C 270.636 13.030,268.490 20.185,268.003 21.917 C 267.900 22.283,267.750 22.771,267.670 23.000 C 267.590 23.229,267.364 23.979,267.167 24.667 C 266.970 25.354,266.745 26.104,266.667 26.333 C 266.589 26.563,266.372 27.275,266.185 27.917 C 265.999 28.558,265.016 31.858,264.001 35.250 C 262.986 38.642,262.003 41.942,261.816 42.583 C 261.628 43.225,261.411 43.938,261.333 44.167 C 261.255 44.396,261.030 45.146,260.833 45.833 C 260.636 46.521,260.411 47.271,260.333 47.500 C 260.255 47.729,260.028 48.479,259.827 49.167 C 259.627 49.854,259.361 50.754,259.236 51.167 C 259.111 51.579,258.180 54.692,257.168 58.083 C 256.156 61.475,255.224 64.587,255.099 65.000 C 254.973 65.412,254.706 66.313,254.505 67.000 C 254.303 67.688,253.966 68.813,253.755 69.500 C 253.544 70.188,253.215 71.275,253.025 71.917 C 252.835 72.558,251.848 75.858,250.833 79.250 C 249.818 82.642,248.832 85.942,248.642 86.583 C 248.241 87.936,248.064 88.526,247.239 91.250 C 246.159 94.822,245.672 96.513,245.669 96.708 C 245.668 96.777,246.450 96.833,247.407 96.833 L 249.146 96.833 249.564 95.458 C 249.793 94.702,250.168 93.446,250.396 92.667 C 250.913 90.902,253.273 83.014,253.588 82.000 C 253.807 81.295,254.928 77.521,255.692 74.917 C 255.880 74.275,256.137 73.434,256.263 73.048 C 256.389 72.662,256.751 71.462,257.069 70.382 C 257.386 69.301,258.255 66.392,258.999 63.917 C 259.743 61.442,260.535 58.798,260.759 58.042 C 260.983 57.285,261.362 56.010,261.600 55.208 C 261.838 54.406,262.131 53.413,262.252 53.000 C 262.372 52.587,263.717 48.087,265.240 43.000 C 266.764 37.912,268.163 33.225,268.351 32.583 C 268.538 31.942,268.759 31.229,268.841 31.000 C 268.994 30.572,271.078 23.616,272.101 20.118 C 272.417 19.038,272.780 17.838,272.908 17.452 C 273.036 17.066,273.229 16.416,273.336 16.007 C 273.474 15.481,273.571 15.335,273.666 15.507 C 273.778 15.709,275.642 21.692,276.416 24.333 C 276.537 24.746,277.474 27.821,278.499 31.167 C 279.524 34.512,280.462 37.587,280.584 38.000 C 280.950 39.236,281.910 42.379,283.003 45.917 C 283.569 47.750,284.132 49.587,284.253 50.000 C 284.374 50.413,284.625 51.237,284.809 51.833 C 284.994 52.429,285.369 53.667,285.643 54.583 C 285.917 55.500,286.491 57.375,286.919 58.750 C 287.346 60.125,287.771 61.512,287.863 61.833 C 287.955 62.154,288.331 63.392,288.699 64.583 C 289.067 65.775,289.466 67.087,289.585 67.500 C 289.704 67.912,290.527 70.612,291.415 73.500 C 292.303 76.387,293.128 79.087,293.247 79.500 C 293.497 80.360,295.216 85.978,296.409 89.833 C 296.621 90.521,296.962 91.646,297.165 92.333 C 297.369 93.021,297.758 94.315,298.030 95.208 L 298.526 96.833 300.576 96.833 L 302.626 96.833 302.791 96.208 C 302.961 95.565,304.540 90.128,305.925 85.417 C 306.356 83.950,306.842 82.262,307.004 81.667 C 307.166 81.071,307.499 79.908,307.743 79.083 C 308.154 77.695,308.787 75.520,310.729 68.833 C 311.141 67.412,311.665 65.612,311.893 64.833 C 312.121 64.054,312.881 61.429,313.583 59.000 C 314.285 56.571,315.035 53.983,315.250 53.250 C 316.578 48.724,316.859 47.756,317.076 46.964 C 317.354 45.951,317.512 45.403,318.579 41.750 C 320.100 36.545,320.530 35.067,320.930 33.667 C 321.153 32.887,321.453 31.837,321.598 31.333 C 321.742 30.829,321.926 30.229,322.006 30.000 C 322.086 29.771,322.600 28.008,323.149 26.083 C 323.697 24.158,324.344 21.908,324.587 21.083 C 324.830 20.258,325.429 18.196,325.919 16.500 C 326.409 14.804,327.002 12.759,327.238 11.956 C 327.474 11.152,327.667 10.421,327.667 10.331 C 327.667 10.234,326.966 10.167,325.950 10.167 L 324.233 10.167 323.286 13.458 C 321.855 18.437,320.454 23.282,319.587 26.250 C 319.159 27.717,318.096 31.392,317.225 34.417 C 315.368 40.866,313.764 46.421,312.748 49.917 C 312.348 51.292,311.523 54.142,310.914 56.250 C 309.625 60.718,308.529 64.500,307.944 66.500 C 307.717 67.279,307.330 68.629,307.086 69.500 C 306.841 70.371,306.541 71.421,306.418 71.833 C 306.296 72.246,305.708 74.271,305.112 76.333 C 304.516 78.396,303.451 82.071,302.744 84.500 C 302.038 86.929,301.329 89.411,301.170 90.014 C 300.619 92.102,300.623 92.108,299.084 86.833 C 298.963 86.421,297.426 81.358,295.667 75.583 C 293.909 69.808,292.256 64.371,291.995 63.500 C 291.733 62.629,291.245 61.017,290.911 59.917 C 290.576 58.817,290.204 57.579,290.084 57.167 C 289.964 56.754,289.402 54.917,288.834 53.083 C 288.266 51.250,287.726 49.487,287.634 49.167 C 287.542 48.846,286.941 46.858,286.300 44.750 C 285.658 42.642,285.035 40.579,284.915 40.167 C 284.634 39.199,283.791 36.431,282.505 32.250 C 281.941 30.417,281.292 28.279,281.063 27.500 C 280.834 26.721,280.231 24.733,279.723 23.083 C 279.215 21.433,278.701 19.746,278.581 19.333 C 278.462 18.921,278.089 17.683,277.752 16.583 C 277.416 15.483,277.068 14.321,276.978 14.000 C 276.889 13.679,276.750 13.229,276.670 13.000 C 276.590 12.771,276.363 12.040,276.165 11.375 L 275.806 10.167 273.657 10.167 L 271.509 10.167 271.244 11.125 M385.833 14.500 L 385.833 17.833 386.500 17.833 L 387.167 17.833 387.167 16.500 C 387.167 15.226,387.183 15.167,387.544 15.167 C 387.843 15.167,388.073 15.442,388.656 16.500 L 389.391 17.833 390.205 17.833 C 390.653 17.833,390.987 17.777,390.946 17.708 C 390.906 17.640,390.555 17.058,390.167 16.417 C 389.778 15.775,389.429 15.197,389.391 15.132 C 389.353 15.067,389.556 14.894,389.841 14.746 C 390.482 14.415,390.896 13.506,390.741 12.774 C 390.487 11.578,389.638 11.167,387.422 11.167 L 385.833 11.167 385.833 14.500 M388.708 12.342 C 390.039 12.712,389.464 14.000,387.968 14.000 L 387.167 14.000 387.167 13.083 C 387.167 12.052,387.348 11.964,388.708 12.342 " stroke="none" fill="#dc442c" fill-rule="evenodd"></path><path id="path1" d="M34.500 8.768 C 16.697 10.790,7.882 20.047,10.093 34.397 C 11.501 43.531,17.381 48.170,32.083 51.747 C 39.179 53.473,42.412 54.239,44.750 54.748 C 45.850 54.988,47.275 55.300,47.917 55.442 C 62.379 58.652,68.649 64.583,68.664 75.070 C 68.676 83.512,64.094 89.788,55.242 93.454 C 47.664 96.592,34.959 96.707,26.167 93.718 C 15.912 90.230,9.833 81.026,9.833 68.984 L 9.833 67.833 8.583 67.833 L 7.333 67.833 7.335 69.292 C 7.353 84.476,15.389 94.298,30.250 97.298 C 33.220 97.898,34.031 98.000,37.444 98.201 C 55.891 99.288,69.390 91.428,70.990 78.671 C 72.584 65.953,66.428 57.592,53.083 54.350 C 52.302 54.161,51.215 53.875,48.917 53.255 C 44.254 51.998,40.015 50.937,35.917 50.003 C 35.092 49.814,34.267 49.623,34.083 49.576 C 33.900 49.530,33.075 49.349,32.250 49.173 C 18.729 46.296,12.406 40.364,12.437 30.583 C 12.477 18.370,22.567 11.092,39.417 11.124 C 52.084 11.148,60.020 14.999,64.312 23.202 C 65.813 26.069,67.000 30.995,67.000 34.351 C 67.000 34.633,67.134 34.667,68.250 34.667 L 69.500 34.667 69.497 34.125 C 69.434 22.264,62.266 12.901,51.017 9.985 C 46.957 8.933,38.518 8.311,34.500 8.768 M109.739 11.292 C 109.593 11.635,109.177 12.667,108.815 13.583 C 108.452 14.500,108.086 15.400,108.001 15.583 C 107.916 15.767,107.363 17.117,106.773 18.583 C 105.788 21.031,104.511 24.193,100.751 33.500 C 99.991 35.379,98.871 38.154,98.262 39.667 C 97.652 41.179,97.084 42.567,96.998 42.750 C 96.913 42.933,96.427 44.133,95.918 45.417 C 95.410 46.700,94.921 47.900,94.833 48.083 C 94.745 48.267,94.253 49.467,93.739 50.750 C 91.852 55.461,90.317 59.259,90.168 59.583 C 90.084 59.767,89.372 61.529,88.585 63.500 C 87.799 65.471,87.086 67.233,87.002 67.417 C 86.918 67.600,86.205 69.362,85.419 71.333 C 84.632 73.304,83.920 75.067,83.836 75.250 C 83.752 75.433,83.295 76.558,82.822 77.750 C 82.348 78.942,81.861 80.142,81.739 80.417 C 81.617 80.692,80.873 82.529,80.086 84.500 C 79.299 86.471,78.586 88.233,78.501 88.417 C 78.174 89.125,76.667 92.833,76.667 92.930 C 76.667 92.987,76.559 93.269,76.426 93.558 C 76.034 94.416,75.333 96.213,75.333 96.362 C 75.333 96.438,75.952 96.499,76.708 96.497 L 78.083 96.495 79.118 93.872 C 80.491 90.395,84.136 81.338,84.333 80.917 C 84.418 80.733,85.131 78.971,85.917 77.000 C 86.702 75.029,87.416 73.267,87.503 73.083 C 87.589 72.900,89.126 69.075,90.918 64.583 C 92.710 60.092,94.248 56.267,94.336 56.083 C 94.425 55.900,95.962 52.075,97.752 47.583 C 99.543 43.092,101.078 39.267,101.165 39.083 C 101.252 38.900,101.628 37.962,102.000 37.000 C 102.372 36.037,102.748 35.100,102.834 34.917 C 102.921 34.733,104.082 31.846,105.414 28.500 C 106.747 25.154,107.908 22.267,107.996 22.083 C 108.163 21.734,110.186 16.673,111.046 14.458 C 111.321 13.748,111.592 13.168,111.648 13.169 C 111.704 13.170,112.266 14.539,112.897 16.210 C 113.528 17.882,114.145 19.475,114.267 19.750 C 114.389 20.025,114.833 21.150,115.252 22.250 C 116.839 26.410,117.847 29.025,119.170 32.417 C 121.775 39.093,122.355 40.592,123.010 42.333 C 123.372 43.296,123.742 44.233,123.832 44.417 C 123.922 44.600,124.337 45.650,124.755 46.750 C 125.696 49.225,127.015 52.657,128.247 55.833 C 128.763 57.163,129.402 58.813,129.668 59.500 C 129.934 60.188,130.536 61.725,131.007 62.917 C 131.478 64.108,131.902 65.215,131.951 65.375 C 132.034 65.652,131.092 65.667,113.792 65.667 L 95.544 65.667 95.042 66.917 L 94.541 68.167 113.812 68.169 L 133.083 68.171 133.905 70.294 C 134.357 71.461,134.779 72.492,134.843 72.583 C 134.907 72.675,135.014 72.938,135.081 73.167 C 135.149 73.396,135.304 73.808,135.426 74.083 C 135.673 74.638,137.024 78.014,138.829 82.583 C 139.480 84.233,140.114 85.808,140.236 86.083 C 140.359 86.358,141.348 88.815,142.434 91.542 L 144.409 96.500 145.788 96.500 C 146.546 96.500,147.167 96.470,147.167 96.434 C 147.167 96.398,146.872 95.629,146.511 94.726 C 146.150 93.822,145.436 91.996,144.923 90.667 C 144.410 89.337,143.922 88.100,143.837 87.917 C 143.598 87.395,142.768 85.305,141.753 82.667 C 141.242 81.337,140.753 80.100,140.667 79.917 C 140.581 79.733,139.939 78.121,139.240 76.333 C 138.043 73.271,137.009 70.652,133.218 61.083 C 132.347 58.883,131.086 55.696,130.417 54.000 C 129.184 50.877,127.655 47.010,124.782 39.750 C 123.912 37.550,122.621 34.287,121.914 32.500 C 121.207 30.712,120.073 27.825,119.394 26.083 C 118.715 24.342,118.089 22.767,118.002 22.583 C 117.915 22.400,117.201 20.600,116.415 18.583 C 115.629 16.567,114.887 14.692,114.767 14.417 C 114.647 14.142,114.264 13.185,113.917 12.292 L 113.286 10.667 111.645 10.667 L 110.004 10.667 109.739 11.292 M152.167 39.042 C 152.168 69.373,152.181 69.920,153.006 74.611 C 155.594 89.327,164.797 97.212,180.542 98.204 C 183.756 98.406,189.066 98.219,190.940 97.838 C 194.307 97.152,195.230 96.932,196.645 96.476 C 206.259 93.377,212.196 86.190,214.316 75.083 C 215.175 70.586,215.167 70.928,215.167 39.734 L 215.167 10.667 213.921 10.667 L 212.676 10.667 212.620 40.458 C 212.559 72.591,212.612 70.504,211.736 74.833 C 208.878 88.947,199.625 95.881,183.667 95.868 C 167.692 95.856,158.711 89.082,155.666 74.750 C 154.734 70.365,154.771 71.696,154.710 39.958 L 154.654 10.667 153.410 10.667 L 152.167 10.667 152.167 39.042 M220.247 10.958 C 220.310 11.119,220.571 11.963,220.827 12.833 C 222.397 18.190,223.605 22.300,224.036 23.750 C 224.309 24.667,224.630 25.754,224.750 26.167 C 224.869 26.579,225.162 27.573,225.400 28.375 C 226.346 31.561,226.709 32.799,227.025 33.917 C 227.206 34.558,227.792 36.546,228.327 38.333 C 228.862 40.121,229.500 42.296,229.745 43.167 C 229.989 44.038,230.254 44.938,230.332 45.167 C 230.411 45.396,230.636 46.146,230.833 46.833 C 231.030 47.521,231.255 48.271,231.332 48.500 C 231.410 48.729,231.591 49.329,231.734 49.833 C 231.878 50.337,232.590 52.775,233.316 55.250 C 234.042 57.725,234.724 60.050,234.830 60.417 C 234.937 60.783,235.125 61.421,235.248 61.833 C 235.463 62.554,236.460 65.943,236.915 67.500 C 237.035 67.912,237.325 68.894,237.558 69.680 C 237.791 70.467,238.355 72.379,238.811 73.930 C 239.267 75.481,239.917 77.688,240.254 78.833 C 240.591 79.979,240.972 81.273,241.100 81.708 C 241.228 82.144,241.439 82.856,241.569 83.292 C 242.435 86.200,243.046 88.303,243.120 88.627 C 243.267 89.270,243.476 89.208,243.673 88.463 C 243.953 87.402,244.339 86.135,244.518 85.691 C 244.619 85.438,244.615 85.111,244.504 84.774 C 244.346 84.290,243.077 80.008,242.694 78.667 C 242.602 78.346,242.253 77.146,241.917 76.000 C 241.581 74.854,241.231 73.654,241.139 73.333 C 241.048 73.012,240.650 71.662,240.256 70.333 C 239.861 69.004,239.499 67.767,239.450 67.583 C 239.368 67.270,238.422 64.038,237.902 62.292 C 237.773 61.856,237.562 61.144,237.434 60.708 C 237.305 60.273,236.935 59.017,236.611 57.917 C 236.287 56.817,235.672 54.717,235.243 53.250 C 234.136 49.462,234.029 49.098,233.750 48.167 C 233.107 46.023,232.956 45.511,232.672 44.500 C 232.385 43.481,231.885 41.776,230.421 36.833 C 230.082 35.688,229.542 33.850,229.221 32.750 C 228.900 31.650,228.539 30.412,228.417 30.000 C 228.295 29.587,227.845 28.050,227.415 26.583 C 226.986 25.117,226.536 23.579,226.415 23.167 C 226.294 22.754,225.933 21.517,225.612 20.417 C 225.291 19.317,224.762 17.517,224.436 16.417 C 224.109 15.317,223.597 13.573,223.298 12.542 L 222.754 10.667 221.442 10.667 C 220.260 10.667,220.142 10.695,220.247 10.958 M356.293 12.536 C 355.880 13.570,354.737 16.404,353.752 18.833 C 352.768 21.262,351.342 24.787,350.584 26.667 C 347.170 35.123,345.299 39.737,344.501 41.667 C 344.028 42.813,343.533 44.050,343.402 44.417 C 343.271 44.783,343.092 45.233,343.005 45.417 C 342.917 45.600,342.575 46.425,342.245 47.250 C 341.914 48.075,341.546 48.975,341.425 49.250 C 341.305 49.525,340.819 50.725,340.345 51.917 C 339.871 53.108,339.415 54.233,339.331 54.417 C 339.247 54.600,338.535 56.362,337.748 58.333 C 336.961 60.304,336.249 62.067,336.165 62.250 C 336.080 62.433,335.368 64.196,334.581 66.167 C 333.795 68.137,333.083 69.900,332.999 70.083 C 332.768 70.588,330.661 75.799,330.303 76.750 C 330.131 77.208,329.921 77.733,329.836 77.917 C 329.752 78.100,329.414 78.925,329.086 79.750 C 328.757 80.575,328.417 81.400,328.331 81.583 C 328.244 81.767,327.757 82.967,327.248 84.250 C 326.740 85.533,326.252 86.733,326.165 86.917 C 326.078 87.100,325.525 88.450,324.937 89.917 C 324.348 91.383,323.522 93.436,323.100 94.478 C 322.678 95.520,322.333 96.401,322.333 96.436 C 322.333 96.471,322.958 96.500,323.721 96.500 L 325.109 96.500 326.329 93.458 C 327.000 91.785,327.647 90.192,327.768 89.917 C 327.888 89.642,328.710 87.617,329.594 85.417 C 330.479 83.217,331.915 79.654,332.785 77.500 C 333.656 75.346,335.825 69.946,337.605 65.500 C 339.385 61.054,340.914 57.267,341.001 57.083 C 341.089 56.900,342.626 53.075,344.418 48.583 C 346.210 44.092,347.746 40.267,347.833 40.083 C 347.920 39.900,348.145 39.337,348.333 38.833 C 348.522 38.329,348.747 37.767,348.834 37.583 C 348.921 37.400,350.834 32.637,353.084 27.000 C 355.334 21.363,357.245 16.600,357.329 16.417 C 357.413 16.233,357.722 15.483,358.015 14.750 C 358.699 13.038,358.743 13.000,359.051 13.862 C 359.496 15.106,360.831 18.568,360.999 18.917 C 361.088 19.100,361.767 20.825,362.509 22.750 C 363.252 24.675,364.196 27.113,364.607 28.167 C 365.019 29.221,365.758 31.133,366.249 32.417 C 366.740 33.700,367.486 35.650,367.906 36.750 C 368.327 37.850,368.743 38.900,368.831 39.083 C 368.918 39.267,369.293 40.242,369.663 41.250 C 370.033 42.258,370.408 43.233,370.496 43.417 C 370.585 43.600,371.307 45.438,372.100 47.500 C 372.894 49.563,373.880 52.112,374.292 53.167 C 375.043 55.086,375.974 57.504,377.407 61.250 C 377.827 62.350,378.243 63.400,378.331 63.583 C 378.419 63.767,378.642 64.310,378.826 64.792 L 379.162 65.667 360.905 65.667 L 342.648 65.667 342.263 66.542 C 342.052 67.023,341.826 67.585,341.761 67.792 L 341.644 68.167 360.875 68.167 L 380.106 68.167 380.661 69.542 C 380.967 70.298,381.314 71.142,381.433 71.417 C 381.553 71.692,381.956 72.704,382.330 73.667 C 382.704 74.629,383.082 75.567,383.169 75.750 C 383.256 75.933,384.067 77.958,384.972 80.250 C 385.877 82.542,386.663 84.529,386.719 84.667 C 386.774 84.804,387.859 87.504,389.130 90.667 L 391.439 96.417 392.823 96.465 L 394.206 96.514 394.090 96.049 C 394.027 95.793,393.872 95.358,393.747 95.083 C 393.425 94.375,392.795 92.793,391.724 90.000 C 391.214 88.671,390.696 87.358,390.573 87.083 C 390.450 86.808,389.707 84.933,388.921 82.917 C 388.134 80.900,387.421 79.100,387.334 78.917 C 387.248 78.733,386.536 76.933,385.751 74.917 C 384.966 72.900,384.254 71.100,384.168 70.917 C 384.031 70.626,383.536 69.365,381.713 64.667 C 381.482 64.071,381.194 63.358,381.072 63.083 C 380.951 62.808,380.429 61.496,379.911 60.167 C 379.394 58.837,378.272 55.987,377.418 53.833 C 375.899 50.004,374.335 46.048,371.751 39.500 C 371.046 37.712,369.770 34.487,368.917 32.333 C 368.063 30.179,366.792 26.954,366.092 25.167 C 365.392 23.379,364.750 21.767,364.665 21.583 C 364.580 21.400,363.866 19.600,363.078 17.583 C 362.290 15.567,361.361 13.204,361.014 12.333 L 360.384 10.750 358.713 10.703 L 357.043 10.655 356.293 12.536 " stroke="none" fill="#040404" fill-rule="evenodd"></path><path id="path2" d="M387.460 12.285 C 387.668 12.324,387.968 12.323,388.127 12.281 C 388.286 12.239,388.117 12.207,387.750 12.209 C 387.383 12.211,387.253 12.245,387.460 12.285 " stroke="none" fill="#e02418" fill-rule="evenodd"></path><path id="path3" d="" stroke="none" fill="#3c2418" fill-rule="evenodd"></path><path id="path4" d="" stroke="none" fill="#042818" fill-rule="evenodd"></path></g></svg>